<svg width="631" height="642" viewBox="0 0 631 642" fill="none" xmlns="http://www.w3.org/2000/svg">
<rect width="631" height="642" fill="#D2D2D2"/>
<path d="M0 -357C0 -370.255 10.7452 -381 24 -381H1440V643H24C10.7451 643 0 632.255 0 619V-357Z" fill="#EDF3FC"/>
<g clip-path="url(#clip0_1_3)">
<rect y="-380" width="710" height="1022" rx="20" fill="#428BF8"/>
<path d="M74.6 74.519C74.6 76.2188 74.096 77.8804 73.1517 79.2937C72.2073 80.707 70.8651 81.8086 69.2947 82.459C67.7243 83.1095 65.9963 83.2797 64.3292 82.9481C62.6621 82.6165 61.1307 81.798 59.9288 80.596C58.7269 79.3941 57.9084 77.8628 57.5768 76.1957C57.2451 74.5285 57.4153 72.8005 58.0658 71.2302C58.7163 69.6598 59.8178 68.3175 61.2311 67.3732C62.6445 66.4288 64.3061 65.9248 66.0058 65.9248C68.2852 65.9248 70.4711 66.8303 72.0829 68.442C73.6946 70.0537 74.6 72.2397 74.6 74.519Z" stroke="#808080" stroke-width="0.161909" stroke-miterlimit="10"/>
<path d="M112.146 74.4508H19.8682L47.4137 55.1689H84.6002L112.146 74.4508Z" fill="#FAFAFA" stroke="#FAFAFA" stroke-width="0.161909" stroke-linecap="round" stroke-linejoin="round"/>
<path d="M73.3333 43.71H58.6929V62.9918H73.3333V43.71Z" fill="#FAFAFA" stroke="#FAFAFA" stroke-width="0.161909" stroke-linecap="round" stroke-linejoin="round"/>
<path d="M65.6895 44.9076V1" stroke="#FAFAFA" stroke-width="0.161909" stroke-linecap="round" stroke-linejoin="round"/>
<path d="M408.232 57.8128V36.3135H428.285V192.111" stroke="#808080" stroke-width="0.161909" stroke-miterlimit="10"/>
<path d="M408.232 386.39V63.6523" stroke="#808080" stroke-width="0.161909" stroke-miterlimit="10"/>
<path d="M428.285 197.951V556.263H408.232V394.351" stroke="#808080" stroke-width="0.161909" stroke-miterlimit="10"/>
<path d="M303.586 45.7478V36.3135H323.639V44.0262" stroke="#808080" stroke-width="0.161909" stroke-miterlimit="10"/>
<path d="M303.586 213.334V207.013" stroke="#808080" stroke-width="0.161909" stroke-miterlimit="10"/>
<path d="M323.639 537.684V556.264H303.586V468.655" stroke="#808080" stroke-width="0.161909" stroke-miterlimit="10"/>
<path d="M323.64 468.31V530.783" stroke="#808080" stroke-width="0.161909" stroke-miterlimit="10"/>
<path d="M99.915 519.628V468.655" stroke="#808080" stroke-width="0.161909" stroke-miterlimit="10"/>
<path d="M119.968 468.31V556.262H99.915V528.125" stroke="#808080" stroke-width="0.161909" stroke-miterlimit="10"/>
<path d="M323.64 205.291V212.99" stroke="#808080" stroke-width="0.161909" stroke-miterlimit="10"/>
<path d="M244.86 206.215H408.301V184.179H36.4365" stroke="#808080" stroke-width="0.161909" stroke-miterlimit="10"/>
<path d="M115.864 206.213H239.544" stroke="#808080" stroke-width="0.161909" stroke-miterlimit="10"/>
<path d="M98.8823 206.213H110.562" stroke="#808080" stroke-width="0.161909" stroke-miterlimit="10"/>
<path d="M36.4365 206.213H92.5055" stroke="#808080" stroke-width="0.161909" stroke-miterlimit="10"/>
<path d="M396.318 414.791H354.876V446.868H396.318V414.791Z" stroke="#808080" stroke-width="0.161909" stroke-miterlimit="10"/>
<path d="M295.378 414.791H253.936V446.868H295.378V414.791Z" stroke="#808080" stroke-width="0.161909" stroke-miterlimit="10"/>
<path d="M194.423 414.791H74.5591V446.868H194.423V414.791Z" stroke="#808080" stroke-width="0.161909" stroke-miterlimit="10"/>
<path d="M194.424 414.791H159.468V446.868H194.424V414.791Z" stroke="#808080" stroke-width="0.161909" stroke-miterlimit="10"/>
<path d="M399.79 408.344H55.7046V414.762H399.79V408.344Z" stroke="#808080" stroke-width="0.161909" stroke-miterlimit="10"/>
<path d="M399.776 408.344H144.842V414.762H399.776V408.344Z" stroke="#808080" stroke-width="0.161909" stroke-miterlimit="10"/>
<path d="M182.592 403.619H60.2627V408.522H182.592V403.619Z" stroke="#808080" stroke-width="0.161909" stroke-miterlimit="10"/>
<path d="M234.365 403.619H209.285V408.219H234.365V403.619Z" stroke="#808080" stroke-width="0.161909" stroke-miterlimit="10"/>
<path d="M286.136 403.619H261.056V408.219H286.136V403.619Z" stroke="#808080" stroke-width="0.161909" stroke-miterlimit="10"/>
<path d="M337.908 403.619H312.828V408.219H337.908V403.619Z" stroke="#808080" stroke-width="0.161909" stroke-miterlimit="10"/>
<path d="M389.681 403.619H364.601V408.219H389.681V403.619Z" stroke="#808080" stroke-width="0.161909" stroke-miterlimit="10"/>
<path d="M194.423 446.867H253.935" stroke="#808080" stroke-width="0.161909" stroke-miterlimit="10"/>
<path d="M295.364 446.867H354.876" stroke="#808080" stroke-width="0.161909" stroke-miterlimit="10"/>
<path d="M159.042 408.383V403.783" stroke="#808080" stroke-width="0.161909" stroke-miterlimit="10"/>
<path d="M182.592 403.619H209.284" stroke="#808080" stroke-width="0.161909" stroke-miterlimit="10"/>
<path d="M234.364 403.619H261.056" stroke="#808080" stroke-width="0.161909" stroke-miterlimit="10"/>
<path d="M286.136 403.619H312.827" stroke="#808080" stroke-width="0.161909" stroke-miterlimit="10"/>
<path d="M337.909 403.619H364.6" stroke="#808080" stroke-width="0.161909" stroke-miterlimit="10"/>
<path d="M62.7838 468.847H408.301V446.811H36.4365" stroke="#808080" stroke-width="0.161909" stroke-miterlimit="10"/>
<path d="M36.4365 468.845H56.4208" stroke="#808080" stroke-width="0.161909" stroke-miterlimit="10"/>
<path d="M390.659 213.155H276.29V308.174H390.659V213.155Z" stroke="#808080" stroke-width="0.161909" stroke-miterlimit="10"/>
<path d="M390.658 213.155H298.697V308.174H390.658V213.155Z" stroke="#808080" stroke-width="0.161909" stroke-miterlimit="10"/>
<path d="M355.455 220.717H336.174C335.282 220.717 334.428 220.363 333.797 219.733C333.167 219.103 332.813 218.248 332.813 217.357C332.813 216.465 333.167 215.611 333.797 214.98C334.428 214.35 335.282 213.996 336.174 213.996H355.455C356.347 213.996 357.201 214.35 357.832 214.98C358.462 215.611 358.816 216.465 358.816 217.357C358.816 218.248 358.462 219.103 357.832 219.733C357.201 220.363 356.347 220.717 355.455 220.717Z" stroke="#808080" stroke-width="0.161909" stroke-miterlimit="10"/>
<path d="M390.659 308.147H276.29V403.166H390.659V308.147Z" stroke="#808080" stroke-width="0.161909" stroke-miterlimit="10"/>
<path d="M390.658 308.147H298.697V403.166H390.658V308.147Z" stroke="#808080" stroke-width="0.161909" stroke-miterlimit="10"/>
<path d="M355.455 308.987H336.174C334.318 308.987 332.813 310.489 332.813 312.341C332.813 314.193 334.318 315.695 336.174 315.695H355.455C357.311 315.695 358.816 314.193 358.816 312.341C358.816 310.489 357.311 308.987 355.455 308.987Z" stroke="#808080" stroke-width="0.161909" stroke-miterlimit="10"/>
<path d="M258.247 308.147H143.877V403.166H258.247V308.147Z" stroke="#808080" stroke-width="0.161909" stroke-miterlimit="10"/>
<path d="M258.247 308.147H166.286V403.166H258.247V308.147Z" stroke="#808080" stroke-width="0.161909" stroke-miterlimit="10"/>
<path d="M223.057 308.987H203.775C201.919 308.987 200.415 310.489 200.415 312.341C200.415 314.193 201.919 315.695 203.775 315.695H223.057C224.913 315.695 226.418 314.193 226.418 312.341C226.418 310.489 224.913 308.987 223.057 308.987Z" stroke="#808080" stroke-width="0.161909" stroke-miterlimit="10"/>
<path d="M396.318 151.853H354.876V183.929H396.318V151.853Z" stroke="#808080" stroke-width="0.161909" stroke-miterlimit="10"/>
<path d="M295.378 151.853H253.936V183.929H295.378V151.853Z" stroke="#808080" stroke-width="0.161909" stroke-miterlimit="10"/>
<path d="M194.423 151.853H74.5591V183.929H194.423V151.853Z" stroke="#808080" stroke-width="0.161909" stroke-miterlimit="10"/>
<path d="M194.424 151.853H159.468V183.929H194.424V151.853Z" stroke="#808080" stroke-width="0.161909" stroke-miterlimit="10"/>
<path d="M399.79 145.42H55.7046V151.838H399.79V145.42Z" stroke="#808080" stroke-width="0.161909" stroke-miterlimit="10"/>
<path d="M399.776 145.42H144.842V151.838H399.776V145.42Z" stroke="#808080" stroke-width="0.161909" stroke-miterlimit="10"/>
<path d="M93.5239 140.684H60.2627V145.587H182.592V140.684H99.1019" stroke="#808080" stroke-width="0.161909" stroke-miterlimit="10"/>
<path d="M234.365 140.695H209.285V145.295H234.365V140.695Z" stroke="#808080" stroke-width="0.161909" stroke-miterlimit="10"/>
<path d="M286.136 140.695H261.056V145.295H286.136V140.695Z" stroke="#808080" stroke-width="0.161909" stroke-miterlimit="10"/>
<path d="M337.908 140.695H312.828V145.295H337.908V140.695Z" stroke="#808080" stroke-width="0.161909" stroke-miterlimit="10"/>
<path d="M389.681 140.695H364.601V145.295H389.681V140.695Z" stroke="#808080" stroke-width="0.161909" stroke-miterlimit="10"/>
<path d="M194.423 183.943H253.935" stroke="#808080" stroke-width="0.161909" stroke-miterlimit="10"/>
<path d="M295.364 183.943H354.876" stroke="#808080" stroke-width="0.161909" stroke-miterlimit="10"/>
<path d="M159.042 145.447V140.86" stroke="#808080" stroke-width="0.161909" stroke-miterlimit="10"/>
<path d="M182.592 140.695H209.284" stroke="#808080" stroke-width="0.161909" stroke-miterlimit="10"/>
<path d="M234.364 140.695H261.056" stroke="#808080" stroke-width="0.161909" stroke-miterlimit="10"/>
<path d="M286.136 140.695H312.827" stroke="#808080" stroke-width="0.161909" stroke-miterlimit="10"/>
<path d="M337.909 140.695H364.6" stroke="#808080" stroke-width="0.161909" stroke-miterlimit="10"/>
<path d="M390.659 45.2246H276.29V140.243H390.659V45.2246Z" stroke="#808080" stroke-width="0.161909" stroke-miterlimit="10"/>
<path d="M298.697 108.331V45.2246H390.644V140.243H298.697V116.278" stroke="#808080" stroke-width="0.161909" stroke-miterlimit="10"/>
<path d="M355.455 52.7738H336.174C335.282 52.7738 334.428 52.4197 333.797 51.7895C333.167 51.1593 332.813 50.3045 332.813 49.4132C332.813 48.9726 332.9 48.5362 333.069 48.1293C333.238 47.7223 333.486 47.3528 333.798 47.0418C334.11 46.7308 334.481 46.4846 334.889 46.3172C335.296 46.1498 335.733 46.0646 336.174 46.0664H355.455C355.896 46.0646 356.333 46.1498 356.74 46.3172C357.148 46.4846 357.519 46.7308 357.831 47.0418C358.143 47.3528 358.391 47.7223 358.56 48.1293C358.729 48.5362 358.816 48.9726 358.816 49.4132C358.816 50.3045 358.462 51.1593 357.832 51.7895C357.201 52.4197 356.347 52.7738 355.455 52.7738Z" stroke="#808080" stroke-width="0.161909" stroke-miterlimit="10"/>
<path d="M258.247 86.8321V140.243H143.877V45.2246H258.247V80.8685" stroke="#808080" stroke-width="0.161909" stroke-miterlimit="10"/>
<path d="M258.247 86.8321V140.243H166.286V45.2246H258.247V76.8882" stroke="#808080" stroke-width="0.161909" stroke-miterlimit="10"/>
<path d="M223.057 52.772H203.776C203.335 52.772 202.899 52.685 202.492 52.516C202.085 52.3469 201.715 52.0992 201.404 51.7869C201.093 51.4747 200.847 51.1041 200.68 50.6965C200.512 50.2888 200.427 49.8522 200.429 49.4115C200.429 48.5239 200.781 47.6726 201.409 47.045C202.037 46.4173 202.888 46.0647 203.776 46.0647H223.057C223.501 46.0592 223.941 46.1417 224.353 46.3073C224.765 46.4728 225.139 46.7183 225.456 47.0294C225.772 47.3406 226.023 47.7112 226.196 48.1201C226.368 48.5289 226.457 48.9678 226.459 49.4115C226.459 49.8563 226.371 50.2967 226.2 50.7071C226.028 51.1176 225.777 51.4899 225.46 51.8025C225.144 52.1151 224.769 52.3618 224.356 52.5282C223.944 52.6946 223.502 52.7775 223.057 52.772Z" stroke="#808080" stroke-width="0.161909" stroke-miterlimit="10"/>
<path d="M371.1 468.959L408.535 494.535" stroke="#808080" stroke-width="0.161909" stroke-miterlimit="10"/>
<path d="M408.481 513.83L343.033 469.082" stroke="#808080" stroke-width="0.161909" stroke-miterlimit="10"/>
<path d="M265.973 468.959L303.394 494.535" stroke="#808080" stroke-width="0.161909" stroke-miterlimit="10"/>
<path d="M303.339 513.83L237.891 469.082" stroke="#808080" stroke-width="0.161909" stroke-miterlimit="10"/>
<path d="M627.246 556.25H23.9985" stroke="#263238" stroke-width="0.161909" stroke-linecap="round" stroke-linejoin="round"/>
<path d="M508.634 464.535H373.041V577.417H508.634V464.535Z" fill="#263238" stroke="#0C7EA5" stroke-width="0.161909" stroke-miterlimit="10"/>
<path d="M470.139 464.535H373.041V577.417H470.139V464.535Z" fill="#D1D1D1" stroke="#0C7EA5" stroke-width="0.161909" stroke-miterlimit="10"/>
<path d="M458.749 488.597L450.527 470.417L442.277 488.556L446.546 488.569V507.149L454.466 507.163L454.48 488.583L458.749 488.597Z" fill="#263238"/>
<path d="M447.235 510.965V520.248C447.235 521.102 447.497 521.405 447.924 521.418C448.351 521.432 448.613 521.102 448.613 520.248V511.047H449.88V520.193C449.88 522.121 449.205 523.223 447.896 523.209C446.588 523.195 445.913 522.107 445.913 520.193V511.034L447.235 510.965Z" fill="#263238"/>
<path d="M454.727 513.966V515.522C454.727 517.45 454.08 518.497 452.744 518.497H452.111V523.014H450.733V511.046H452.689C454.08 511.046 454.727 512.038 454.727 513.966ZM452.111 512.699V516.83H452.744C453.171 516.83 453.392 516.555 453.392 515.701V513.8C453.392 512.947 453.157 512.657 452.73 512.657L452.111 512.699Z" fill="#263238"/>
<path d="M429.854 464.535H413.327V485.8H429.854V464.535Z" fill="#FF2617" stroke="#0C7EA5" stroke-width="0.161909" stroke-miterlimit="10"/>
<path d="M620.194 464.535H484.601V577.417H620.194V464.535Z" fill="#263238" stroke="#0C7EA5" stroke-width="0.161909" stroke-miterlimit="10"/>
<path d="M581.699 464.535H484.601V577.417H581.699V464.535Z" fill="#D1D1D1" stroke="#0C7EA5" stroke-width="0.161909" stroke-miterlimit="10"/>
<path d="M541.414 464.535H524.886V485.8H541.414V464.535Z" fill="#FF2617" stroke="#0C7EA5" stroke-width="0.161909" stroke-miterlimit="10"/>
<path d="M613.321 352.231H477.728V465.113H613.321V352.231Z" fill="#263238" stroke="#0C7EA5" stroke-width="0.161909" stroke-miterlimit="10"/>
<path d="M574.826 352.231H477.728V465.113H574.826V352.231Z" fill="#D1D1D1" stroke="#0C7EA5" stroke-width="0.161909" stroke-miterlimit="10"/>
<path d="M567.554 377.726L559.332 359.546L551.082 377.685L555.352 377.698V396.278L563.271 396.292L563.285 377.712L567.554 377.726Z" fill="#263238"/>
<path d="M556.04 400.093V409.376C556.04 410.23 556.302 410.533 556.729 410.546C557.156 410.56 557.417 410.23 557.417 409.376V400.107H558.684V409.252C558.684 411.18 558.009 412.282 556.701 412.268C555.393 412.254 554.718 411.166 554.718 409.252V400.093H556.04Z" fill="#263238"/>
<path d="M563.532 403.095V404.651C563.532 406.58 562.885 407.626 561.549 407.626H560.915V412.144H559.538V400.12H561.494C562.885 400.12 563.532 401.167 563.532 403.095ZM560.915 401.828V405.96H561.549C561.976 405.96 562.196 405.684 562.196 404.83V403.026C562.196 402.172 561.962 401.883 561.535 401.883L560.915 401.828Z" fill="#263238"/>
<path d="M534.541 352.231H518V373.497H534.541V352.231Z" fill="#FF2617" stroke="#0C7EA5" stroke-width="0.161909" stroke-miterlimit="10"/>
<path d="M613.321 237.919H477.728V350.801H613.321V237.919Z" fill="#263238" stroke="#0C7EA5" stroke-width="0.161909" stroke-miterlimit="10"/>
<path d="M574.826 237.919H477.728V350.801H574.826V237.919Z" fill="#D1D1D1" stroke="#0C7EA5" stroke-width="0.161909" stroke-miterlimit="10"/>
<path d="M526.079 297.21L491.906 318.465L503.631 337.318L537.805 316.063L526.079 297.21Z" fill="#FF2617" stroke="#0C7EA5" stroke-width="0.161909" stroke-miterlimit="10"/>
<path d="M417.845 517.181L383.671 538.436L395.397 557.288L429.57 536.034L417.845 517.181Z" fill="#FF2617" stroke="#0C7EA5" stroke-width="0.161909" stroke-miterlimit="10"/>
<path d="M534.541 237.919H518V259.184H534.541V237.919Z" fill="#FF2617" stroke="#0C7EA5" stroke-width="0.161909" stroke-miterlimit="10"/>
<path d="M459.217 141.935L630 141.935V52.4116L459.217 52.4116V141.935Z" stroke="#808080" stroke-width="0.161909" stroke-miterlimit="10"/>
<path d="M621.199 53.1962L629.049 68.8971H465.043L459.217 52.4111" stroke="#808080" stroke-width="0.161909" stroke-miterlimit="10"/>
<path d="M621.199 69.324L629.049 85.0387H465.043L459.217 68.5527" stroke="#808080" stroke-width="0.161909" stroke-miterlimit="10"/>
<path d="M621.199 85.4666L629.049 101.168H465.043L459.217 84.6953" stroke="#808080" stroke-width="0.161909" stroke-miterlimit="10"/>
<path d="M621.199 101.61L629.049 117.311H465.043L459.217 100.825" stroke="#808080" stroke-width="0.161909" stroke-miterlimit="10"/>
<path d="M621.199 117.752L629.049 133.453H465.043L459.217 116.967" stroke="#808080" stroke-width="0.161909" stroke-miterlimit="10"/>
<path d="M189.96 577.047C242.999 577.047 288.119 585.049 304.894 596.219L349.752 614.013L235.865 642.247L208.732 634.314C202.617 634.534 196.36 634.649 189.96 634.658C122.611 634.658 68.0298 621.753 68.0298 605.846C68.0298 589.938 122.611 577.047 189.96 577.047Z" fill="#263238"/>
<path d="M78.3865 386.237C78.3865 386.237 74.2547 396.03 70.9217 405.822C67.5887 415.615 66.4731 422.983 67.8641 430.434C69.2552 437.885 76.1278 445.901 83.0142 447.306C89.9005 448.711 129.635 435.654 139.882 427.721C150.129 419.788 143.146 399.294 134.758 394.666C126.371 390.039 78.3865 386.237 78.3865 386.237Z" fill="#308480" stroke="#263238" stroke-width="0.161909" stroke-linecap="round" stroke-linejoin="round"/>
<path d="M87.9312 394.776C87.9312 394.776 98.3709 401.401 103.976 403.178C109.582 404.954 119.76 407.007 119.76 407.007C119.76 407.007 102.186 405.726 98.6188 407.255C95.0517 408.783 91.9941 410.312 91.9941 410.312C91.9941 410.312 117.474 409.555 123.079 413.37C128.685 417.185 135.557 423.011 135.557 423.011L127.666 402.627L128.933 400.341C128.933 400.341 104.486 400.63 87.9312 394.776Z" fill="#263238" stroke="#263238" stroke-width="0.161909" stroke-linecap="round" stroke-linejoin="round"/>
<path d="M201.24 302.198C201.24 302.198 220.756 312.913 223.441 324C224.872 330.292 227.191 336.348 230.328 341.987L136.177 400.163C136.177 400.163 115.904 404.75 100.203 399.778C84.5018 394.806 76.486 392.506 76.789 386.005C77.092 379.504 83.3036 374.904 85.218 371.461C87.1324 368.018 103.205 330.514 112.392 315.97C121.578 301.426 124.25 289.568 143.009 281.91C153.902 277.347 165.633 275.127 177.44 275.396L201.24 302.198Z" fill="#FF725E" stroke="#263238" stroke-width="0.161909" stroke-linecap="round" stroke-linejoin="round"/>
<path d="M94.5558 388.249C92.2695 388.249 89.9833 388.249 87.6694 388.042" stroke="#263238" stroke-width="0.161909" stroke-linecap="round" stroke-linejoin="round"/>
<path d="M124.636 385.715C115.695 387.142 106.667 387.966 97.6143 388.18" stroke="#263238" stroke-width="0.161909" stroke-linecap="round" stroke-linejoin="round"/>
<path d="M131.577 384.545C131.577 384.545 130.407 384.793 128.341 385.151" stroke="#263238" stroke-width="0.161909" stroke-linecap="round" stroke-linejoin="round"/>
<path d="M123.644 371.198C115.078 375.509 100.41 381.969 85.4937 384.227" stroke="#263238" stroke-width="0.161909" stroke-linecap="round" stroke-linejoin="round"/>
<path d="M131.261 367.068C131.261 367.068 129.884 367.895 127.487 369.189" stroke="#263238" stroke-width="0.161909" stroke-linecap="round" stroke-linejoin="round"/>
<path d="M81.0444 381.363C84.8558 379.561 88.808 378.073 92.8615 376.914" stroke="#263238" stroke-width="0.161909" stroke-linecap="round" stroke-linejoin="round"/>
<path d="M197.025 314.828L186.696 344.288L182.109 345.059L187.467 330.515" stroke="#263238" stroke-width="0.161909" stroke-linecap="round" stroke-linejoin="round"/>
<path d="M210.413 314.319L205.992 326.962L203.058 313.727L210.413 314.319Z" fill="#FF725E" stroke="#263238" stroke-width="0.161909" stroke-linecap="round" stroke-linejoin="round"/>
<path d="M202.631 296.84L210.413 314.317L194.822 316.673L202.631 296.84Z" fill="#FF725E" stroke="#263238" stroke-width="0.161909" stroke-linecap="round" stroke-linejoin="round"/>
<path d="M253.369 258.703C253.369 258.703 248.37 266.057 247.777 268.412C247.185 270.768 243.067 279.004 239.83 283.714C236.594 288.424 224.832 301.619 217.794 302.844C210.756 304.07 204.558 299.016 204.558 299.016L194.78 316.672L183.596 273.977L190.951 268.674C189.074 266 188.047 262.823 188.003 259.557C188.003 254.268 191.24 247.795 191.24 247.795C191.24 247.795 195.372 240.426 202.134 236.9C208.897 233.375 234.79 238.374 243.618 241.321C252.446 244.269 254.54 252.229 253.369 258.703Z" fill="white" stroke="#263238" stroke-width="0.161909" stroke-linecap="round" stroke-linejoin="round"/>
<path d="M204.532 299.016L197.067 292.268L200.4 304.374L204.532 299.016Z" fill="#263238" stroke="#263238" stroke-width="0.161909" stroke-linecap="round" stroke-linejoin="round"/>
<path d="M235.713 260.77L232.476 265.177C232.476 265.177 233.358 278.412 230.713 279.597C228.069 280.781 222.45 279.308 221.003 276.953" stroke="#263238" stroke-width="0.161909" stroke-linecap="round" stroke-linejoin="round"/>
<path d="M220.123 281.357C217.865 278.557 215.799 275.608 213.939 272.529C211.584 268.397 208.058 269.885 205.992 272.529C203.926 275.173 205.703 279.002 208.65 280.793C211.598 282.583 218.649 284.883 220.123 281.357Z" stroke="#263238" stroke-width="0.161909" stroke-linecap="round" stroke-linejoin="round"/>
<path d="M207.176 271.4C207.176 271.4 211.308 279.926 218.359 282.281" stroke="#263238" stroke-width="0.161909" stroke-linecap="round" stroke-linejoin="round"/>
<path d="M223.524 260.921C222.688 259.54 221.518 258.392 220.122 257.581C218.727 256.77 217.15 256.322 215.536 256.279" stroke="#263238" stroke-width="0.323818" stroke-linecap="round" stroke-linejoin="round"/>
<path d="M236.719 266.565C236.719 266.565 241.828 266.069 243.109 269.801" stroke="#263238" stroke-width="0.323818" stroke-linecap="round" stroke-linejoin="round"/>
<path d="M246.565 266.128C246.565 266.128 246.827 261.996 238.302 261.734" stroke="#263238" stroke-width="0.161909" stroke-linecap="round" stroke-linejoin="round"/>
<path d="M226.581 258.069C226.581 258.069 225.906 252.036 216.871 250.811" stroke="#263238" stroke-width="0.161909" stroke-linecap="round" stroke-linejoin="round"/>
<path d="M191.434 247.561C193.256 244.585 195.533 241.912 198.183 239.642C202.883 240.028 207.555 240.695 212.176 241.639L213.65 243.994C213.65 243.994 204.821 256.059 201.585 256.059C198.348 256.059 199.229 249.283 196.282 247.52C195.532 247.129 194.698 246.929 193.853 246.936C193.008 246.943 192.177 247.158 191.434 247.561Z" fill="#263238" stroke="#263238" stroke-width="0.161909" stroke-linecap="round" stroke-linejoin="round"/>
<path d="M188.045 259.584C188.074 258.149 188.258 256.722 188.596 255.328C188.059 260.603 190.648 264.707 191.585 265.176C192.483 265.724 193.28 266.423 193.94 267.242L190.91 268.619C189.084 265.956 188.087 262.812 188.045 259.584Z" fill="#263238" stroke="#263238" stroke-width="0.161909" stroke-linecap="round" stroke-linejoin="round"/>
<path d="M191.103 246.376C191.103 246.376 205.523 243.14 227.229 248.787C248.934 254.433 253.617 260.039 253.617 260.039C253.617 260.039 256.647 248.029 257.983 240.495C259.319 232.962 245.271 221.213 237.172 217.977C229.074 214.74 212.175 217.426 206.5 219.106C200.826 220.786 196.474 228.389 195.482 230.606C194.491 232.824 191.103 246.376 191.103 246.376Z" fill="#FF725E" stroke="#263238" stroke-width="0.161909" stroke-linecap="round" stroke-linejoin="round"/>
<path d="M253.618 260.04C253.618 260.04 265.89 275.066 263.025 276.058C260.16 277.05 249.115 265.219 236.995 262.767C224.875 260.316 213.512 255.316 209.449 251.308C207.371 249.414 205.522 247.283 203.94 244.959C203.94 244.959 232.601 243.761 253.618 260.04Z" fill="white" stroke="#263238" stroke-width="0.161909" stroke-linecap="round" stroke-linejoin="round"/>
<path d="M187.164 269.004L197.755 316.079L184.23 321.382L175.691 273.411L187.164 269.004Z" fill="#FF725E" stroke="#263238" stroke-width="0.161909" stroke-linecap="round" stroke-linejoin="round"/>
<path d="M228.483 524.682L213.568 549.845C213.568 549.845 216.832 552.599 216.832 554.045V558.701C216.832 558.701 235.466 565.229 239.667 567.102C243.868 568.975 244.79 574.553 244.322 575.958C243.854 577.363 234.544 579.222 225.688 579.222C216.832 579.222 200.043 575.021 200.043 575.021C200.043 575.021 188.859 575.021 185.127 572.694C181.394 570.366 182.799 564.761 183.75 560.574C184.7 556.387 186.077 552.186 186.077 552.186C186.077 552.186 185.609 545.189 186.545 543.33C187.482 541.471 188.873 539.598 188.873 537.725C188.873 535.851 195.401 508.802 195.401 508.802L228.483 524.682Z" fill="#263238" stroke="#263238" stroke-width="0.161909" stroke-linecap="round" stroke-linejoin="round"/>
<path d="M214.489 442.183L252.709 546.594L168.323 498.128L129.374 402.848L214.489 442.183Z" fill="#263238" stroke="#263238" stroke-width="0.161909" stroke-linecap="round" stroke-linejoin="round"/>
<path d="M337.081 353.142L214.489 442.183L129.374 402.848L235.465 325.651L337.081 353.142Z" fill="#DEDEDE" stroke="#263238" stroke-width="0.161909" stroke-linecap="round" stroke-linejoin="round"/>
<path d="M337.081 353.143L372.504 457.554L252.709 546.595L214.489 442.184L337.081 353.143Z" fill="#D1D1D1" stroke="#263238" stroke-width="0.161909" stroke-linecap="round" stroke-linejoin="round"/>
<path d="M289.013 340.57L174.258 423.454L182.852 451.193L167.248 441.827L157.263 415.769L268.354 334.496L289.013 340.57Z" fill="#FF2617" stroke="#263238" stroke-width="0.161909" stroke-linecap="round" stroke-linejoin="round"/>
<path d="M162.262 417.845L159.824 416.702" stroke="#263238" stroke-width="0.161909" stroke-linecap="round" stroke-linejoin="round"/>
<path d="M172.166 422.53L164.054 418.701" stroke="#263238" stroke-width="0.161909" stroke-linecap="round" stroke-linejoin="round"/>
<path d="M254.665 446.757L240.837 436.992L238.068 456.646L242.379 454.07L248.04 469.124L256.042 464.372L250.367 449.319L254.665 446.757Z" fill="#263238"/>
<path d="M249.872 471.809L252.695 479.329C252.957 480.018 253.315 480.114 253.742 479.853C254.169 479.591 254.348 479.192 254.086 478.476L251.249 470.983L252.516 470.226L255.271 477.635C255.594 478.267 255.662 478.999 255.459 479.679C255.256 480.358 254.799 480.934 254.183 481.285C252.805 482.07 251.841 481.588 251.263 480.032L248.508 472.608L249.872 471.809Z" fill="#263238"/>
<path d="M258.369 469.729L258.851 470.997C259.015 471.305 259.116 471.642 259.149 471.99C259.182 472.338 259.147 472.688 259.045 473.022C258.942 473.356 258.775 473.666 258.553 473.936C258.331 474.205 258.057 474.428 257.749 474.591L257.116 474.977L258.493 478.627L257.116 479.425L253.479 469.729L255.463 468.559C256.757 467.705 257.79 468.159 258.369 469.729ZM255.353 470.28L256.592 473.586L257.226 473.2C257.653 472.952 257.804 472.58 257.542 471.892L256.992 470.432C256.73 469.729 256.413 469.647 255.986 469.908L255.353 470.28Z" fill="#263238"/>
<path d="M336.005 382.095L322.164 372.33L319.409 391.984L323.706 389.422L329.381 404.476L337.369 399.71L331.708 384.657L336.005 382.095Z" fill="#263238"/>
<path d="M331.24 407.16L334.078 414.666C334.339 415.368 334.697 415.451 335.124 415.203C335.551 414.955 335.73 414.528 335.469 413.826L332.631 406.375L333.899 405.617L336.653 413.027C336.974 413.655 337.041 414.383 336.841 415.059C336.641 415.736 336.189 416.31 335.579 416.663C334.202 417.448 333.237 416.966 332.645 415.41L329.891 408L331.24 407.16Z" fill="#263238"/>
<path d="M339.711 404.997L340.193 406.264C340.503 406.892 340.561 407.616 340.357 408.286C340.152 408.957 339.699 409.524 339.091 409.872L338.457 410.244L339.835 413.908L338.457 414.706L334.821 404.997L336.805 403.812C338.141 403.041 339.118 403.495 339.711 404.997ZM336.694 405.561L337.934 408.853L338.567 408.481C338.994 408.219 339.146 407.861 338.884 407.104L338.333 405.644C338.072 404.955 337.755 404.873 337.328 405.121L336.694 405.561Z" fill="#263238"/>
<path d="M371.196 409.265L372.821 413.934" stroke="#263238" stroke-width="0.161909" stroke-linecap="round" stroke-linejoin="round"/>
<path d="M352.988 357.013L369.915 405.631" stroke="#263238" stroke-width="0.161909" stroke-linecap="round" stroke-linejoin="round"/>
<path d="M376.249 403.841L381.772 419.693" stroke="#263238" stroke-width="0.161909" stroke-linecap="round" stroke-linejoin="round"/>
<path d="M361.94 362.77L374.873 399.915" stroke="#263238" stroke-width="0.161909" stroke-linecap="round" stroke-linejoin="round"/>
<path d="M288.807 329.521L248.729 318.641" stroke="#263238" stroke-width="0.161909" stroke-linecap="round" stroke-linejoin="round"/>
<path d="M300.541 332.706L293.021 330.668" stroke="#263238" stroke-width="0.161909" stroke-linecap="round" stroke-linejoin="round"/>
<path d="M274.952 321.836L245.533 314.165" stroke="#263238" stroke-width="0.161909" stroke-linecap="round" stroke-linejoin="round"/>
<path d="M263.093 548.068L258.327 551.456" stroke="#263238" stroke-width="0.161909" stroke-linecap="round" stroke-linejoin="round"/>
<path d="M282.637 534.187L265.848 546.114" stroke="#263238" stroke-width="0.161909" stroke-linecap="round" stroke-linejoin="round"/>
<path d="M288.379 538.026L276.879 546.331" stroke="#263238" stroke-width="0.161909" stroke-linecap="round" stroke-linejoin="round"/>
<path d="M261.675 397.451C263.181 397.135 264.703 396.896 266.234 396.735C268.596 397.118 271.008 397.071 273.354 396.597C276.481 395.743 277.913 396.597 277.045 398.594C276.498 399.633 275.732 400.54 274.799 401.253C273.867 401.966 272.792 402.469 271.646 402.726C269.938 402.864 266.137 402.864 266.137 402.864L261.014 398.305L261.675 397.451Z" fill="white" stroke="#263238" stroke-width="0.161909" stroke-linecap="round" stroke-linejoin="round"/>
<path d="M166.794 294.925C166.794 294.925 175.223 302.954 175.981 311.369C176.738 319.785 171.367 368.017 171.367 368.017C171.367 368.017 188.583 376.432 201.598 384.09C214.614 391.747 236.43 400.934 236.43 400.934C236.43 400.934 261.675 396.334 263.59 397.105C265.504 397.876 275.847 408.963 276.219 410.492C276.591 412.021 274.305 420.822 274.305 422.364C274.305 423.907 272.321 423.934 272.321 423.934H270.862L269.815 426.028C269.551 426.553 269.162 427.006 268.681 427.345C268.201 427.683 267.644 427.898 267.06 427.97L265.531 428.135C265.531 428.135 262.86 431.206 260.559 429.292C258.259 427.378 253.287 418.949 253.287 418.949C253.287 418.949 241.429 417.805 238.358 416.662C235.835 415.582 233.404 414.302 231.086 412.833C231.086 412.833 160.349 394.805 153.462 392.89C146.576 390.976 143.89 389.062 141.218 383.704C138.547 378.346 132.459 325.17 132.459 320.583" fill="white"/>
<path d="M166.794 294.925C166.794 294.925 175.223 302.954 175.981 311.369C176.738 319.785 171.367 368.017 171.367 368.017C171.367 368.017 188.583 376.432 201.598 384.09C214.614 391.747 236.43 400.934 236.43 400.934C236.43 400.934 261.675 396.334 263.59 397.105C265.504 397.876 275.847 408.963 276.219 410.492C276.591 412.021 274.305 420.822 274.305 422.364C274.305 423.907 272.321 423.934 272.321 423.934H270.862L269.815 426.028C269.551 426.553 269.162 427.006 268.681 427.345C268.201 427.683 267.644 427.898 267.06 427.97L265.531 428.135C265.531 428.135 262.86 431.206 260.56 429.292C258.259 427.378 253.287 418.949 253.287 418.949C253.287 418.949 241.429 417.805 238.358 416.662C235.835 415.582 233.404 414.302 231.086 412.833C231.086 412.833 160.349 394.805 153.462 392.89C146.576 390.976 143.89 389.062 141.218 383.704C138.547 378.346 132.459 325.17 132.459 320.583" stroke="#263238" stroke-width="0.161909" stroke-linecap="round" stroke-linejoin="round"/>
<path d="M252.901 410.507C252.901 410.507 260.944 417.393 260.944 420.079C260.944 422.765 264.663 428.646 264.663 428.646" stroke="#263238" stroke-width="0.161909" stroke-linecap="round" stroke-linejoin="round"/>
<path d="M257.694 405.562C257.694 405.562 263.107 411.539 264.236 413.398C265.366 415.258 266.991 427.928 266.991 427.928" stroke="#263238" stroke-width="0.161909" stroke-linecap="round" stroke-linejoin="round"/>
<path d="M262.101 402.008C262.101 402.008 268.987 408.412 269.083 410.836C269.18 413.26 270.888 423.893 270.888 423.893" stroke="#263238" stroke-width="0.161909" stroke-linecap="round" stroke-linejoin="round"/>
<path d="M166.395 294.264C166.395 294.264 175.223 302.954 176.036 311.369C176.573 317.292 174.094 342.854 172.565 357.536C164.894 354.712 150.322 351.682 137.266 362.287C135.021 346.173 132.831 326.12 132.459 320.583" fill="#FF725E"/>
<path d="M166.395 294.264C166.395 294.264 175.223 302.954 176.036 311.369C176.573 317.292 174.094 342.854 172.565 357.536C164.894 354.712 150.322 351.682 137.266 362.287C135.021 346.173 132.831 326.12 132.459 320.583" stroke="#263238" stroke-width="0.161909" stroke-linecap="round" stroke-linejoin="round"/>
<path d="M171.367 368.018C171.367 368.018 162.566 365.333 159.123 366.104" stroke="#263238" stroke-width="0.161909" stroke-linecap="round" stroke-linejoin="round"/>
<path d="M145.075 610.806C145.075 610.806 155.804 622.926 163.723 629.454C171.642 635.982 168.378 642.042 162.786 643.433C157.195 644.824 146.011 642.511 135.75 639.302C125.49 636.093 117.116 625.322 117.116 625.322C117.116 625.322 105.45 617.857 104.528 615.062C103.605 612.266 114.306 599.195 114.306 599.195C114.306 599.195 142.279 610.806 145.075 610.806Z" fill="#FF725E" stroke="#263238" stroke-width="0.161909" stroke-linecap="round" stroke-linejoin="round"/>
<path d="M104.527 615.003C104.197 614.039 105.271 611.835 106.827 609.37C113.011 614.7 124.085 629.905 132.486 634.161C139.606 637.714 155.39 641.557 166.477 641.557C165.424 642.49 164.156 643.148 162.786 643.471C157.194 644.849 146.011 642.549 135.75 639.34C125.489 636.131 117.116 625.36 117.116 625.36C117.116 625.36 105.45 617.799 104.527 615.003Z" fill="white" stroke="#263238" stroke-width="0.161909" stroke-linecap="round" stroke-linejoin="round"/>
<path d="M87.2422 412.35C87.2422 412.35 104.954 404.885 118.011 410.008C131.067 415.132 154.371 436.176 164.149 451.037C173.928 465.898 182.384 472.481 181.861 486.461C181.338 500.44 159.494 562.9 158.558 568.491C157.621 574.083 151.671 597.29 151.671 597.29C151.996 600.233 151.996 603.203 151.671 606.146C151.244 609.7 150.101 615.787 150.101 615.787C150.101 615.787 134.428 614.961 125.572 610.76C120.713 608.573 116.166 605.752 112.047 602.372C112.651 598.88 113.573 595.45 114.801 592.126C116.675 587.457 122.693 579.179 123.63 576.369C124.566 573.56 126.894 545.147 126.894 533.495C126.894 521.843 132.017 492.934 132.017 491.075C132.423 488.389 133.045 485.741 133.877 483.155C133.877 483.155 94.2663 463.57 83.5373 454.233C72.8083 444.895 68.2495 436.163 67.189 427.816C66.4315 421.77 68.9381 413.121 68.9381 413.121" fill="#308480"/>
<path d="M87.2422 412.35C87.2422 412.35 104.954 404.885 118.011 410.008C131.067 415.132 154.371 436.176 164.149 451.037C173.928 465.898 182.384 472.481 181.861 486.461C181.338 500.44 159.494 562.9 158.558 568.491C157.621 574.083 151.671 597.29 151.671 597.29C151.996 600.233 151.996 603.203 151.671 606.146C151.244 609.7 150.101 615.787 150.101 615.787C150.101 615.787 134.428 614.961 125.572 610.76C120.713 608.573 116.166 605.752 112.047 602.372C112.651 598.88 113.573 595.45 114.801 592.126C116.675 587.457 122.693 579.179 123.63 576.369C124.566 573.56 126.894 545.147 126.894 533.495C126.894 521.843 132.017 492.934 132.017 491.075C132.423 488.389 133.045 485.741 133.877 483.155C133.877 483.155 94.2663 463.57 83.5373 454.233C72.8083 444.895 68.2495 436.163 67.189 427.816C66.4315 421.77 68.9381 413.121 68.9381 413.121" stroke="#263238" stroke-width="0.161909" stroke-linecap="round" stroke-linejoin="round"/>
<path d="M83.0419 396.031C83.0419 396.031 76.9818 402.56 77.9184 405.355C78.8549 408.151 83.0419 413.261 81.1825 413.261C79.3232 413.261 76.5273 417.462 76.5273 417.462L80.6592 418.384L78.7999 429.113L134.786 473.861C137.398 475.988 140.206 477.86 143.174 479.453L139.91 485.045L145.97 485.981C145.97 485.981 137.114 494.837 136.191 502.288C135.268 509.739 127.363 587.955 126.426 590.282C125.49 592.61 124.098 594.015 123.672 596.342C123.435 598.825 123.435 601.325 123.672 603.807C123.672 605.185 123.203 608.462 123.203 608.462" stroke="#263238" stroke-width="0.161909" stroke-linecap="round" stroke-linejoin="round"/>
</g>
<defs>
<clipPath id="clip0_1_3">
<rect y="-380" width="710" height="1022" rx="20" fill="white"/>
</clipPath>
</defs>
</svg>
