<svg width="46" height="41" viewBox="0 0 46 41" fill="none" xmlns="http://www.w3.org/2000/svg">
<rect width="46" height="41" fill="#C8C8C8"/>
<g clip-path="url(#clip0_1_2)">
<rect x="-284" y="-323" width="614" height="664" rx="20" fill="#EDF3FC"/>
<rect x="-237" y="-52" width="520" height="224" stroke="#BABABA" stroke-width="2" stroke-dasharray="5 5"/>
<path fill-rule="evenodd" clip-rule="evenodd" d="M11.9577 40.5834C9.02925 40.5834 6.22076 39.4201 4.15005 37.3493C2.07933 35.2786 0.916016 32.4701 0.916016 29.5417V22.9167C0.916016 22.331 1.14868 21.7693 1.56282 21.3552C1.97696 20.941 2.53866 20.7084 3.12435 20.7084C3.71004 20.7084 4.27173 20.941 4.68588 21.3552C5.10002 21.7693 5.33268 22.331 5.33268 22.9167V29.5417C5.33268 31.2988 6.03067 32.9839 7.2731 34.2263C8.51553 35.4687 10.2006 36.1667 11.9577 36.1667H34.041C35.7981 36.1667 37.4832 35.4687 38.7256 34.2263C39.968 32.9839 40.666 31.2988 40.666 29.5417V22.9167C40.666 22.331 40.8987 21.7693 41.3128 21.3552C41.727 20.941 42.2887 20.7084 42.8744 20.7084C43.46 20.7084 44.0217 20.941 44.4359 21.3552C44.85 21.7693 45.0827 22.331 45.0827 22.9167V29.5417C45.0827 32.4701 43.9194 35.2786 41.8487 37.3493C39.7779 39.4201 36.9695 40.5834 34.041 40.5834H11.9577Z" fill="black"/>
<path fill-rule="evenodd" clip-rule="evenodd" d="M12.5872 14.3042C12.3842 14.0968 12.2241 13.8514 12.116 13.582C12.0078 13.3127 11.9539 13.0247 11.9572 12.7345C11.9605 12.4442 12.0209 12.1575 12.1351 11.8907C12.2493 11.6239 12.4149 11.3822 12.6226 11.1794L22.5601 1.46272C22.9727 1.05942 23.5267 0.833618 24.1037 0.833618C24.6807 0.833618 25.2347 1.05942 25.6473 1.46272L35.5848 11.1794C35.7966 11.3811 35.9663 11.6228 36.0839 11.8905C36.2015 12.1583 36.2648 12.4468 36.27 12.7392C36.2752 13.0316 36.2223 13.3221 36.1144 13.5939C36.0064 13.8657 35.8456 14.1133 35.6411 14.3225C35.4367 14.5316 35.1927 14.698 34.9234 14.8121C34.6542 14.9262 34.3649 14.9856 34.0725 14.987C33.78 14.9884 33.4902 14.9317 33.2198 14.8201C32.9495 14.7086 32.704 14.5445 32.4976 14.3373L26.312 8.28868V27.3333C26.312 27.919 26.0794 28.4807 25.6652 28.8949C25.2511 29.309 24.6894 29.5417 24.1037 29.5417C23.518 29.5417 22.9563 29.309 22.5422 28.8949C22.128 28.4807 21.8954 27.919 21.8954 27.3333V8.28868L15.712 14.3373C15.5046 14.5403 15.2592 14.7005 14.9899 14.8086C14.7205 14.9167 14.4325 14.9707 14.1423 14.9674C13.8521 14.9641 13.5654 14.9036 13.2985 14.7895C13.0317 14.6753 12.79 14.5096 12.5872 14.302V14.3042Z" fill="black"/>
</g>
<rect x="-283.5" y="-322.5" width="613" height="663" rx="19.5" stroke="#005CE6"/>
<defs>
<clipPath id="clip0_1_2">
<rect x="-284" y="-323" width="614" height="664" rx="20" fill="white"/>
</clipPath>
</defs>
</svg>
