<svg width="54" height="53" viewBox="0 0 54 53" fill="none" xmlns="http://www.w3.org/2000/svg">
<rect width="54" height="53" fill="#C8C8C8"/>
<g clip-path="url(#clip0_1_2)">
<rect x="-280" y="-315" width="614" height="664" rx="20" fill="#EDF3FC"/>
<rect x="-233" y="-44" width="520" height="224" stroke="#BABABA" stroke-width="2" stroke-dasharray="5 5"/>
<path fill-rule="evenodd" clip-rule="evenodd" d="M15.9577 48.5834C13.0293 48.5834 10.2208 47.4201 8.15005 45.3493C6.07933 43.2786 4.91602 40.4701 4.91602 37.5417V30.9167C4.91602 30.331 5.14868 29.7693 5.56282 29.3552C5.97696 28.941 6.53866 28.7084 7.12435 28.7084C7.71004 28.7084 8.27173 28.941 8.68588 29.3552C9.10002 29.7693 9.33268 30.331 9.33268 30.9167V37.5417C9.33268 39.2988 10.0307 40.9839 11.2731 42.2263C12.5155 43.4687 14.2006 44.1667 15.9577 44.1667H38.041C39.7981 44.1667 41.4832 43.4687 42.7256 42.2263C43.968 40.9839 44.666 39.2988 44.666 37.5417V30.9167C44.666 30.331 44.8987 29.7693 45.3128 29.3552C45.727 28.941 46.2887 28.7084 46.8744 28.7084C47.46 28.7084 48.0217 28.941 48.4359 29.3552C48.85 29.7693 49.0827 30.331 49.0827 30.9167V37.5417C49.0827 40.4701 47.9194 43.2786 45.8487 45.3493C43.7779 47.4201 40.9695 48.5834 38.041 48.5834H15.9577Z" fill="black"/>
<path fill-rule="evenodd" clip-rule="evenodd" d="M16.5872 22.3042C16.3842 22.0968 16.2241 21.8514 16.116 21.582C16.0078 21.3127 15.9539 21.0247 15.9572 20.7345C15.9605 20.4442 16.0209 20.1575 16.1351 19.8907C16.2493 19.6239 16.4149 19.3822 16.6226 19.1794L26.5601 9.46272C26.9727 9.05942 27.5267 8.83362 28.1037 8.83362C28.6807 8.83362 29.2347 9.05942 29.6473 9.46272L39.5848 19.1794C39.7966 19.3811 39.9663 19.6228 40.0839 19.8905C40.2015 20.1583 40.2648 20.4468 40.27 20.7392C40.2752 21.0316 40.2223 21.3221 40.1144 21.5939C40.0064 21.8657 39.8456 22.1133 39.6411 22.3225C39.4367 22.5316 39.1927 22.698 38.9234 22.8121C38.6542 22.9262 38.3649 22.9856 38.0725 22.987C37.78 22.9884 37.4902 22.9317 37.2198 22.8201C36.9495 22.7086 36.704 22.5445 36.4976 22.3373L30.312 16.2887V35.3333C30.312 35.919 30.0794 36.4807 29.6652 36.8949C29.2511 37.309 28.6894 37.5417 28.1037 37.5417C27.518 37.5417 26.9563 37.309 26.5422 36.8949C26.128 36.4807 25.8954 35.919 25.8954 35.3333V16.2887L19.712 22.3373C19.5046 22.5403 19.2592 22.7005 18.9899 22.8086C18.7205 22.9167 18.4325 22.9707 18.1423 22.9674C17.8521 22.9641 17.5654 22.9036 17.2985 22.7895C17.0317 22.6753 16.79 22.5096 16.5872 22.302V22.3042Z" fill="black"/>
</g>
<rect x="-279.5" y="-314.5" width="613" height="663" rx="19.5" stroke="#005CE6"/>
<defs>
<clipPath id="clip0_1_2">
<rect x="-280" y="-315" width="614" height="664" rx="20" fill="white"/>
</clipPath>
</defs>
</svg>
