<svg width="54" height="53" viewBox="0 0 54 53" fill="none" xmlns="http://www.w3.org/2000/svg">
<rect width="54" height="53" fill="#D2D2D2"/>
<g clip-path="url(#clip0_1_3)">
<rect x="-280" y="-315" width="614" height="664" rx="20" fill="#EDF3FC"/>
<rect x="-233" y="-44" width="520" height="224" stroke="#BABABA" stroke-width="2" stroke-dasharray="5 5"/>
<path fill-rule="evenodd" clip-rule="evenodd" d="M15.9582 48.584C13.0297 48.584 10.2212 47.4207 8.15053 45.35C6.07982 43.2792 4.9165 40.4707 4.9165 37.5423V30.9173C4.9165 30.3316 5.14917 29.7699 5.56331 29.3558C5.97745 28.9416 6.53915 28.709 7.12484 28.709C7.71052 28.709 8.27222 28.9416 8.68637 29.3558C9.10051 29.7699 9.33317 30.3316 9.33317 30.9173V37.5423C9.33317 39.2994 10.0312 40.9845 11.2736 42.2269C12.516 43.4693 14.2011 44.1673 15.9582 44.1673H38.0415C39.7986 44.1673 41.4837 43.4693 42.7261 42.2269C43.9685 40.9845 44.6665 39.2994 44.6665 37.5423V30.9173C44.6665 30.3316 44.8992 29.7699 45.3133 29.3558C45.7275 28.9416 46.2892 28.709 46.8748 28.709C47.4605 28.709 48.0222 28.9416 48.4364 29.3558C48.8505 29.7699 49.0832 30.3316 49.0832 30.9173V37.5423C49.0832 40.4707 47.9199 43.2792 45.8491 45.35C43.7784 47.4207 40.9699 48.584 38.0415 48.584H15.9582Z" fill="black"/>
<path fill-rule="evenodd" clip-rule="evenodd" d="M16.5877 22.3045C16.3847 22.0971 16.2246 21.8517 16.1164 21.5824C16.0083 21.3131 15.9544 21.025 15.9577 20.7348C15.9609 20.4446 16.0214 20.1579 16.1356 19.8911C16.2497 19.6242 16.4154 19.3825 16.6231 19.1798L26.5606 9.46309C26.9732 9.05979 27.5272 8.83398 28.1042 8.83398C28.6812 8.83398 29.2352 9.05979 29.6478 9.46309L39.5853 19.1798C39.7971 19.3814 39.9667 19.6232 40.0844 19.8909C40.202 20.1587 40.2653 20.4471 40.2705 20.7395C40.2757 21.0319 40.2228 21.3225 40.1149 21.5943C40.0069 21.8661 39.8461 22.1137 39.6416 22.3228C39.4372 22.532 39.1932 22.6984 38.9239 22.8125C38.6546 22.9266 38.3654 22.986 38.0729 22.9874C37.7805 22.9888 37.4907 22.932 37.2203 22.8205C36.95 22.709 36.7045 22.5449 36.4981 22.3377L30.3125 16.289V35.3337C30.3125 35.9194 30.0799 36.4811 29.6657 36.8952C29.2516 37.3094 28.6899 37.542 28.1042 37.542C27.5185 37.542 26.9568 37.3094 26.5427 36.8952C26.1285 36.4811 25.8959 35.9194 25.8959 35.3337V16.289L19.7125 22.3377C19.5051 22.5407 19.2597 22.7008 18.9904 22.809C18.721 22.9171 18.433 22.971 18.1428 22.9677C17.8526 22.9645 17.5659 22.904 17.299 22.7898C17.0322 22.6757 16.7905 22.51 16.5877 22.3023V22.3045Z" fill="black"/>
</g>
<rect x="-279.5" y="-314.5" width="613" height="663" rx="19.5" stroke="#005CE6"/>
<defs>
<clipPath id="clip0_1_3">
<rect x="-280" y="-315" width="614" height="664" rx="20" fill="white"/>
</clipPath>
</defs>
</svg>
