<svg width="56" height="56" viewBox="0 0 56 56" fill="none" xmlns="http://www.w3.org/2000/svg">
<rect width="56" height="56" fill="#D2D2D2"/>
<g filter="url(#filter0_f_1_3)">
<path d="M-368 -219C-368 -232.255 -357.255 -243 -344 -243H1072V781H-344C-357.255 781 -368 770.255 -368 757V-219Z" fill="#EDF3FC"/>
<g clip-path="url(#clip0_1_3)">
<rect x="-368" y="-242" width="710" height="1022" rx="20" fill="#428BF8"/>
</g>
</g>
<rect x="-60.5" y="-40.5" width="921" height="680" rx="19.5" fill="#EDF3FC"/>
<rect x="-60.5" y="-40.5" width="921" height="680" rx="19.5" stroke="#005CE6"/>
<path d="M34.0344 14.4844V14.4845V14.4846V14.4847V14.4848V14.4849V14.485C32.4252 14.4844 30.8159 14.4844 29.2066 14.4845C29.2066 16.0164 26.1269 19.3055 27.9035 19.3156C30.9608 19.333 28.5298 26.7235 27.3639 28.0495C26.1979 29.3755 22.0545 30.5787 21.9647 33.796C21.8749 37.0133 21.9647 40.2332 21.9647 43.4518C23.574 43.4517 25.1833 43.4517 26.7926 43.4517C26.7926 41.6153 30.9787 36.2381 29.2933 36.2186C27.9112 36.2026 26.7926 35.1781 26.7926 33.796L26.7902 33.7961C26.6406 31.2114 28.1737 28.6571 28.1737 28.6571C30.1945 25.2902 34.0144 25.3558 34.0344 21.7263C34.0398 20.7545 34.0344 21.7264 34.0344 21.7264C34.0344 19.3123 34.0344 16.8983 34.0344 14.4844Z" fill="#005CE6"/>
<path d="M21.9648 7.24316L27.9997 7.2432L34.0346 7.24324C34.0346 11.2665 34.0346 15.2897 34.0346 19.3129C30.0113 19.3129 25.9881 19.3129 21.9648 19.313C21.9648 15.2897 21.9648 11.2664 21.9648 7.24316Z" fill="#005CE6"/>
<path d="M21.9653 36.21L28.0002 36.21L34.0351 36.21C34.0351 40.2333 34.0351 44.2565 34.0351 48.2797C30.0118 48.2797 25.9886 48.2797 21.9653 48.2798C21.9653 44.2565 21.9653 40.2332 21.9653 36.21Z" fill="#005CE6"/>
<path d="M14.6812 21.684L14.6812 21.6841L14.6813 21.684L14.6814 21.6841L14.6815 21.684L14.6815 21.6841L14.6816 21.684L14.6817 21.6841L14.6818 21.684C14.6812 23.2933 14.6812 24.9026 14.6812 26.5119C16.2132 26.5119 19.5023 29.5915 19.5124 27.815C19.5297 24.7577 26.9202 27.1886 28.2463 28.3546C29.5723 29.5205 30.7755 33.6639 33.9928 33.7537C37.2101 33.8435 40.4299 33.7537 43.6486 33.7537C43.6485 32.1444 43.6485 30.5351 43.6485 28.9258C41.812 28.9258 36.4349 24.7397 36.4154 26.4252C36.3993 27.8072 35.3749 28.9258 33.9928 28.9258L33.9928 28.9282C31.4082 29.0778 28.8539 27.5448 28.8539 27.5448C25.487 25.524 25.5526 21.704 21.9231 21.684C20.9512 21.6787 21.9231 21.684 21.9231 21.684C19.5091 21.684 17.0951 21.684 14.6812 21.684Z" fill="#005CE6"/>
<path d="M7.43945 33.7533L7.43949 27.7185L7.43953 21.6836C11.4627 21.6836 15.486 21.6836 19.5092 21.6836L19.5092 33.7533C15.486 33.7533 11.4627 33.7533 7.43945 33.7533Z" fill="#005CE6"/>
<path d="M36.4067 33.7533L36.4068 27.7185L36.4068 21.6836C40.43 21.6836 44.4533 21.6836 48.4765 21.6836L48.4766 33.7533C44.4533 33.7533 40.43 33.7533 36.4067 33.7533Z" fill="#005CE6"/>
<path d="M12.3096 12.0693L12.3096 14.4833L12.3096 16.8972C13.9189 16.8972 15.5282 16.8972 17.1375 16.8972C17.1375 15.2879 17.1375 13.6786 17.1375 12.0693C15.5282 12.0693 13.9189 12.0693 12.3096 12.0693Z" fill="#005CE6"/>
<path d="M12.3096 38.624L12.3096 41.038L12.3096 43.4519C13.9189 43.4519 15.5282 43.4519 17.1375 43.4519C17.1375 41.8426 17.1375 40.2333 17.1375 38.624C15.5282 38.624 13.9189 38.624 12.3096 38.624Z" fill="#005CE6"/>
<path d="M38.8634 38.624L38.8633 41.038L38.8633 43.4519C40.4726 43.4519 42.0819 43.4519 43.6912 43.4519C43.6912 41.8426 43.6912 40.2333 43.6912 38.624C42.0819 38.624 40.4726 38.624 38.8634 38.624Z" fill="#005CE6"/>
<path d="M38.8634 12.0693L38.8633 14.4833L38.8633 16.8972C40.4726 16.8972 42.0819 16.8972 43.6912 16.8972C43.6912 15.2879 43.6912 13.6786 43.6912 12.0693C42.0819 12.0693 40.4726 12.0693 38.8634 12.0693Z" fill="#005CE6"/>
<path d="M7.48201 45.8652L7.48197 47.0722L7.48193 48.2792C8.28661 48.2792 9.09128 48.2792 9.89596 48.2792C9.89593 47.4745 9.89591 46.6699 9.89588 45.8652C9.09126 45.8652 8.28663 45.8652 7.48201 45.8652Z" fill="#005CE6"/>
<path d="M7.48201 7.24316L7.48197 8.45014L7.48193 9.65711C8.28661 9.65711 9.09128 9.65711 9.89596 9.65711C9.89593 8.85246 9.89591 8.04781 9.89588 7.24316C9.09126 7.24317 8.28663 7.24317 7.48201 7.24316Z" fill="#005CE6"/>
<path d="M46.1046 7.24316L46.1045 8.45014L46.1045 9.65711C46.9092 9.65711 47.7138 9.65711 48.5185 9.65711C48.5185 8.85246 48.5185 8.04781 48.5184 7.24316C47.7138 7.24317 46.9092 7.24317 46.1046 7.24316Z" fill="#005CE6"/>
<path d="M46.1046 45.8652L46.1045 47.0722L46.1045 48.2792C46.9092 48.2792 47.7138 48.2792 48.5185 48.2792C48.5185 47.4745 48.5185 46.6699 48.5184 45.8652C47.7138 45.8652 46.9092 45.8652 46.1046 45.8652Z" fill="#005CE6"/>
<path d="M50.9322 26.5537L50.9322 28.9677L50.9321 31.3816C52.5415 31.3816 54.1508 31.3816 55.7601 31.3816C55.7601 29.7723 55.76 28.163 55.76 26.5537C54.1507 26.5537 52.5415 26.5537 50.9322 26.5537Z" fill="#005CE6"/>
<path d="M0.23982 26.5537L0.239783 28.9677L0.239746 31.3816C1.84907 31.3816 3.45839 31.3816 5.06771 31.3816C5.06768 29.7723 5.06766 28.163 5.06763 26.5537C3.45836 26.5537 1.84909 26.5537 0.23982 26.5537Z" fill="#005CE6"/>
<path d="M24.38 50.6934L24.3799 53.1073L24.3799 55.5212C25.9892 55.5212 27.5985 55.5212 29.2078 55.5212C29.2078 53.9119 29.2078 52.3027 29.2078 50.6934C27.5985 50.6934 25.9892 50.6934 24.38 50.6934Z" fill="#005CE6"/>
<path d="M26.7926 0L26.7925 2.41394L26.7925 4.82789C28.4018 4.82789 30.0111 4.8279 31.6204 4.8279C31.6204 3.2186 31.6204 1.6093 31.6204 0C30.0111 6.03486e-06 28.4018 6.03486e-06 26.7926 0Z" fill="#005CE6"/>
<defs>
<filter id="filter0_f_1_3" x="-377.3" y="-252.3" width="1458.6" height="1042.6" filterUnits="userSpaceOnUse" color-interpolation-filters="sRGB">
<feFlood flood-opacity="0" result="BackgroundImageFix"/>
<feBlend mode="normal" in="SourceGraphic" in2="BackgroundImageFix" result="shape"/>
<feGaussianBlur stdDeviation="4.65" result="effect1_foregroundBlur_1_3"/>
</filter>
<clipPath id="clip0_1_3">
<rect x="-368" y="-242" width="710" height="1022" rx="20" fill="white"/>
</clipPath>
</defs>
</svg>
