<svg width="82" height="84" viewBox="0 0 82 84" fill="none" xmlns="http://www.w3.org/2000/svg">
<rect width="82" height="84" fill="#D2D2D2"/>
<path d="M-80 -8C-80 -21.2548 -69.2548 -32 -56 -32H1336C1349.25 -32 1360 -21.2548 1360 -8V968C1360 981.255 1349.25 992 1336 992H-56C-69.2549 992 -80 981.255 -80 968V-8Z" fill="#428BF8"/>
<path d="M47.0344 14.4844V14.4845V14.4846V14.4847V14.4848V14.4849V14.485C45.4252 14.4844 43.8159 14.4844 42.2066 14.4845C42.2066 16.0164 39.1269 19.3055 40.9035 19.3156C43.9608 19.333 41.5298 26.7235 40.3639 28.0495C39.1979 29.3755 35.0545 30.5787 34.9647 33.796C34.8749 37.0133 34.9647 40.2332 34.9647 43.4518C36.574 43.4517 38.1833 43.4517 39.7926 43.4517C39.7926 41.6153 43.9787 36.2381 42.2933 36.2186C40.9112 36.2026 39.7926 35.1781 39.7926 33.796L39.7902 33.7961C39.6406 31.2114 41.1737 28.6571 41.1737 28.6571C43.1945 25.2902 47.0144 25.3558 47.0344 21.7263C47.0398 20.7545 47.0344 21.7264 47.0344 21.7264C47.0344 19.3123 47.0344 16.8983 47.0344 14.4844Z" fill="#FAFAFA"/>
<path d="M34.9648 7.24316L40.9997 7.2432L47.0346 7.24324C47.0346 11.2665 47.0346 15.2897 47.0346 19.3129C43.0113 19.3129 38.9881 19.3129 34.9648 19.313C34.9648 15.2897 34.9648 11.2664 34.9648 7.24316Z" fill="#FAFAFA"/>
<path d="M34.9648 36.21L40.9997 36.21L47.0346 36.21C47.0346 40.2333 47.0346 44.2565 47.0346 48.2797C43.0113 48.2797 38.9881 48.2797 34.9648 48.2798C34.9648 44.2565 34.9648 40.2332 34.9648 36.21Z" fill="#FAFAFA"/>
<path d="M27.6807 21.684L27.6807 21.6841L27.6808 21.684L27.6809 21.6841L27.681 21.684L27.681 21.6841L27.6811 21.684L27.6812 21.6841L27.6813 21.684C27.6807 23.2933 27.6807 24.9026 27.6807 26.5119C29.2127 26.5119 32.5018 29.5915 32.5119 27.815C32.5293 24.7577 39.9198 27.1886 41.2458 28.3546C42.5718 29.5205 43.775 33.6639 46.9923 33.7537C50.2096 33.8435 53.4294 33.7537 56.6481 33.7537C56.648 32.1444 56.648 30.5351 56.648 28.9258C54.8115 28.9258 49.4344 24.7397 49.4149 26.4252C49.3988 27.8072 48.3744 28.9258 46.9923 28.9258L46.9924 28.9282C44.4077 29.0778 41.8534 27.5448 41.8534 27.5448C38.4865 25.524 38.5521 21.704 34.9226 21.684C33.9507 21.6787 34.9226 21.684 34.9226 21.684C32.5086 21.684 30.0946 21.684 27.6807 21.684Z" fill="#FAFAFA"/>
<path d="M20.4395 33.7533L20.4395 27.7185L20.4395 21.6836C24.4627 21.6836 28.486 21.6836 32.5092 21.6836L32.5092 33.7533C28.486 33.7533 24.4627 33.7533 20.4395 33.7533Z" fill="#FAFAFA"/>
<path d="M49.4062 33.7533L49.4063 27.7185L49.4063 21.6836C53.4295 21.6836 57.4528 21.6836 61.476 21.6836L61.4761 33.7533C57.4528 33.7533 53.4295 33.7533 49.4062 33.7533Z" fill="#FAFAFA"/>
<path d="M25.3087 12.0693L25.3086 14.4833L25.3086 16.8972C26.9179 16.8972 28.5272 16.8972 30.1366 16.8972C30.1365 15.2879 30.1365 13.6786 30.1365 12.0693C28.5272 12.0693 26.9179 12.0693 25.3087 12.0693Z" fill="#FAFAFA"/>
<path d="M25.3087 38.624L25.3086 41.038L25.3086 43.4519C26.9179 43.4519 28.5272 43.4519 30.1366 43.4519C30.1365 41.8426 30.1365 40.2333 30.1365 38.624C28.5272 38.624 26.9179 38.624 25.3087 38.624Z" fill="#FAFAFA"/>
<path d="M51.8624 38.624L51.8623 41.038L51.8623 43.4519C53.4716 43.4519 55.0809 43.4519 56.6903 43.4519C56.6902 41.8426 56.6902 40.2333 56.6902 38.624C55.0809 38.624 53.4716 38.624 51.8624 38.624Z" fill="#FAFAFA"/>
<path d="M51.8624 12.0693L51.8623 14.4833L51.8623 16.8972C53.4716 16.8972 55.0809 16.8972 56.6903 16.8972C56.6902 15.2879 56.6902 13.6786 56.6902 12.0693C55.0809 12.0693 53.4716 12.0693 51.8624 12.0693Z" fill="#FAFAFA"/>
<path d="M20.4815 45.8652L20.4815 47.0722L20.4814 48.2792C21.2861 48.2792 22.0908 48.2792 22.8955 48.2792C22.8954 47.4745 22.8954 46.6699 22.8954 45.8652C22.0908 45.8652 21.2861 45.8652 20.4815 45.8652Z" fill="#FAFAFA"/>
<path d="M20.4815 7.24316L20.4815 8.45014L20.4814 9.65711C21.2861 9.65711 22.0908 9.65711 22.8955 9.65711C22.8954 8.85246 22.8954 8.04781 22.8954 7.24316C22.0908 7.24317 21.2861 7.24317 20.4815 7.24316Z" fill="#FAFAFA"/>
<path d="M59.1036 7.24316L59.1036 8.45014L59.1035 9.65711C59.9082 9.65711 60.7129 9.65711 61.5175 9.65711C61.5175 8.85246 61.5175 8.04781 61.5175 7.24316C60.7128 7.24317 59.9082 7.24317 59.1036 7.24316Z" fill="#FAFAFA"/>
<path d="M59.1036 45.8652L59.1036 47.0722L59.1035 48.2792C59.9082 48.2792 60.7129 48.2792 61.5175 48.2792C61.5175 47.4745 61.5175 46.6699 61.5175 45.8652C60.7128 45.8652 59.9082 45.8652 59.1036 45.8652Z" fill="#FAFAFA"/>
<path d="M63.9317 26.5537L63.9317 28.9677L63.9316 31.3816C65.541 31.3816 67.1503 31.3816 68.7596 31.3816C68.7596 29.7723 68.7596 28.163 68.7595 26.5537C67.1503 26.5537 65.541 26.5537 63.9317 26.5537Z" fill="#FAFAFA"/>
<path d="M13.2393 26.5537L13.2393 28.9677L13.2393 31.3816C14.8486 31.3816 16.4579 31.3816 18.0672 31.3816C18.0672 29.7723 18.0672 28.163 18.0671 26.5537C16.4579 26.5537 14.8486 26.5537 13.2393 26.5537Z" fill="#FAFAFA"/>
<path d="M37.38 50.6934L37.3799 53.1073L37.3799 55.5212C38.9892 55.5212 40.5985 55.5212 42.2078 55.5212C42.2078 53.9119 42.2078 52.3027 42.2078 50.6934C40.5985 50.6934 38.9892 50.6934 37.38 50.6934Z" fill="#FAFAFA"/>
<path d="M39.7921 0L39.792 2.41394L39.792 4.82789C41.4013 4.82789 43.0106 4.8279 44.62 4.8279C44.6199 3.2186 44.6199 1.6093 44.6199 0C43.0106 6.03486e-06 41.4013 6.03486e-06 39.7921 0Z" fill="#FAFAFA"/>
<text fill="#FAFAFA" xml:space="preserve" style="white-space: pre" font-family="Montserrat" font-size="15.375" font-weight="bold" letter-spacing="0em"><tspan x="19.9269" y="79.0744">ILIOS</tspan></text>
</svg>
