<svg width="630" height="641" viewBox="0 0 630 641" fill="none" xmlns="http://www.w3.org/2000/svg">
<rect width="630" height="641" fill="#428BF8"/>
<path d="M0 -358C0 -371.255 10.7452 -382 24 -382H1440V642H24C10.7451 642 0 631.255 0 618V-358Z" fill="#428BF8"/>
<g clip-path="url(#clip0_1_3)">
<rect y="-381" width="710" height="1022" rx="20" fill="#428BF8"/>
<path d="M597.467 299.469C597.467 299.469 597.467 289.787 586.42 276.368C575.373 262.949 568.366 255.165 568.366 255.165C568.366 255.165 562.874 277.317 573.101 290.813C580.608 300.292 588.748 308.984 597.435 316.799L597.467 299.469Z" fill="#92E3A9"/>
<path d="M581.528 359.612C581.528 359.612 581.528 349.93 570.481 336.512C559.434 323.093 552.459 315.309 552.459 315.309C552.459 315.309 546.951 337.46 557.193 350.957C564.7 360.436 572.84 369.128 581.528 376.942V359.612Z" fill="#92E3A9"/>
<path d="M596.772 315.87C596.772 315.87 597.609 306.304 609.697 294.318C621.786 282.332 629.471 275.594 629.471 275.594C629.471 275.594 633.022 298.326 621.723 310.448C613.442 318.903 604.6 326.494 595.289 333.142L596.772 315.87Z" fill="#92E3A9"/>
<path d="M577.519 386.894C577.519 386.894 579.097 377.484 592.211 367.124C605.326 356.765 613.469 351.053 613.469 351.053C613.469 351.053 615.047 374.134 602.785 384.687C593.825 392.03 584.382 398.442 574.552 403.857L577.519 386.894Z" fill="#92E3A9"/>
<path d="M581.133 464.348C581.133 464.348 581.133 454.667 592.18 441.229C603.227 427.79 610.218 420.045 610.218 420.045C610.218 420.045 615.726 442.197 605.484 455.674C597.98 465.162 589.839 473.861 581.149 481.679L581.133 464.348Z" fill="#92E3A9"/>
<path d="M580.959 483.247C580.959 483.247 582.064 473.72 572.753 458.462C563.442 443.203 557.335 434.335 557.335 434.335C557.335 434.335 549.334 455.306 557.871 470.428C564.2 481.124 571.248 491.15 578.939 500.403L580.959 483.247Z" fill="#92E3A9"/>
<path d="M570.118 539.265C570.118 539.265 570.118 529.584 581.165 516.165C592.211 502.746 599.218 494.962 599.218 494.962C599.218 494.962 604.71 517.114 594.484 530.61C586.975 540.092 578.835 548.791 570.149 556.615L570.118 539.265Z" fill="#92E3A9"/>
<path d="M577.456 590.056C577.456 590.056 575.468 580.743 583.311 564.284C591.154 547.825 596.409 538.182 596.409 538.182C596.409 538.182 606.288 557.894 599.203 574.12C593.902 585.624 587.826 596.564 581.038 606.825L577.456 590.056Z" fill="#92E3A9"/>
<path d="M598.461 297.009C597.909 307.034 596.908 317.015 595.463 326.906C591.107 354.441 580.25 372.216 575.91 397.079C571.57 421.942 584.037 453.988 580.644 485.938C577.251 517.888 567.183 535.644 570.071 556.963C572.959 578.282 588.172 636.024 588.172 636.024" stroke="#263238" strokeLinecap="round" strokeLinejoin="round"/>
<path d="M596.678 322.278L608.514 311.125" stroke="#263238" strokeLinecap="round" strokeLinejoin="round"/>
<path d="M597.23 309.441L592.259 298.617" stroke="#263238" strokeLinecap="round" strokeLinejoin="round"/>
<path d="M576.572 395.938C576.572 395.938 586.483 386.817 596.678 377.697" stroke="#263238" strokeLinecap="round" strokeLinejoin="round"/>
<path d="M581.528 376.941C581.528 376.941 573.258 357.074 563.9 343.907" stroke="#263238" strokeLinecap="round" strokeLinejoin="round"/>
<path d="M581.528 478.057C587.181 465.237 594.326 453.496 602.738 443.203" stroke="#263238" strokeLinecap="round" strokeLinejoin="round"/>
<path d="M579.603 491.573C576.595 482.881 573 474.513 568.856 466.556C563.08 456.08 562.243 454.725 562.243 454.725" stroke="#263238" strokeLinecap="round" strokeLinejoin="round"/>
<path d="M570.118 556.964C572.634 549.332 575.62 541.946 579.05 534.87C582.482 528.294 586.351 522.076 590.618 516.281" stroke="#263238" strokeLinecap="round" strokeLinejoin="round"/>
<path d="M581.039 606.824C580.463 599.527 581.488 592.173 584.005 585.525C588.14 575.727 592.811 562.889 594.737 557.815" stroke="#263238" strokeLinecap="round" strokeLinejoin="round"/>
<path d="M507.798 428.139C507.798 428.139 506.945 422.097 512.642 412.164C518.339 402.23 522.111 396.479 522.111 396.479C522.111 396.479 527.508 409.647 522.301 419.445C518.433 426.394 514.099 432.936 509.344 439.002L507.798 428.139Z" fill="#92E3A9"/>
<path d="M523.121 463.729C523.121 463.729 522.269 457.687 527.966 447.754C533.663 437.82 537.435 432.069 537.435 432.069C537.435 432.069 542.832 445.236 537.624 455.054C533.754 461.995 529.42 468.53 524.668 474.591L523.121 463.729Z" fill="#92E3A9"/>
<path d="M509.676 438.324C509.676 438.324 508.319 432.515 499.67 426.531C491.022 420.548 485.625 417.411 485.625 417.411C485.625 417.411 485.404 432.147 493.516 438.227C499.455 442.422 505.668 446.003 512.09 448.935L509.676 438.324Z" fill="#92E3A9"/>
<path d="M528.045 480.304C528.045 480.304 526.183 474.611 517.093 469.847C508.003 465.084 502.322 462.605 502.322 462.605C502.322 462.605 503.363 477.283 512.011 482.279C518.278 485.685 524.766 488.445 531.407 490.528L528.045 480.304Z" fill="#92E3A9"/>
<path d="M532.621 529.351C532.621 529.351 531.785 523.31 523.689 516.32C515.593 509.33 510.496 505.438 510.496 505.438C510.496 505.438 509.013 520.057 516.603 527.144C522.149 532.099 528.024 536.471 534.168 540.214L532.621 529.351Z" fill="#92E3A9"/>
<path d="M534.421 541.182C534.421 541.182 532.843 535.373 537.372 524.53C541.901 513.686 544.9 507.354 544.9 507.354C544.9 507.354 551.765 519.437 547.756 530.068C544.736 537.615 541.204 544.837 537.198 551.658L534.421 541.182Z" fill="#92E3A9"/>
<path d="M548.214 589.881C548.214 589.881 548.782 583.801 556.53 576.327C564.279 568.852 569.155 564.534 569.155 564.534C569.155 564.534 571.317 579.037 564.074 586.647C558.768 591.974 553.109 596.747 547.156 600.918L548.214 589.881Z" fill="#92E3A9"/>
<path d="M546.146 574.855C546.146 574.855 545.294 568.814 537.214 561.824C529.134 554.834 524.052 550.941 524.052 550.941C524.052 550.941 522.569 565.561 530.16 572.667C535.709 577.614 541.584 581.986 547.724 585.738L546.146 574.855Z" fill="#92E3A9"/>
<path d="M546.146 607.696C546.146 607.696 546.556 601.577 540.181 592.302C533.805 583.027 529.671 577.683 529.671 577.683C529.671 577.683 525.204 591.353 531.091 600.59C535.405 607.094 540.156 613.144 545.294 618.675L546.146 607.696Z" fill="#92E3A9"/>
<path d="M506.961 426.706C508.196 432.922 509.708 439.05 511.491 445.063C516.651 461.754 525.031 471.455 529.955 486.462C534.878 501.468 529.955 523.252 534.815 542.829C539.676 562.405 547.724 572.203 547.724 585.951C547.724 599.699 543.369 637.942 543.369 637.942" stroke="#263238" strokeLinecap="round" strokeLinejoin="round"/>
<path d="M510.323 442.313L501.911 436.91" stroke="#263238" strokeLinecap="round" strokeLinejoin="round"/>
<path d="M508.839 434.335L510.986 426.899" stroke="#263238" strokeLinecap="round" strokeLinejoin="round"/>
<path d="M529.434 485.842C529.434 485.842 522.411 481.446 515.23 477.07" stroke="#263238" strokeLinecap="round" strokeLinejoin="round"/>
<path d="M524.652 474.592C526.722 466.614 529.445 458.913 532.78 451.607" stroke="#263238" strokeLinecap="round" strokeLinejoin="round"/>
<path d="M533.6 537.987C528.917 530.716 523.4 524.318 517.219 518.991" stroke="#263238" strokeLinecap="round" strokeLinejoin="round"/>
<path d="M535.999 546.198C537.122 540.355 538.637 534.636 540.528 529.1C543.227 521.761 543.684 520.793 543.684 520.793" stroke="#263238" strokeLinecap="round" strokeLinejoin="round"/>
<path d="M547.346 596.388C550.082 592.227 553.114 588.372 556.404 584.867C558.497 582.976 560.461 580.877 562.275 578.593" stroke="#263238" strokeLinecap="round" strokeLinejoin="round"/>
<path d="M547.724 585.951C545.47 581.488 542.943 577.242 540.165 573.248C537.43 569.585 534.453 566.204 531.265 563.141" stroke="#263238" strokeLinecap="round" strokeLinejoin="round"/>
<path d="M545.294 618.675C545.012 614.019 543.72 609.54 541.554 605.702C538.098 600.106 534.026 592.67 532.369 589.746" stroke="#263238" strokeLinecap="round" strokeLinejoin="round"/>
<path d="M59.5626 343.791L52.6504 319.568L59.5626 329.85L54.1338 293.504L62.5295 319.568L65.4963 268.661L70.4359 317.128L75.8646 307.446V319.568L82.2876 303.205L78.8315 331.67L84.7495 326.829L75.3754 342.571L59.5626 343.791Z" fill="#92E3A9"/>
<path d="M81.2938 337.73H55.6177L60.2416 401.339H76.6699L81.2938 337.73Z" fill="#263238" stroke="#263238" strokeLinecap="round" strokeLinejoin="round"/>
<path d="M129.458 400.623H41.9824V627.95H129.458V400.623Z" fill="white" stroke="#263238" strokeLinecap="round" strokeLinejoin="round"/>
<path d="M134.24 400.623H85.7124V627.95H134.24V400.623Z" fill="white" stroke="#263238" strokeLinecap="round" strokeLinejoin="round"/>
<path d="M128.779 400.623H85.7124V627.95H128.779V400.623Z" fill="#263238" stroke="#263238" strokeLinecap="round" strokeLinejoin="round"/>
<path d="M123.935 575.087H85.7124V621.637H123.935V575.087Z" fill="#308480" stroke="#263238" strokeLinecap="round" strokeLinejoin="round"/>
<path d="M123.935 577.605H85.7124V583.569H123.935V577.605Z" fill="white" stroke="#263238" strokeLinecap="round" strokeLinejoin="round"/>
<path d="M123.935 611.878H85.7124V617.842H123.935V611.878Z" fill="white" stroke="#263238" strokeLinecap="round" strokeLinejoin="round"/>
<path d="M92.9556 576.056V634.921" stroke="#263238" strokeLinecap="round" strokeLinejoin="round"/>
<path d="M106.291 576.056V634.921" stroke="#263238" strokeLinecap="round" strokeLinejoin="round"/>
<path d="M118.001 576.056V634.921" stroke="#263238" strokeLinecap="round" strokeLinejoin="round"/>
<path d="M123.935 409.065H85.7124V477.515H123.935V409.065Z" fill="#308480" stroke="#263238" strokeLinecap="round" strokeLinejoin="round"/>
<path d="M123.935 411.931H85.7124V418.708H123.935V411.931Z" fill="white" stroke="#263238" strokeLinecap="round" strokeLinejoin="round"/>
<path d="M123.935 455.809H85.7124V462.586H123.935V455.809Z" fill="white" stroke="#263238" strokeLinecap="round" strokeLinejoin="round"/>
<path d="M92.9556 410.15V477.051" stroke="#263238" strokeLinecap="round" strokeLinejoin="round"/>
<path d="M106.291 410.15V477.051" stroke="#263238" strokeLinecap="round" strokeLinejoin="round"/>
<path d="M118.001 410.15V477.051" stroke="#263238" strokeLinecap="round" strokeLinejoin="round"/>
<path d="M123.935 491.554H85.7124V560.004H123.935V491.554Z" fill="#308480" stroke="#263238" strokeLinecap="round" strokeLinejoin="round"/>
<path d="M123.935 494.42H85.7124V501.197H123.935V494.42Z" fill="white" stroke="#263238" strokeLinecap="round" strokeLinejoin="round"/>
<path d="M123.935 538.297H85.7124V545.074H123.935V538.297Z" fill="white" stroke="#263238" strokeLinecap="round" strokeLinejoin="round"/>
<path d="M92.9561 492.657V559.539" stroke="#263238" strokeLinecap="round" strokeLinejoin="round"/>
<path d="M106.291 492.657V559.539" stroke="#263238" strokeLinecap="round" strokeLinejoin="round"/>
<path d="M118 492.657V559.539" stroke="#263238" strokeLinecap="round" strokeLinejoin="round"/>
<path d="M129.442 476.566H85.7124V484.35H129.442V476.566Z" fill="white" stroke="#263238" strokeLinecap="round" strokeLinejoin="round"/>
<path d="M129.442 559.578H85.7124V567.362H129.442V559.578Z" fill="white" stroke="#263238" strokeLinecap="round" strokeLinejoin="round"/>
<path d="M129.442 400.623V627.931" stroke="#263238" strokeLinecap="round" strokeLinejoin="round"/>
<path d="M79.5415 400.622V627.93H85.712V409.065H128.684V400.525L79.5415 400.622Z" fill="white" stroke="#263238" strokeLinecap="round" strokeLinejoin="round"/>
<path d="M85.7124 409.065V400.623" stroke="#263238" strokeLinecap="round" strokeLinejoin="round"/>
<path d="M129.111 296.196C124.519 285.333 122.593 277.549 122.593 275.748C122.593 272.186 128.906 270.056 128.906 270.056C138.753 263.666 185.071 272.902 205.918 277.162C217.588 279.658 229.394 281.082 241.237 281.422C241.237 281.422 244.125 278.595 247.549 275.032C250.974 271.469 267.228 248.039 273.604 245.987C279.98 243.934 285.756 248.833 285.756 248.833C285.756 248.833 296.187 256.579 294.435 258.07C292.684 259.561 267.228 286.476 260.853 291.452C254.477 296.429 241.174 294.299 229.59 297.145C219.616 299.585 179.216 302.606 169.953 303.535C162.996 305.56 155.694 304.814 149.106 301.405" fill="white"/>
<mask id="mask0_1_3" style="mask-type:luminance" maskUnits="userSpaceOnUse" x="122" y="245" width="173" height="60">
<path d="M129.111 296.196C124.519 285.333 122.593 277.549 122.593 275.748C122.593 272.186 128.906 270.056 128.906 270.056C138.753 263.666 185.071 272.902 205.918 277.162C217.588 279.658 229.394 281.082 241.237 281.422C241.237 281.422 244.125 278.595 247.549 275.032C250.974 271.469 267.228 248.039 273.604 245.987C279.98 243.934 285.756 248.833 285.756 248.833C285.756 248.833 296.187 256.579 294.435 258.07C292.684 259.561 267.228 286.476 260.853 291.452C254.477 296.429 241.174 294.299 229.59 297.145C219.616 299.585 179.216 302.606 169.953 303.535C162.996 305.56 155.694 304.814 149.106 301.405" fill="white"/>
</mask>
<g mask="url(#mask0_1_3)">
<path d="M285.866 248.755C285.866 248.755 280.074 243.779 273.714 245.909C267.355 248.039 251.131 271.488 247.66 274.954C244.188 278.42 241.347 281.344 241.347 281.344C229.504 281.004 217.699 279.58 206.029 277.084C185.182 272.824 138.864 263.53 129.016 269.978C129.016 269.978 122.704 272.108 122.704 275.671C122.923 277.663 123.342 279.614 123.95 281.48L124.818 281.867C124.818 281.867 136.386 280.376 161.352 281.112C186.318 281.848 244.061 286.049 247.77 287.695C249.348 288.431 260.537 285.333 272.941 279.95C282.41 270.481 293.536 258.65 294.656 257.818C296.297 256.559 285.866 248.755 285.866 248.755Z" fill="#FF725E"/>
<path opacity="0.5" d="M285.866 248.755C285.866 248.755 280.074 243.779 273.714 245.909C267.355 248.039 251.131 271.488 247.66 274.954C244.188 278.42 241.347 281.344 241.347 281.344C229.504 281.004 217.699 279.58 206.029 277.084C185.182 272.824 138.864 263.53 129.016 269.978C129.016 269.978 122.704 272.108 122.704 275.671C122.923 277.663 123.342 279.614 123.95 281.48L124.818 281.867C124.818 281.867 136.386 280.376 161.352 281.112C186.318 281.848 244.061 286.049 247.77 287.695C249.348 288.431 260.537 285.333 272.941 279.95C282.41 270.481 293.536 258.65 294.656 257.818C296.297 256.559 285.866 248.755 285.866 248.755Z" fill="white"/>
</g>
<path d="M129.111 296.196C124.519 285.333 122.593 277.549 122.593 275.748C122.593 272.186 128.906 270.056 128.906 270.056C138.753 263.666 185.071 272.902 205.918 277.162C217.588 279.658 229.394 281.082 241.237 281.422C241.237 281.422 244.125 278.595 247.549 275.032C250.974 271.469 267.228 248.039 273.604 245.987C279.98 243.934 285.756 248.833 285.756 248.833C285.756 248.833 296.187 256.579 294.435 258.07C292.684 259.561 267.228 286.476 260.853 291.452C254.477 296.429 241.174 294.299 229.59 297.145C219.616 299.585 179.216 302.606 169.953 303.535C162.996 305.56 155.694 304.814 149.106 301.405" stroke="#263238" strokeLinecap="round" strokeLinejoin="round"/>
<path d="M357.797 359.36C358.844 356.92 360.415 354.878 362.34 353.455C364.265 352.032 366.47 351.282 368.718 351.285H473.979C473.979 351.285 481.585 351.285 479.313 369.022C477.04 386.759 445.825 495.059 438.281 527.802C430.738 560.546 429.144 629.557 429.144 629.557H302.894C302.894 629.557 312.899 464.523 357.797 359.36Z" fill="white"/>
<mask id="mask1_1_3" style="mask-type:luminance" maskUnits="userSpaceOnUse" x="302" y="351" width="178" height="279">
<path d="M357.797 359.36C358.844 356.92 360.415 354.878 362.34 353.455C364.265 352.032 366.47 351.282 368.718 351.285H473.979C473.979 351.285 481.585 351.285 479.313 369.022C477.04 386.759 445.825 495.059 438.281 527.802C430.738 560.546 429.144 629.557 429.144 629.557H302.894C302.894 629.557 312.899 464.523 357.797 359.36Z" fill="white"/>
</mask>
<g mask="url(#mask1_1_3)">
<path opacity="0.16" d="M405.204 351.285H368.718C366.471 351.282 364.265 352.032 362.34 353.455C360.416 354.878 358.845 356.92 357.797 359.36C312.899 464.523 302.784 629.499 302.784 629.499H359.407L373.373 564.419L431.606 579.154C432.016 573.694 432.49 568.136 433.042 562.657L431.764 545.229C431.764 545.229 419.833 529.836 416.077 525.982C412.321 522.129 414.815 515.177 414.184 485.145C413.552 455.112 391.585 433.522 383.41 415.03C375.235 396.538 387.813 384.978 399.112 366.485C403.137 359.805 404.778 354.887 405.204 351.285Z" fill="black"/>
</g>
<path d="M357.797 359.36C358.844 356.92 360.415 354.878 362.34 353.455C364.265 352.032 366.47 351.282 368.718 351.285H473.979C473.979 351.285 481.585 351.285 479.313 369.022C477.04 386.759 445.825 495.059 438.281 527.802C430.738 560.546 429.144 629.557 429.144 629.557H302.894C302.894 629.557 312.899 464.523 357.797 359.36Z" stroke="#263238" strokeLinecap="round" strokeLinejoin="round"/>
<path d="M455.72 382.093C445.083 412.552 422.579 533.128 418.918 629.5H429.081C429.081 629.5 430.659 560.411 438.218 527.745C445.778 495.079 477.025 386.759 479.25 368.964C481.475 351.169 473.916 351.228 473.916 351.228C473.916 351.228 464.258 357.676 455.72 382.093Z" fill="#263238" stroke="#263238" strokeLinecap="round" strokeLinejoin="round"/>
<path d="M270.811 321.214C270.811 321.214 254.019 309.131 247.66 287.831C241.3 266.532 297.449 232.413 321.831 230.283C346.214 228.153 353.094 235.957 367.597 266.512C382.1 297.068 391.916 338.97 384.388 359.573C376.861 380.176 364.125 385.152 373.342 402.173C382.558 419.193 408.66 467.524 406.924 490.257C405.188 512.99 387.245 532.857 361.158 535.025C335.072 537.194 300.353 517.966 271.41 486.617C242.468 455.267 249.979 409.163 260.364 394.253C270.748 379.343 286.418 373.65 287.57 358.74C288.722 343.831 270.811 321.214 270.811 321.214Z" fill="#263238" stroke="#263238" strokeLinecap="round" strokeLinejoin="round"/>
<path d="M342.378 287.502C351.295 307.872 362.452 335.155 365.94 351.634C372.031 380.485 340.69 398.648 349.385 412.532" stroke="white" strokeLinecap="round" strokeLinejoin="round"/>
<path d="M330.227 260.82C330.227 260.82 333.699 268.082 338.496 278.77" stroke="white" strokeLinecap="round" strokeLinejoin="round"/>
<path d="M377.003 312.074C378.031 315.892 378.699 319.842 378.991 323.847" stroke="white" strokeLinecap="round" strokeLinejoin="round"/>
<path d="M336.255 250.228C336.255 250.228 363.683 275.09 374.635 304.852" stroke="white" strokeLinecap="round" strokeLinejoin="round"/>
<path d="M298.192 268.874C278.607 275.613 250.438 286.553 252.726 292.865" stroke="white" strokeLinecap="round" strokeLinejoin="round"/>
<path d="M316.293 262.949C316.293 262.949 312.111 264.227 305.877 266.28" stroke="white" strokeLinecap="round" strokeLinejoin="round"/>
<path d="M292.068 250.402C303.287 246.064 315.036 244.163 326.787 244.786" stroke="white" strokeLinecap="round" strokeLinejoin="round"/>
<path d="M284.083 254.41C285.857 253.276 287.692 252.293 289.575 251.467" stroke="white" strokeLinecap="round" strokeLinejoin="round"/>
<path d="M129.111 296.197C126.453 290.225 124.336 283.913 122.798 277.376C124.329 283.916 126.446 290.229 129.111 296.197ZM122.625 276.272C122.625 276.388 122.625 276.524 122.625 276.698C122.656 276.524 122.641 276.388 122.625 276.272ZM129.111 296.177C135.013 309.894 142.356 322.602 150.952 333.975C171.799 361.684 232.02 434.161 237.749 439.138C243.478 444.114 241.805 458.308 237.749 472.52C233.693 486.733 218.638 507.375 219.222 530.069C219.806 552.763 225.534 587.617 225.014 594.723C224.493 601.83 210.006 625.995 210.006 625.995H359.391C359.391 625.995 340.769 596.95 340.769 587.016C340.769 577.083 366.335 449.807 367.487 440.571C368.639 431.334 364.015 424.944 354.751 424.228C345.488 423.511 310.169 414.275 308.433 407.169C306.697 400.062 317.697 373.07 317.697 373.07L282.978 375.2C282.978 375.2 281.242 393.672 278.922 397.235C276.603 400.798 273.131 393.672 265.019 388.715C256.908 383.758 241.347 379.479 235.492 373.786C229.637 368.093 174.119 304.078 174.119 304.078" fill="white"/>
<mask id="mask2_1_3" style="mask-type:luminance" maskUnits="userSpaceOnUse" x="122" y="276" width="246" height="350">
<path d="M129.111 296.197C126.453 290.225 124.336 283.913 122.798 277.376C124.329 283.916 126.446 290.229 129.111 296.197ZM122.625 276.272C122.625 276.388 122.625 276.524 122.625 276.698C122.656 276.524 122.641 276.388 122.625 276.272ZM129.111 296.177C135.013 309.894 142.356 322.602 150.952 333.975C171.799 361.684 232.02 434.161 237.749 439.138C243.478 444.114 241.805 458.308 237.749 472.52C233.693 486.733 218.638 507.375 219.222 530.069C219.806 552.763 225.534 587.617 225.014 594.723C224.493 601.83 210.006 625.995 210.006 625.995H359.391C359.391 625.995 340.769 596.95 340.769 587.016C340.769 577.083 366.335 449.807 367.487 440.571C368.639 431.334 364.015 424.944 354.751 424.228C345.488 423.511 310.169 414.275 308.433 407.169C306.697 400.062 317.697 373.07 317.697 373.07L282.978 375.2C282.978 375.2 281.242 393.672 278.922 397.235C276.603 400.798 273.131 393.672 265.019 388.715C256.908 383.758 241.347 379.479 235.492 373.786C229.637 368.093 174.119 304.078 174.119 304.078" fill="white"/>
</mask>
<g mask="url(#mask2_1_3)">
<path d="M244.361 379.266C247.249 385.462 250.137 391.058 250.137 391.058C250.137 391.058 259.874 397.777 262.305 397.777C264.735 397.777 279.348 407.459 279.348 407.459C279.348 407.459 291.531 403.722 287.239 391.019C285.885 387.767 284.175 384.758 282.157 382.073C281.431 387.708 280.264 395.086 278.891 397.196C276.571 400.74 273.099 393.633 264.987 388.676C259.732 385.462 251.226 382.519 244.361 379.266Z" fill="#FF725E"/>
<path d="M214.63 350.511C196.749 330.199 174.119 304.155 174.119 304.155L160.958 301.831L159.379 302.915C159.379 302.915 196.528 343.249 204.435 347.742C207.633 349.546 211.109 350.49 214.63 350.511Z" fill="#FF725E"/>
<path d="M233.362 371.54L231.942 369.991C232.668 371.463 233.078 372.392 233.078 372.392L233.362 371.54Z" fill="#FF725E"/>
<g opacity="0.5">
<path d="M244.361 379.266C247.249 385.462 250.137 391.058 250.137 391.058C250.137 391.058 259.874 397.777 262.305 397.777C264.735 397.777 279.348 407.459 279.348 407.459C279.348 407.459 291.531 403.722 287.239 391.019C285.885 387.767 284.175 384.758 282.157 382.073C281.431 387.708 280.264 395.086 278.891 397.196C276.571 400.74 273.099 393.633 264.987 388.676C259.732 385.462 251.226 382.519 244.361 379.266Z" fill="white"/>
<path d="M214.63 350.511C196.749 330.199 174.119 304.155 174.119 304.155L160.958 301.831L159.379 302.915C159.379 302.915 196.528 343.249 204.435 347.742C207.633 349.546 211.109 350.49 214.63 350.511Z" fill="white"/>
<path d="M233.362 371.54L231.942 369.991C232.668 371.463 233.078 372.392 233.078 372.392L233.362 371.54Z" fill="white"/>
</g>
</g>
<path d="M122.593 275.749C122.586 275.884 122.586 276.02 122.593 276.156M122.798 277.376C124.336 283.913 126.453 290.225 129.111 296.197C126.446 290.229 124.329 283.916 122.798 277.376ZM122.798 277.376C122.755 277.192 122.723 277.004 122.704 276.814M129.111 296.177C135.013 309.894 142.356 322.602 150.952 333.975C171.799 361.684 232.02 434.161 237.749 439.138C243.478 444.114 241.805 458.308 237.749 472.52C233.693 486.733 218.638 507.375 219.222 530.069C219.806 552.763 225.534 587.617 225.014 594.723C224.493 601.83 210.006 625.995 210.006 625.995H359.391C359.391 625.995 340.769 596.95 340.769 587.016C340.769 577.083 366.335 449.807 367.487 440.571C368.639 431.334 364.015 424.944 354.751 424.228C345.488 423.511 310.169 414.275 308.433 407.169C306.697 400.062 317.697 373.07 317.697 373.07L282.978 375.2C282.978 375.2 281.242 393.672 278.922 397.235C276.603 400.798 273.131 393.672 265.019 388.715C256.908 383.758 241.347 379.479 235.492 373.786C229.637 368.093 174.119 304.078 174.119 304.078M122.625 276.272C122.625 276.388 122.625 276.524 122.625 276.698C122.656 276.524 122.641 276.388 122.625 276.272Z" stroke="#263238" strokeLinecap="round" strokeLinejoin="round"/>
<path d="M174.119 304.154C174.119 304.154 155.623 304.58 145.302 294.144" stroke="#263238" strokeLinecap="round" strokeLinejoin="round"/>
<path d="M308.449 407.168C306.713 400.081 317.712 373.069 317.712 373.069L282.994 375.199C282.994 375.199 281.258 393.672 278.938 397.235C276.618 400.798 273.146 393.672 265.035 388.715C264.419 388.328 263.741 387.96 263.046 387.592L260.947 428.081C260.947 428.081 263.993 467.292 300.511 459.837C315.298 456.816 331.079 440.628 344.698 422.427C330.685 419.271 309.774 412.609 308.449 407.168Z" fill="white"/>
<mask id="mask3_1_3" style="mask-type:luminance" maskUnits="userSpaceOnUse" x="260" y="373" width="85" height="88">
<path d="M308.449 407.168C306.713 400.081 317.712 373.069 317.712 373.069L282.994 375.199C282.994 375.199 281.258 393.672 278.938 397.235C276.618 400.798 273.146 393.672 265.035 388.715C264.419 388.328 263.741 387.96 263.046 387.592L260.947 428.081C260.947 428.081 263.993 467.292 300.511 459.837C315.298 456.816 331.079 440.628 344.698 422.427C330.685 419.271 309.774 412.609 308.449 407.168Z" fill="white"/>
</mask>
<g mask="url(#mask3_1_3)">
<path d="M307.47 378.433C307.47 378.433 305.371 392.878 303.683 408.853C301.994 424.828 300.748 436.717 300.748 436.717L308.449 407.168L317.129 375.857C317.129 375.857 308.733 375.857 307.47 378.433Z" fill="#FF725E"/>
<path opacity="0.5" d="M307.47 378.433C307.47 378.433 305.371 392.878 303.683 408.853C301.994 424.828 300.748 436.717 300.748 436.717L308.449 407.168L317.129 375.857C317.129 375.857 308.733 375.857 307.47 378.433Z" fill="white"/>
</g>
<path d="M308.449 407.168C306.713 400.081 317.712 373.069 317.712 373.069L282.994 375.199C282.994 375.199 281.258 393.672 278.938 397.235C276.618 400.798 273.146 393.672 265.035 388.715C264.419 388.328 263.741 387.96 263.046 387.592L260.947 428.081C260.947 428.081 263.993 467.292 300.511 459.837C315.298 456.816 331.079 440.628 344.698 422.427C330.685 419.271 309.774 412.609 308.449 407.168Z" stroke="#263238" strokeLinecap="round" strokeLinejoin="round"/>
<path d="M278.922 397.235C276.603 400.778 273.131 393.672 265.019 388.715C259.906 385.558 251.763 382.693 245.024 379.594C243.115 374.037 240.59 366.795 238.964 362.419C236.076 354.674 231.437 359.573 231.437 359.573C229.016 356.195 227.06 352.356 225.645 348.206C222.757 340.461 218.117 341.1 211.757 339.686C205.398 338.273 192.062 323.344 192.062 323.344C192.062 323.344 185.829 317.535 183.257 314.649C180.258 321.891 173.078 334.633 157.549 342.591C182.31 374.328 232.541 434.625 237.812 439.156C243.604 444.113 241.868 458.326 237.812 472.539C233.757 486.752 218.701 507.393 219.285 530.087C219.869 552.781 225.598 587.635 225.077 594.742C224.556 601.074 213.004 620.921 210.495 625.181L216.381 625.994H247.029C246.855 606.941 246.871 529.177 257.492 498.196C269.659 462.586 278.922 397.235 278.922 397.235Z" fill="#FF725E"/>
<mask id="mask4_1_3" style="mask-type:luminance" maskUnits="userSpaceOnUse" x="157" y="314" width="122" height="312">
<path d="M278.922 397.235C276.603 400.778 273.131 393.672 265.019 388.715C259.906 385.558 251.763 382.693 245.024 379.594C243.115 374.037 240.59 366.795 238.964 362.419C236.076 354.674 231.437 359.573 231.437 359.573C229.016 356.195 227.06 352.356 225.645 348.206C222.757 340.461 218.117 341.1 211.757 339.686C205.398 338.273 192.062 323.344 192.062 323.344C192.062 323.344 185.829 317.535 183.257 314.649C180.258 321.891 173.078 334.633 157.549 342.591C182.31 374.328 232.541 434.625 237.812 439.156C243.604 444.113 241.868 458.326 237.812 472.539C233.757 486.752 218.701 507.393 219.285 530.087C219.869 552.781 225.598 587.635 225.077 594.742C224.556 601.074 213.004 620.921 210.495 625.181L216.381 625.994H247.029C246.855 606.941 246.871 529.177 257.492 498.196C269.659 462.586 278.922 397.235 278.922 397.235Z" fill="white"/>
</mask>
<g mask="url(#mask4_1_3)">
<path opacity="0.16" d="M265.019 388.715C259.906 385.558 251.763 382.693 245.024 379.594C243.115 374.037 240.59 366.795 238.964 362.419C236.076 354.674 231.437 359.573 231.437 359.573C229.016 356.195 227.06 352.356 225.645 348.206C222.757 340.461 218.117 341.1 211.758 339.686C205.398 338.273 192.063 323.344 192.063 323.344C192.063 323.344 185.829 317.535 183.257 314.649C181.973 317.724 180.445 320.637 178.696 323.344C189.048 334.09 200.474 345.476 204.467 347.742C212.357 352.215 214.204 348.477 220.248 352.97C226.292 357.462 233.031 372.333 233.031 372.333C233.031 372.333 236.692 360.367 239.738 368.596C242.783 376.825 250.09 391 250.09 391C250.09 391 259.827 397.719 262.258 397.719C264.167 397.719 273.525 403.683 277.502 406.258C278.386 400.584 278.875 397.176 278.875 397.176C276.603 400.778 273.131 393.672 265.019 388.715Z" fill="black"/>
</g>
<path d="M278.922 397.235C276.603 400.778 273.131 393.672 265.019 388.715C259.906 385.558 251.763 382.693 245.024 379.594C243.115 374.037 240.59 366.795 238.964 362.419C236.076 354.674 231.437 359.573 231.437 359.573C229.016 356.195 227.06 352.356 225.645 348.206C222.757 340.461 218.117 341.1 211.757 339.686C205.398 338.273 192.062 323.344 192.062 323.344C192.062 323.344 185.829 317.535 183.257 314.649C180.258 321.891 173.078 334.633 157.549 342.591C182.31 374.328 232.541 434.625 237.812 439.156C243.604 444.113 241.868 458.326 237.812 472.539C233.757 486.752 218.701 507.393 219.285 530.087C219.869 552.781 225.598 587.635 225.077 594.742C224.556 601.074 213.004 620.921 210.495 625.181L216.381 625.994H247.029C246.855 606.941 246.871 529.177 257.492 498.196C269.659 462.586 278.922 397.235 278.922 397.235Z" stroke="#263238" strokeLinecap="round" strokeLinejoin="round"/>
<path d="M279.333 394.756C279.333 394.756 272.136 392.046 267.702 396.809C263.267 401.572 256.655 426.009 252.757 452.518C250.354 467.949 252.012 483.919 257.491 498.118C257.491 498.118 266.597 468.822 269.359 454.551C272.121 440.28 279.333 394.756 279.333 394.756Z" fill="#FF725E"/>
<mask id="mask5_1_3" style="mask-type:luminance" maskUnits="userSpaceOnUse" x="251" y="393" width="29" height="106">
<path d="M279.333 394.756C279.333 394.756 272.136 392.046 267.702 396.809C263.267 401.572 256.655 426.009 252.757 452.518C250.354 467.949 252.012 483.919 257.491 498.118C257.491 498.118 266.597 468.822 269.359 454.551C272.121 440.28 279.333 394.756 279.333 394.756Z" fill="white"/>
</mask>
<g mask="url(#mask5_1_3)">
<path opacity="0.16" d="M265.524 399.075C265.524 399.075 270.732 397.525 272.878 398.416C274.685 399.367 276.375 400.625 277.896 402.153L279.333 394.757C277.178 393.406 274.735 392.912 272.341 393.343C268.759 394.234 265.524 399.075 265.524 399.075Z" fill="black"/>
</g>
<path d="M279.333 394.756C279.333 394.756 272.136 392.046 267.702 396.809C263.267 401.572 256.655 426.009 252.757 452.518C250.354 467.949 252.012 483.919 257.491 498.118C257.491 498.118 266.597 468.822 269.359 454.551C272.121 440.28 279.333 394.756 279.333 394.756Z" stroke="#263238" strokeLinecap="round" strokeLinejoin="round"/>
<path d="M230.869 397.08L240.132 443.262L219.285 384.997" stroke="#263238" strokeLinecap="round" strokeLinejoin="round"/>
<path d="M291.894 625.994H359.407C359.407 625.994 340.785 596.949 340.785 587.016C340.785 577.082 366.35 449.806 367.502 440.57C368.654 431.334 364.031 424.944 354.767 424.227C345.503 423.511 310.185 414.274 308.449 407.168C308.449 407.168 295.13 464.716 290.506 503.792C286.529 537.31 290.648 606.863 291.894 625.994Z" fill="#FF725E"/>
<mask id="mask6_1_3" style="mask-type:luminance" maskUnits="userSpaceOnUse" x="288" y="407" width="80" height="219">
<path d="M291.894 625.994H359.407C359.407 625.994 340.785 596.949 340.785 587.016C340.785 577.082 366.35 449.806 367.502 440.57C368.654 431.334 364.031 424.944 354.767 424.227C345.503 423.511 310.185 414.274 308.449 407.168C308.449 407.168 295.13 464.716 290.506 503.792C286.529 537.31 290.648 606.863 291.894 625.994Z" fill="white"/>
</mask>
<g mask="url(#mask6_1_3)">
<path opacity="0.16" d="M354.767 424.227C347.176 423.646 322.1 417.333 312.331 411.176L315.882 421.245C322.315 425.433 329.234 428.384 336.397 429.997C348.154 432.572 359.091 432.069 366.24 444.965L366.587 445.604C367.029 443.125 367.329 441.383 367.423 440.569C368.67 431.333 364.03 424.943 354.767 424.227Z" fill="black"/>
</g>
<path d="M291.894 625.994H359.407C359.407 625.994 340.785 596.949 340.785 587.016C340.785 577.082 366.35 449.806 367.502 440.57C368.654 431.334 364.031 424.944 354.767 424.227C345.503 423.511 310.185 414.274 308.449 407.168C308.449 407.168 295.13 464.716 290.506 503.792C286.529 537.31 290.648 606.863 291.894 625.994Z" stroke="#263238" strokeLinecap="round" strokeLinejoin="round"/>
<path d="M308.449 407.168C308.449 407.168 290.585 476.876 290.506 503.792C290.506 503.792 315.882 466.091 319.196 439.602C322.51 413.113 308.449 407.168 308.449 407.168Z" fill="#FF725E"/>
<mask id="mask7_1_3" style="mask-type:luminance" maskUnits="userSpaceOnUse" x="290" y="407" width="30" height="97">
<path d="M308.449 407.168C308.449 407.168 290.585 476.876 290.506 503.792C290.506 503.792 315.882 466.091 319.196 439.602C322.51 413.113 308.449 407.168 308.449 407.168Z" fill="white"/>
</mask>
<g mask="url(#mask7_1_3)">
<path opacity="0.16" d="M305.372 416.075C308.056 415.965 310.722 416.658 313.139 418.095C315.555 419.533 317.651 421.67 319.243 424.324C319.243 424.324 315.74 411.68 308.449 407.168L305.372 416.075Z" fill="black"/>
</g>
<path d="M308.449 407.168C308.449 407.168 290.585 476.876 290.506 503.792C290.506 503.792 315.882 466.091 319.196 439.602C322.51 413.113 308.449 407.168 308.449 407.168Z" stroke="#263238" strokeLinecap="round" strokeLinejoin="round"/>
<path d="M499.166 612.885C499.166 612.885 512.248 613.544 520.817 615.054C526.532 616.005 532.285 616.567 538.051 616.739C538.051 616.739 533.316 605.004 528.266 601.693C523.216 598.382 514.063 592.457 506.393 593.774C498.724 595.09 487.756 604.578 488.671 607.599C489.586 610.62 493.674 611.975 499.166 612.885Z" fill="white"/>
<mask id="mask8_1_3" style="mask-type:luminance" maskUnits="userSpaceOnUse" x="488" y="593" width="51" height="24">
<path d="M499.166 612.885C499.166 612.885 512.248 613.544 520.817 615.054C526.532 616.005 532.285 616.567 538.051 616.739C538.051 616.739 533.316 605.004 528.266 601.693C523.216 598.382 514.063 592.457 506.393 593.774C498.724 595.09 487.756 604.578 488.671 607.599C489.586 610.62 493.674 611.975 499.166 612.885Z" fill="white"/>
</mask>
<g mask="url(#mask8_1_3)">
<path d="M499.166 612.885C499.166 612.885 512.248 613.544 520.817 615.054C526.532 616.005 532.285 616.567 538.051 616.739C538.051 616.739 533.316 605.004 528.266 601.693C523.216 598.382 514.063 592.457 506.393 593.774C498.724 595.09 487.756 604.578 488.671 607.599C489.586 610.62 493.674 611.975 499.166 612.885Z" fill="#FF725E"/>
<path opacity="0.5" d="M499.166 612.885C499.166 612.885 512.248 613.544 520.817 615.054C526.532 616.005 532.285 616.567 538.051 616.739C538.051 616.739 533.316 605.004 528.266 601.693C523.216 598.382 514.063 592.457 506.393 593.774C498.724 595.09 487.756 604.578 488.671 607.599C489.586 610.62 493.674 611.975 499.166 612.885Z" fill="white"/>
</g>
<path d="M499.166 612.885C499.166 612.885 512.248 613.544 520.817 615.054C526.532 616.005 532.285 616.567 538.051 616.739C538.051 616.739 533.316 605.004 528.266 601.693C523.216 598.382 514.063 592.457 506.393 593.774C498.724 595.09 487.756 604.578 488.671 607.599C489.586 610.62 493.674 611.975 499.166 612.885Z" stroke="#263238" strokeLinecap="round" strokeLinejoin="round"/>
<path d="M520.896 608.083C520.896 608.083 531.265 601.48 533.853 601.577C536.441 601.674 553.643 615.945 552.79 618.23C552.212 619.289 551.376 620.099 550.402 620.544C549.428 620.988 548.364 621.046 547.362 620.708C545.452 619.605 533.869 613.563 533.869 613.563L526.294 615.751L520.896 608.083Z" fill="white"/>
<mask id="mask9_1_3" style="mask-type:luminance" maskUnits="userSpaceOnUse" x="520" y="601" width="33" height="20">
<path d="M520.896 608.083C520.896 608.083 531.265 601.48 533.853 601.577C536.441 601.674 553.643 615.945 552.79 618.23C552.212 619.289 551.376 620.099 550.402 620.544C549.428 620.988 548.364 621.046 547.362 620.708C545.452 619.605 533.869 613.563 533.869 613.563L526.294 615.751L520.896 608.083Z" fill="white"/>
</mask>
<g mask="url(#mask9_1_3)">
<path d="M520.896 608.083C520.896 608.083 531.265 601.48 533.853 601.577C536.441 601.674 553.643 615.945 552.79 618.23C551.938 620.515 547.867 622.374 547.362 620.708C546.857 619.043 533.869 613.563 533.869 613.563L526.294 615.751L520.896 608.083Z" fill="#FF725E"/>
<path opacity="0.5" d="M520.896 608.083C520.896 608.083 531.265 601.48 533.853 601.577C536.441 601.674 553.643 615.945 552.79 618.23C551.938 620.515 547.867 622.374 547.362 620.708C546.857 619.043 533.869 613.563 533.869 613.563L526.294 615.751L520.896 608.083Z" fill="white"/>
</g>
<path d="M520.896 608.083C520.896 608.083 531.265 601.48 533.853 601.577C536.441 601.674 553.643 615.945 552.79 618.23C552.212 619.289 551.376 620.099 550.402 620.544C549.428 620.988 548.364 621.046 547.362 620.708C545.452 619.605 533.869 613.563 533.869 613.563L526.294 615.751L520.896 608.083Z" stroke="#263238" strokeLinecap="round" strokeLinejoin="round"/>
<path d="M513.495 597.221C513.495 597.221 527.319 596.678 530.065 598.382C532.811 600.086 545.215 626.188 543.353 628.086C541.491 629.984 536.346 629.422 536.504 627.311C536.662 625.201 525.079 611.22 525.079 611.22L516.067 608.8L513.495 597.221Z" fill="white"/>
<mask id="mask10_1_3" style="mask-type:luminance" maskUnits="userSpaceOnUse" x="513" y="597" width="31" height="33">
<path d="M513.495 597.221C513.495 597.221 527.319 596.678 530.065 598.382C532.811 600.086 545.215 626.188 543.353 628.086C541.491 629.984 536.346 629.422 536.504 627.311C536.662 625.201 525.079 611.22 525.079 611.22L516.067 608.8L513.495 597.221Z" fill="white"/>
</mask>
<g mask="url(#mask10_1_3)">
<path d="M513.495 597.221C513.495 597.221 527.319 596.678 530.065 598.382C532.811 600.086 545.215 626.188 543.353 628.086C541.491 629.984 536.346 629.422 536.504 627.311C536.662 625.201 525.079 611.22 525.079 611.22L516.067 608.8L513.495 597.221Z" fill="#FF725E"/>
<path opacity="0.5" d="M513.495 597.221C513.495 597.221 527.319 596.678 530.065 598.382C532.811 600.086 545.215 626.188 543.353 628.086C541.491 629.984 536.346 629.422 536.504 627.311C536.662 625.201 525.079 611.22 525.079 611.22L516.067 608.8L513.495 597.221Z" fill="white"/>
</g>
<path d="M513.495 597.221C513.495 597.221 527.319 596.678 530.065 598.382C532.811 600.086 545.215 626.188 543.353 628.086C541.491 629.984 536.346 629.422 536.504 627.311C536.662 625.201 525.079 611.22 525.079 611.22L516.067 608.8L513.495 597.221Z" stroke="#263238" strokeLinecap="round" strokeLinejoin="round"/>
<path d="M505.304 593.715C505.304 593.715 519.302 593.154 522.08 594.896C524.857 596.639 537.419 623.031 535.525 624.968C533.632 626.904 528.455 626.304 528.613 624.174C528.771 622.044 517.045 607.889 517.045 607.889L507.924 605.43L505.304 593.715Z" fill="white"/>
<mask id="mask11_1_3" style="mask-type:luminance" maskUnits="userSpaceOnUse" x="505" y="593" width="31" height="34">
<path d="M505.304 593.715C505.304 593.715 519.302 593.154 522.08 594.896C524.857 596.639 537.419 623.031 535.525 624.968C533.632 626.904 528.455 626.304 528.613 624.174C528.771 622.044 517.045 607.889 517.045 607.889L507.924 605.43L505.304 593.715Z" fill="white"/>
</mask>
<g mask="url(#mask11_1_3)">
<path d="M505.304 593.715C505.304 593.715 519.302 593.154 522.08 594.896C524.857 596.639 537.419 623.031 535.525 624.968C533.632 626.904 528.455 626.304 528.613 624.174C528.771 622.044 517.045 607.889 517.045 607.889L507.924 605.43L505.304 593.715Z" fill="#FF725E"/>
<path opacity="0.5" d="M505.304 593.715C505.304 593.715 519.302 593.154 522.08 594.896C524.857 596.639 537.419 623.031 535.525 624.968C533.632 626.904 528.455 626.304 528.613 624.174C528.771 622.044 517.045 607.889 517.045 607.889L507.924 605.43L505.304 593.715Z" fill="white"/>
</g>
<path d="M505.304 593.715C505.304 593.715 519.302 593.154 522.08 594.896C524.857 596.639 537.419 623.031 535.525 624.968C533.632 626.904 528.455 626.304 528.613 624.174C528.771 622.044 517.045 607.889 517.045 607.889L507.924 605.43L505.304 593.715Z" stroke="#263238" strokeLinecap="round" strokeLinejoin="round"/>
<path d="M346.15 495.311C356.282 514.461 376.624 562.986 382.558 568.446C391.821 576.966 453.747 597.646 459.712 603.3C465.678 608.955 465.267 614.628 470.917 616.7C476.567 618.772 497.745 624.716 505.825 625.646C513.905 626.575 510.291 620.437 510.291 620.437L496.514 608.819L508.524 605.179C508.524 605.179 520.565 622.954 522.821 623.923C525.078 624.891 529.055 623.923 528.803 621.734C528.361 618.23 515.515 589.552 510.954 588.332C506.393 587.113 478.713 591.818 478.713 591.818C478.713 591.818 420.654 543.777 419.612 542.073C419.612 542.073 416.14 529.99 413.3 525.014C410.459 520.038 408.66 521.471 408.66 521.471C408.66 521.471 409.828 515.061 408.092 512.931L398.828 501.565L398.497 502.107C396.919 498.234 395.34 493.82 393.605 488.785C388.76 474.785 371.605 435.497 368.718 429.823C366.555 425.583 348.439 422.543 339.254 421.265" fill="#FF725E"/>
<mask id="mask12_1_3" style="mask-type:luminance" maskUnits="userSpaceOnUse" x="339" y="421" width="190" height="205">
<path d="M346.15 495.311C356.282 514.461 376.624 562.986 382.558 568.446C391.821 576.966 453.747 597.646 459.712 603.3C465.678 608.955 465.267 614.628 470.917 616.7C476.567 618.772 497.745 624.716 505.825 625.646C513.905 626.575 510.291 620.437 510.291 620.437L496.514 608.819L508.524 605.179C508.524 605.179 520.565 622.954 522.821 623.923C525.078 624.891 529.055 623.923 528.803 621.734C528.361 618.23 515.515 589.552 510.954 588.332C506.393 587.113 478.713 591.818 478.713 591.818C478.713 591.818 420.654 543.777 419.612 542.073C419.612 542.073 416.14 529.99 413.3 525.014C410.459 520.038 408.66 521.471 408.66 521.471C408.66 521.471 409.828 515.061 408.092 512.931L398.828 501.565L398.497 502.107C396.919 498.234 395.34 493.82 393.605 488.785C388.76 474.785 371.605 435.497 368.718 429.823C366.555 425.583 348.439 422.543 339.254 421.265" fill="white"/>
</mask>
<g mask="url(#mask12_1_3)">
<path opacity="0.16" d="M386.487 496.53C394.062 504.779 391.537 504.779 389.849 512.021C388.16 519.263 391.111 509.446 398.26 509.969C405.409 510.491 403.31 521.819 402.458 523.891C401.606 525.963 411.295 528.538 409.607 533.166C407.918 537.794 398.26 544.513 392.8 551.232C387.339 557.951 407.082 540.389 413.805 539.885C415.856 539.711 417.545 540.04 418.965 540.001C417.475 534.82 415.561 529.838 413.252 525.13C410.348 520.154 408.613 521.587 408.613 521.587C408.613 521.587 409.78 515.177 408.044 513.047L398.781 501.681L398.449 502.223C396.871 498.351 395.293 493.936 393.557 488.901C388.712 474.901 371.558 435.613 368.67 429.939C366.508 425.699 348.391 422.659 339.207 421.381L340.043 430.346L340.248 430.54C340.248 430.54 351.595 433.115 355.382 433.638C359.17 434.161 363.794 438.266 363.368 441.383C362.942 444.501 352.021 458.404 355.382 459.449C358.744 460.495 362.531 449.129 366.319 450.678C370.106 452.227 378.865 488.282 386.487 496.53Z" fill="black"/>
</g>
<path d="M346.15 495.311C356.282 514.461 376.624 562.986 382.558 568.446C391.821 576.966 453.747 597.646 459.712 603.3C465.678 608.955 465.267 614.628 470.917 616.7C476.567 618.772 497.745 624.716 505.825 625.646C513.905 626.575 510.291 620.437 510.291 620.437L496.514 608.819L508.524 605.179C508.524 605.179 520.565 622.954 522.821 623.923C525.078 624.891 529.055 623.923 528.803 621.734C528.361 618.23 515.515 589.552 510.954 588.332C506.393 587.113 478.713 591.818 478.713 591.818C478.713 591.818 420.654 543.777 419.612 542.073C419.612 542.073 416.14 529.99 413.3 525.014C410.459 520.038 408.66 521.471 408.66 521.471C408.66 521.471 409.828 515.061 408.092 512.931L398.828 501.565L398.497 502.107C396.919 498.234 395.34 493.82 393.605 488.785C388.76 474.785 371.605 435.497 368.718 429.823C366.555 425.583 348.439 422.543 339.254 421.265" stroke="#263238" strokeLinecap="round" strokeLinejoin="round"/>
<path d="M346.308 469.035C345.882 470.778 345.519 472.521 345.235 474.302" stroke="#263238" strokeLinecap="round" strokeLinejoin="round"/>
<path d="M361.648 436.988C356.689 443.924 352.506 451.64 349.212 459.934" stroke="#263238" strokeLinecap="round" strokeLinejoin="round"/>
<path d="M384.831 546.934C389.092 539.188 395.877 529.371 403.358 526.563" stroke="#263238" strokeLinecap="round" strokeLinejoin="round"/>
<path d="M380.112 556.46C380.112 556.46 380.869 554.64 382.226 551.891" stroke="#263238" strokeLinecap="round" strokeLinejoin="round"/>
<path d="M380.112 544.224C380.112 544.224 387.86 520.445 395.609 514.327C403.358 508.208 398.923 520.445 398.923 520.445" stroke="#263238" strokeLinecap="round" strokeLinejoin="round"/>
<path d="M459.713 603.319C465.694 608.993 465.268 614.647 470.917 616.719C476.567 618.791 497.746 624.735 505.826 625.665C513.906 626.594 510.292 620.456 510.292 620.456L496.515 608.838L508.524 605.198C508.524 605.198 520.565 622.973 522.822 623.942C525.079 624.91 529.371 625.258 528.803 621.753C527.698 614.976 515.515 589.571 510.954 588.352C506.394 587.132 478.713 591.837 478.713 591.837C478.713 591.837 425.83 547.301 420.039 542.479C397.582 545.132 386.898 559.558 382.4 568.214L382.558 568.368C391.822 576.966 453.747 597.646 459.713 603.319Z" fill="white"/>
<mask id="mask13_1_3" style="mask-type:luminance" maskUnits="userSpaceOnUse" x="382" y="542" width="147" height="84">
<path d="M459.713 603.319C465.694 608.993 465.268 614.647 470.917 616.719C476.567 618.791 497.746 624.735 505.826 625.665C513.906 626.594 510.292 620.456 510.292 620.456L496.515 608.838L508.524 605.198C508.524 605.198 520.565 622.973 522.822 623.942C525.079 624.91 529.371 625.258 528.803 621.753C527.698 614.976 515.515 589.571 510.954 588.352C506.394 587.132 478.713 591.837 478.713 591.837C478.713 591.837 425.83 547.301 420.039 542.479C397.582 545.132 386.898 559.558 382.4 568.214L382.558 568.368C391.822 576.966 453.747 597.646 459.713 603.319Z" fill="white"/>
</mask>
<g mask="url(#mask13_1_3)">
<path d="M528.787 621.832C525.915 613.215 515.499 589.65 510.939 588.43C506.378 587.21 478.698 591.915 478.698 591.915C478.698 591.915 425.815 547.379 420.023 542.558C414.129 543.187 408.345 544.903 402.869 547.65C411.217 553.459 466.862 592.186 473.884 593.909C481.333 595.846 506.189 590.831 510.56 594.432C513.337 596.717 521.607 612.808 527.193 624.233C528.787 623.942 529.371 623.574 528.787 621.832Z" fill="#FF725E"/>
<path opacity="0.5" d="M528.787 621.832C524.305 609.497 515.499 589.65 510.939 588.43C506.378 587.21 478.698 591.915 478.698 591.915C478.698 591.915 425.815 547.379 420.023 542.558C414.129 543.187 408.345 544.903 402.869 547.65C411.217 553.459 466.862 592.186 473.884 593.909C481.333 595.846 506.189 590.831 510.56 594.432C513.337 596.717 521.607 612.808 527.193 624.233C528.787 623.942 529.419 623.555 528.787 621.832Z" fill="white"/>
</g>
<path d="M459.713 603.319C465.694 608.993 465.268 614.647 470.917 616.719C476.567 618.791 497.746 624.735 505.826 625.665C513.906 626.594 510.292 620.456 510.292 620.456L496.515 608.838L508.524 605.198C508.524 605.198 520.565 622.973 522.822 623.942C525.079 624.91 529.371 625.258 528.803 621.753C527.698 614.976 515.515 589.571 510.954 588.352C506.394 587.132 478.713 591.837 478.713 591.837C478.713 591.837 425.83 547.301 420.039 542.479C397.582 545.132 386.898 559.558 382.4 568.214L382.558 568.368C391.822 576.966 453.747 597.646 459.713 603.319Z" stroke="#263238" strokeLinecap="round" strokeLinejoin="round"/>
<path d="M320.238 265.195L272.705 289.535C272.129 299.785 270.06 309.826 266.597 319.181C260.979 333.761 264.262 361.354 269.659 376.245C275.056 391.135 298.838 385.307 307.534 383.448C313.432 382.071 319.208 380.003 324.783 377.271C327.321 378.471 330.067 378.86 332.762 378.399C335.456 377.938 338.011 376.644 340.185 374.638C340.185 374.638 314.746 287.018 320.238 265.195Z" fill="white"/>
<mask id="mask14_1_3" style="mask-type:luminance" maskUnits="userSpaceOnUse" x="263" y="265" width="78" height="122">
<path d="M320.238 265.195L272.705 289.535C272.129 299.785 270.06 309.826 266.597 319.181C260.979 333.761 264.262 361.354 269.659 376.245C275.056 391.135 298.838 385.307 307.534 383.448C313.432 382.071 319.208 380.003 324.783 377.271C327.321 378.471 330.067 378.86 332.762 378.399C335.456 377.938 338.011 376.644 340.185 374.638C340.185 374.638 314.746 287.018 320.238 265.195Z" fill="white"/>
</mask>
<g mask="url(#mask14_1_3)">
<path d="M320.238 265.195L272.705 289.535C272.129 299.785 270.06 309.826 266.597 319.181C260.979 333.761 264.262 361.354 269.659 376.245C270.562 378.639 272.016 380.658 273.841 382.054V380.931C273.841 380.931 265.019 354.112 266.692 338.641C268.365 323.169 275.53 315.405 276.366 305.626C277.202 295.848 276.776 291.2 292.763 283.978C308.749 276.755 315.456 270.056 317.129 277.259C318.802 284.462 325.54 331.941 330.164 343.288C334.788 354.635 334.362 366.524 327.229 371.656C320.02 376.966 312.295 381.142 304.236 384.087L307.597 383.37C313.495 381.994 319.271 379.925 324.846 377.194C327.385 378.394 330.13 378.782 332.825 378.321C335.519 377.861 338.074 376.566 340.248 374.56C340.248 374.56 314.746 287.018 320.238 265.195Z" fill="#FF725E"/>
<path opacity="0.5" d="M320.238 265.195L272.705 289.535C272.129 299.785 270.06 309.826 266.597 319.181C260.979 333.761 264.262 361.354 269.659 376.245C270.562 378.639 272.016 380.658 273.841 382.054V380.931C273.841 380.931 265.019 354.112 266.692 338.641C268.365 323.169 275.53 315.405 276.366 305.626C277.202 295.848 276.776 291.2 292.763 283.978C308.749 276.755 315.456 270.056 317.129 277.259C318.802 284.462 325.54 331.941 330.164 343.288C334.788 354.635 334.362 366.524 327.229 371.656C320.02 376.966 312.295 381.142 304.236 384.087L307.597 383.37C313.495 381.994 319.271 379.925 324.846 377.194C327.385 378.394 330.13 378.782 332.825 378.321C335.519 377.861 338.074 376.566 340.248 374.56C340.248 374.56 314.746 287.018 320.238 265.195Z" fill="white"/>
</g>
<path d="M320.238 265.195L272.705 289.535C272.129 299.785 270.06 309.826 266.597 319.181C260.979 333.761 264.262 361.354 269.659 376.245C275.056 391.135 298.838 385.307 307.534 383.448C313.432 382.071 319.208 380.003 324.783 377.271C327.321 378.471 330.067 378.86 332.762 378.399C335.456 377.938 338.011 376.644 340.185 374.638C340.185 374.638 314.746 287.018 320.238 265.195Z" stroke="#263238" strokeLinecap="round" strokeLinejoin="round"/>
<path d="M296.218 303.361C296.347 306.79 296 310.221 295.193 313.508C293.93 317.38 282.015 332.6 282.378 334.246C282.741 335.892 283.814 341.178 285.929 341.682" stroke="#263238" strokeLinecap="round" strokeLinejoin="round"/>
<path d="M309.427 316.973C311.084 312.906 316.529 316.876 316.45 326.035" stroke="#263238" strokeLinecap="round" strokeLinejoin="round"/>
<path d="M282.442 305.007C282.442 305.007 287.082 302.509 291.232 311.726" stroke="#263238" strokeLinecap="round" strokeLinejoin="round"/>
<path d="M302.831 330.393C308.192 330.724 313.29 333.348 317.239 337.809" stroke="#263238" stroke-width="0.5" strokeLinecap="round" strokeLinejoin="round"/>
<path d="M276.839 318.29C279.611 318.744 282.319 319.663 284.888 321.02" stroke="#263238" stroke-width="0.5" strokeLinecap="round" strokeLinejoin="round"/>
<path d="M295.698 294.763C294.472 293.968 293.113 293.533 291.728 293.493C290.342 293.452 288.967 293.808 287.713 294.53C283.467 297.028 280.864 299.778 281.148 296.583C281.432 293.388 286.418 289.864 287.918 289.399C289.417 288.934 296.124 287.656 295.698 294.763Z" fill="#263238"/>
<path d="M307.597 287.541C312.021 291.933 315.536 297.546 317.855 303.922C321.011 313.604 323.505 303.032 321.011 296.7C318.518 290.368 311.306 283.629 307.597 287.541Z" fill="#263238"/>
<path d="M340.879 391.193C340.879 395.705 338.796 399.365 336.24 399.365C333.683 399.365 331.616 395.705 331.616 391.193C331.616 386.682 333.683 375.199 336.24 375.199C338.796 375.199 340.879 386.682 340.879 391.193Z" fill="#FF725E" stroke="#263238" strokeLinecap="round" strokeLinejoin="round"/>
<path d="M309.838 315.211C309.656 315.803 309.514 316.411 309.412 317.031C308.954 319.897 308.496 325.88 309.412 326.132C310.327 326.384 312.568 320.788 312.963 317.922C313.051 317.36 313.104 316.79 313.12 316.218C312.043 315.803 310.947 315.467 309.838 315.211Z" fill="#263238"/>
<path d="M282.915 304.445C282.775 304.952 282.664 305.469 282.584 305.995C282.11 308.86 282.126 315.153 283.12 315.386C284.115 315.618 285.74 309.732 286.198 306.866C286.312 306.171 286.375 305.464 286.387 304.755C285.257 304.374 284.078 304.269 282.915 304.445Z" fill="#263238"/>
<path d="M309.428 317.07L311.006 313.469C313.508 314.067 315.775 315.676 317.445 318.038" stroke="#263238" stroke-width="0.75" strokeLinecap="round" strokeLinejoin="round"/>
<path d="M282.915 304.445L284.493 302.18C284.493 302.18 285.172 301.773 288.896 303.845" stroke="#263238" stroke-width="0.75" strokeLinecap="round" strokeLinejoin="round"/>
<path d="M276.934 356.959C276.934 356.959 279.585 350.976 283.136 350.976C286.687 350.976 289.338 360.754 289.338 360.754" stroke="#263238" strokeLinecap="round" strokeLinejoin="round"/>
<path d="M162.662 614.996C159.231 614.786 155.86 613.802 152.72 612.091C152.282 611.892 151.882 611.586 151.543 611.192C151.205 610.797 150.935 610.322 150.751 609.796C150.567 609.27 150.473 608.703 150.473 608.13C150.473 607.557 150.568 606.99 150.753 606.464C150.937 605.938 151.207 605.463 151.545 605.069C151.884 604.675 152.285 604.369 152.723 604.171C153.161 603.973 153.627 603.886 154.093 603.916C154.559 603.946 155.016 604.092 155.434 604.346C158.591 605.992 162.678 607.018 163.767 606.437C165.771 603.687 168.848 587.073 164.871 579.057C163.972 577.276 163.136 576.946 162.583 576.869C160.326 576.482 156.981 579.328 155.797 580.742C155.468 581.123 155.08 581.421 154.657 581.619C154.233 581.816 153.782 581.91 153.33 581.894C152.877 581.877 152.431 581.752 152.018 581.524C151.604 581.297 151.232 580.972 150.921 580.567C150.61 580.163 150.367 579.687 150.206 579.168C150.045 578.648 149.969 578.095 149.982 577.54C149.995 576.984 150.097 576.437 150.283 575.93C150.468 575.423 150.733 574.965 151.063 574.584C151.678 573.848 157.375 567.555 163.451 568.562C164.958 568.832 166.394 569.524 167.648 570.586C168.901 571.647 169.938 573.048 170.679 574.681C176.534 586.396 172.525 608.683 168.028 613.098C166.465 614.455 164.574 615.123 162.662 614.996Z" fill="white"/>
<mask id="mask15_1_3" style="mask-type:luminance" maskUnits="userSpaceOnUse" x="149" y="568" width="25" height="48">
<path d="M162.662 614.996C159.231 614.786 155.86 613.802 152.72 612.091C152.282 611.892 151.882 611.586 151.543 611.192C151.205 610.797 150.935 610.322 150.751 609.796C150.567 609.27 150.473 608.703 150.473 608.13C150.473 607.557 150.568 606.99 150.753 606.464C150.937 605.938 151.207 605.463 151.545 605.069C151.884 604.675 152.285 604.369 152.723 604.171C153.161 603.973 153.627 603.886 154.093 603.916C154.559 603.946 155.016 604.092 155.434 604.346C158.591 605.992 162.678 607.018 163.767 606.437C165.771 603.687 168.848 587.073 164.871 579.057C163.972 577.276 163.136 576.946 162.583 576.869C160.326 576.482 156.981 579.328 155.797 580.742C155.468 581.123 155.08 581.421 154.657 581.619C154.233 581.816 153.782 581.91 153.33 581.894C152.877 581.877 152.431 581.752 152.018 581.524C151.604 581.297 151.232 580.972 150.921 580.567C150.61 580.163 150.367 579.687 150.206 579.168C150.045 578.648 149.969 578.095 149.982 577.54C149.995 576.984 150.097 576.437 150.283 575.93C150.468 575.423 150.733 574.965 151.063 574.584C151.678 573.848 157.375 567.555 163.451 568.562C164.958 568.832 166.394 569.524 167.648 570.586C168.901 571.647 169.938 573.048 170.679 574.681C176.534 586.396 172.525 608.683 168.028 613.098C166.465 614.455 164.574 615.123 162.662 614.996Z" fill="white"/>
</mask>
<g mask="url(#mask15_1_3)">
<path d="M167.286 577.779C166.872 576.576 166.224 575.516 165.399 574.693C164.573 573.869 163.596 573.306 162.552 573.054C158.606 572.28 154.898 577.14 154.487 577.682C154.11 578.239 153.877 578.922 153.818 579.643C153.759 580.364 153.877 581.091 154.156 581.729C154.777 581.576 155.351 581.214 155.813 580.683C156.997 579.328 160.342 576.481 162.599 576.811C163.151 576.811 163.988 577.217 164.887 578.999C168.864 586.938 165.787 603.629 163.783 606.379C162.694 606.96 158.622 605.933 155.45 604.287C155.06 604.086 154.642 603.974 154.219 603.958C154.248 604.489 154.384 605.002 154.616 605.452C154.847 605.902 155.167 606.274 155.545 606.534C157.54 607.841 159.741 608.607 161.999 608.78C163.288 608.856 164.55 608.314 165.518 607.269C168.485 603.919 171.105 586.783 167.286 577.779Z" fill="#92E3A9"/>
<path opacity="0.5" d="M167.286 577.779C166.872 576.576 166.224 575.516 165.399 574.693C164.573 573.869 163.596 573.306 162.552 573.054C158.606 572.28 154.898 577.14 154.487 577.682C154.11 578.239 153.877 578.922 153.818 579.643C153.759 580.364 153.877 581.091 154.156 581.729C154.777 581.576 155.351 581.214 155.813 580.683C156.997 579.328 160.342 576.481 162.599 576.811C163.151 576.811 163.988 577.217 164.887 578.999C168.864 586.938 165.787 603.629 163.783 606.379C162.694 606.96 158.622 605.933 155.45 604.287C155.06 604.086 154.642 603.974 154.219 603.958C154.248 604.489 154.384 605.002 154.616 605.452C154.847 605.902 155.167 606.274 155.545 606.534C157.54 607.841 159.741 608.607 161.999 608.78C163.288 608.856 164.55 608.314 165.518 607.269C168.485 603.919 171.105 586.783 167.286 577.779Z" fill="white"/>
</g>
<path d="M162.662 614.996C159.231 614.786 155.86 613.802 152.72 612.091C152.282 611.892 151.882 611.586 151.543 611.192C151.205 610.797 150.935 610.322 150.751 609.796C150.567 609.27 150.473 608.703 150.473 608.13C150.473 607.557 150.568 606.99 150.753 606.464C150.937 605.938 151.207 605.463 151.545 605.069C151.884 604.675 152.285 604.37 152.723 604.171C153.161 603.973 153.627 603.886 154.093 603.916C154.559 603.946 155.016 604.092 155.434 604.346C158.591 605.992 162.678 607.018 163.767 606.437C165.771 603.687 168.848 587.073 164.871 579.057C163.972 577.276 163.136 576.946 162.583 576.869C160.326 576.482 156.981 579.328 155.797 580.742C155.468 581.123 155.08 581.421 154.657 581.619C154.233 581.816 153.782 581.91 153.33 581.894C152.877 581.877 152.431 581.752 152.018 581.524C151.604 581.297 151.232 580.972 150.921 580.567C150.61 580.163 150.367 579.687 150.206 579.168C150.045 578.648 149.969 578.095 149.982 577.54C149.995 576.984 150.097 576.437 150.283 575.93C150.468 575.423 150.733 574.965 151.063 574.584C151.678 573.848 157.375 567.555 163.451 568.562C164.958 568.832 166.394 569.524 167.648 570.586C168.901 571.647 169.938 573.048 170.679 574.681C176.534 586.396 172.525 608.683 168.028 613.098C166.465 614.455 164.574 615.123 162.662 614.996Z" stroke="#263238" strokeLinecap="round" strokeLinejoin="round"/>
<path d="M156.634 565.038H118.68V626.846H156.634V565.038Z" fill="white"/>
<mask id="mask16_1_3" style="mask-type:luminance" maskUnits="userSpaceOnUse" x="118" y="565" width="39" height="62">
<path d="M156.634 565.038H118.68V626.846H156.634V565.038Z" fill="white"/>
</mask>
<g mask="url(#mask16_1_3)">
<path d="M134.224 565.038H118.68V626.846H134.224V565.038Z" fill="#92E3A9"/>
<path opacity="0.5" d="M134.224 565.038H118.68V626.846H134.224V565.038Z" fill="white"/>
</g>
<path d="M156.634 565.038H118.68V626.846H156.634V565.038Z" stroke="#263238" strokeLinecap="round" strokeLinejoin="round"/>
<path d="M365.199 625.995H203.062L197.775 516.63C197.629 515.569 197.672 514.483 197.902 513.445C198.131 512.407 198.541 511.442 199.104 510.618C199.666 509.793 200.368 509.128 201.16 508.668C201.953 508.209 202.817 507.965 203.693 507.955H364.504C365.386 507.954 366.257 508.189 367.057 508.644C367.857 509.099 368.567 509.762 369.137 510.588C369.706 511.414 370.122 512.383 370.355 513.426C370.588 514.47 370.632 515.563 370.485 516.63L365.199 625.995Z" fill="#263238" stroke="#263238" strokeLinecap="round" strokeLinejoin="round"/>
<path d="M211.047 510.569H363.336C364.197 510.558 365.049 510.778 365.832 511.213C366.616 511.649 367.313 512.289 367.873 513.09C368.434 513.891 368.845 514.832 369.079 515.848C369.312 516.864 369.361 517.931 369.223 518.972" stroke="white" strokeLinecap="round" strokeLinejoin="round"/>
<path d="M198.959 517.25C199.086 515.42 199.771 513.716 200.876 512.477C201.982 511.239 203.427 510.558 204.924 510.569" stroke="white" strokeLinecap="round" strokeLinejoin="round"/>
<path d="M365.877 615.345H202.383V625.995H365.877V615.345Z" fill="white" stroke="#263238" strokeLinecap="round" strokeLinejoin="round"/>
<path d="M283.546 575.921C289.944 575.921 295.13 572.106 295.13 567.401C295.13 562.695 289.944 558.881 283.546 558.881C277.149 558.881 271.963 562.695 271.963 567.401C271.963 572.106 277.149 575.921 283.546 575.921Z" fill="white" stroke="#263238" strokeLinecap="round" strokeLinejoin="round"/>
<path d="M612.475 624.736H3.53955V642.88H612.475V624.736Z" fill="#263238"/>
<path d="M530.411 95.6C533.113 96.2013 535.716 97.1815 538.144 98.5117C540.468 99.7614 542.552 101.415 544.296 103.396C545.965 105.301 547.204 107.544 547.928 109.971C548.666 112.569 548.72 115.314 548.084 117.939C547.664 120.02 546.84 121.999 545.658 123.762C544.579 125.27 543.293 126.619 541.838 127.77C540.41 128.879 538.885 129.858 537.283 130.697L532.774 133.092C531.416 133.8 530.127 134.634 528.923 135.581C527.834 136.416 527 137.538 526.513 138.822C526.274 139.408 525.879 139.917 525.37 140.293C525.129 140.48 524.849 140.61 524.551 140.672C524.252 140.735 523.943 140.728 523.648 140.653L517.01 139.182C516.691 139.115 516.388 138.985 516.119 138.799C515.85 138.614 515.621 138.376 515.445 138.101C515.258 137.846 515.133 137.55 515.081 137.237C515.03 136.924 515.052 136.604 515.148 136.301C515.682 134.246 516.624 132.318 517.918 130.634C519.099 129.145 520.467 127.814 521.989 126.674C523.471 125.589 525.042 124.631 526.685 123.809C528.25 123.011 529.816 122.244 531.178 121.477C532.445 120.796 533.636 119.982 534.731 119.05C535.692 118.246 536.359 117.144 536.625 115.919C536.874 114.856 536.862 113.748 536.589 112.69C536.317 111.632 535.792 110.656 535.06 109.845C533.229 107.847 530.783 106.519 528.109 106.073C523.163 104.977 518.988 106.642 515.586 111.066C515.257 111.549 514.844 111.969 514.365 112.303C513.824 112.571 513.201 112.616 512.627 112.428L505.567 110.863C505.064 110.766 504.619 110.473 504.33 110.049C504.176 109.822 504.073 109.565 504.027 109.295C503.981 109.025 503.994 108.748 504.064 108.484C504.664 106.308 505.782 104.31 507.32 102.66C509.056 100.746 511.118 99.1561 513.41 97.9638C515.916 96.6526 518.617 95.754 521.409 95.3026C524.401 94.816 527.458 94.917 530.411 95.6ZM522.912 145.976C523.533 146.121 524.072 146.504 524.415 147.043C524.757 147.581 524.875 148.232 524.744 148.856L523.053 156.527C522.996 156.848 522.871 157.153 522.688 157.423C522.505 157.693 522.266 157.921 521.989 158.092C521.727 158.273 521.43 158.397 521.117 158.456C520.804 158.515 520.483 158.509 520.173 158.436L512.596 156.699C512.274 156.644 511.967 156.521 511.697 156.338C511.427 156.154 511.199 155.914 511.031 155.634C510.855 155.37 510.735 155.072 510.679 154.76C510.622 154.448 510.63 154.128 510.702 153.818L512.408 146.148C512.554 145.526 512.936 144.985 513.474 144.641C514.012 144.296 514.662 144.174 515.289 144.301L522.912 145.976Z" fill="white"/>
<path d="M538.77 169.034C540.655 168.732 542.573 168.695 544.468 168.925C546.278 169.14 548.037 169.67 549.665 170.49C551.216 171.295 552.581 172.414 553.673 173.778C554.654 175.112 555.346 176.637 555.701 178.255C556.057 179.873 556.07 181.547 555.739 183.17C555.441 184.418 554.961 185.615 554.314 186.724C553.692 187.802 552.968 188.819 552.154 189.761C551.356 190.7 550.589 191.592 549.884 192.453C549.195 193.255 548.582 194.12 548.053 195.036C547.557 195.839 547.306 196.77 547.333 197.713C547.319 198.154 547.195 198.585 546.973 198.966C546.859 199.141 546.71 199.29 546.535 199.404C546.359 199.517 546.162 199.592 545.955 199.623L541.259 200.374C541.039 200.414 540.814 200.41 540.596 200.361C540.379 200.313 540.173 200.222 539.991 200.093C539.806 199.976 539.651 199.818 539.54 199.63C539.428 199.442 539.363 199.231 539.349 199.012C539.152 197.556 539.259 196.074 539.662 194.661C540.03 193.409 540.556 192.21 541.227 191.091C541.886 190.018 542.64 189.007 543.482 188.07C544.311 187.131 545.047 186.254 545.767 185.409C546.41 184.654 546.967 183.83 547.427 182.951C547.834 182.195 547.982 181.326 547.849 180.478C547.732 179.731 547.435 179.024 546.986 178.416C546.536 177.808 545.946 177.318 545.266 176.987C543.583 176.174 541.678 175.943 539.85 176.329C538.194 176.571 536.654 177.32 535.441 178.472C534.227 179.624 533.4 181.123 533.072 182.763C532.98 183.158 532.821 183.534 532.602 183.875C532.323 184.172 531.944 184.356 531.537 184.391L526.591 185.19C526.243 185.256 525.883 185.183 525.589 184.986C525.438 184.883 525.311 184.748 525.217 184.591C525.122 184.435 525.062 184.26 525.041 184.078C524.894 182.525 525.136 180.959 525.745 179.523C526.364 177.851 527.276 176.304 528.438 174.952C529.711 173.472 531.212 172.203 532.884 171.195C534.688 170.101 536.687 169.367 538.77 169.034ZM546.847 203.239C547.063 203.205 547.283 203.214 547.495 203.265C547.708 203.316 547.908 203.408 548.084 203.537C548.269 203.658 548.425 203.817 548.544 204.003C548.663 204.189 548.741 204.398 548.773 204.617L549.65 209.986C549.717 210.422 549.611 210.866 549.353 211.224C549.095 211.582 548.707 211.823 548.272 211.896L543.028 212.757C542.592 212.824 542.148 212.717 541.791 212.46C541.609 212.337 541.456 212.177 541.34 211.991C541.224 211.805 541.148 211.597 541.118 211.379L540.241 206.01C540.202 205.794 540.207 205.573 540.259 205.36C540.31 205.147 540.405 204.947 540.539 204.773C540.662 204.592 540.821 204.438 541.007 204.322C541.193 204.206 541.402 204.13 541.619 204.1L546.847 203.239Z" fill="white"/>
<g opacity="0.2">
<path d="M538.77 169.034C540.655 168.732 542.573 168.695 544.468 168.925C546.278 169.14 548.037 169.67 549.665 170.49C551.216 171.295 552.581 172.414 553.673 173.778C554.654 175.112 555.346 176.637 555.701 178.255C556.057 179.873 556.07 181.547 555.739 183.17C555.441 184.418 554.961 185.615 554.314 186.724C553.692 187.802 552.968 188.819 552.154 189.761C551.356 190.7 550.589 191.592 549.884 192.453C549.195 193.255 548.582 194.12 548.053 195.036C547.557 195.839 547.306 196.77 547.333 197.713C547.319 198.154 547.195 198.585 546.973 198.966C546.859 199.141 546.71 199.29 546.535 199.404C546.359 199.517 546.162 199.592 545.955 199.623L541.259 200.374C541.039 200.414 540.814 200.41 540.596 200.361C540.379 200.313 540.173 200.222 539.991 200.093C539.806 199.976 539.651 199.818 539.54 199.63C539.428 199.442 539.363 199.231 539.349 199.012C539.152 197.556 539.259 196.074 539.662 194.661C540.03 193.409 540.556 192.21 541.227 191.091C541.886 190.018 542.64 189.007 543.482 188.07C544.311 187.131 545.047 186.254 545.767 185.409C546.41 184.654 546.967 183.83 547.427 182.951C547.834 182.195 547.982 181.326 547.849 180.478C547.732 179.731 547.435 179.024 546.986 178.416C546.536 177.808 545.946 177.318 545.266 176.987C543.583 176.174 541.678 175.943 539.85 176.329C538.194 176.571 536.654 177.32 535.441 178.472C534.227 179.624 533.4 181.123 533.072 182.763C532.98 183.158 532.821 183.534 532.602 183.875C532.323 184.172 531.944 184.356 531.537 184.391L526.591 185.19C526.243 185.256 525.883 185.183 525.589 184.986C525.438 184.883 525.311 184.748 525.217 184.591C525.122 184.435 525.062 184.26 525.041 184.078C524.894 182.525 525.136 180.959 525.745 179.523C526.364 177.851 527.276 176.304 528.438 174.952C529.711 173.472 531.212 172.203 532.884 171.195C534.688 170.101 536.687 169.367 538.77 169.034ZM546.847 203.239C547.063 203.205 547.283 203.214 547.495 203.265C547.708 203.316 547.908 203.408 548.084 203.537C548.269 203.658 548.425 203.817 548.544 204.003C548.663 204.189 548.741 204.398 548.773 204.617L549.65 209.986C549.717 210.422 549.611 210.866 549.353 211.224C549.095 211.582 548.707 211.823 548.272 211.896L543.028 212.757C542.592 212.824 542.148 212.717 541.791 212.46C541.609 212.337 541.456 212.177 541.34 211.991C541.224 211.805 541.148 211.597 541.118 211.379L540.241 206.01C540.202 205.794 540.207 205.573 540.259 205.36C540.31 205.147 540.405 204.947 540.539 204.773C540.662 204.592 540.821 204.438 541.007 204.322C541.193 204.206 541.402 204.13 541.619 204.1L546.847 203.239Z" fill="white"/>
</g>
<path d="M583.04 177.472C583.254 177.62 583.434 177.81 583.572 178.031C583.709 178.252 583.8 178.498 583.839 178.755C583.888 179.01 583.885 179.272 583.828 179.526C583.772 179.779 583.663 180.018 583.51 180.227L579.784 185.471C579.636 185.684 579.445 185.865 579.225 186.003C579.004 186.14 578.757 186.231 578.5 186.269C578.246 186.319 577.983 186.316 577.73 186.259C577.477 186.203 577.238 186.094 577.029 185.941L571.894 182.293C571.68 182.147 571.5 181.957 571.365 181.735C571.23 181.514 571.144 181.267 571.112 181.01C571.062 180.755 571.065 180.493 571.122 180.239C571.178 179.986 571.287 179.747 571.44 179.538L575.213 174.294C575.518 173.869 575.978 173.581 576.494 173.493C577.01 173.405 577.54 173.524 577.968 173.824L583.04 177.472ZM604.706 141.952C606.578 143.264 608.245 144.847 609.653 146.648C611.025 148.324 612.086 150.233 612.783 152.284C613.433 154.249 613.652 156.332 613.425 158.389C613.16 160.583 612.329 162.671 611.014 164.447C610.038 165.884 608.781 167.108 607.32 168.048C606.034 168.854 604.636 169.466 603.172 169.864C601.745 170.237 600.289 170.488 598.82 170.615L594.656 170.991C593.407 171.091 592.17 171.305 590.961 171.633C589.846 171.886 588.825 172.45 588.018 173.261C587.654 173.631 587.193 173.891 586.688 174.012C586.447 174.081 586.194 174.091 585.949 174.042C585.704 173.993 585.474 173.886 585.279 173.73L580.739 170.506C580.305 170.196 580.008 169.73 579.909 169.206C579.851 168.952 579.853 168.688 579.915 168.435C579.978 168.182 580.099 167.948 580.269 167.75C581.33 166.374 582.655 165.225 584.167 164.369C585.529 163.626 586.981 163.063 588.488 162.694C589.942 162.341 591.425 162.116 592.918 162.021C594.39 161.927 595.767 161.817 597.051 161.692C598.226 161.588 599.386 161.357 600.51 161.003C601.494 160.676 602.342 160.032 602.921 159.172C603.444 158.446 603.785 157.604 603.913 156.718C604.041 155.832 603.953 154.929 603.657 154.084C602.916 151.998 601.5 150.218 599.634 149.028C596.252 146.617 592.563 146.539 588.566 148.793C588.164 149.049 587.718 149.229 587.251 149.325C587.008 149.342 586.764 149.311 586.533 149.233C586.302 149.155 586.088 149.032 585.905 148.871L581.083 145.443C580.909 145.327 580.759 145.177 580.644 145.002C580.528 144.828 580.449 144.631 580.41 144.425C580.373 144.212 580.38 143.994 580.431 143.784C580.482 143.574 580.576 143.376 580.708 143.204C581.845 141.747 583.324 140.591 585.013 139.839C586.931 138.969 588.987 138.44 591.087 138.273C593.397 138.08 595.723 138.265 597.974 138.821C600.404 139.407 602.693 140.471 604.706 141.952Z" fill="white"/>
<g opacity="0.6">
<path d="M583.04 177.472C583.254 177.62 583.434 177.81 583.572 178.031C583.709 178.252 583.8 178.498 583.839 178.755C583.888 179.01 583.885 179.272 583.828 179.526C583.772 179.779 583.663 180.018 583.51 180.227L579.784 185.471C579.636 185.684 579.445 185.865 579.225 186.003C579.004 186.14 578.757 186.231 578.5 186.269C578.246 186.319 577.983 186.316 577.73 186.259C577.477 186.203 577.238 186.094 577.029 185.941L571.894 182.293C571.68 182.147 571.5 181.957 571.365 181.735C571.23 181.514 571.144 181.267 571.112 181.01C571.062 180.755 571.065 180.493 571.122 180.239C571.178 179.986 571.287 179.747 571.44 179.538L575.213 174.294C575.518 173.869 575.978 173.581 576.494 173.493C577.01 173.405 577.54 173.524 577.968 173.824L583.04 177.472ZM604.706 141.952C606.578 143.264 608.245 144.847 609.653 146.648C611.025 148.324 612.086 150.233 612.783 152.284C613.433 154.249 613.652 156.332 613.425 158.389C613.16 160.583 612.329 162.671 611.014 164.447C610.038 165.884 608.781 167.108 607.32 168.048C606.034 168.854 604.636 169.466 603.172 169.864C601.745 170.237 600.289 170.488 598.82 170.615L594.656 170.991C593.407 171.091 592.17 171.305 590.961 171.633C589.846 171.886 588.825 172.45 588.018 173.261C587.654 173.631 587.193 173.891 586.688 174.012C586.447 174.081 586.194 174.091 585.949 174.042C585.704 173.993 585.474 173.886 585.279 173.73L580.739 170.506C580.305 170.196 580.008 169.73 579.909 169.206C579.851 168.952 579.853 168.688 579.915 168.435C579.978 168.182 580.099 167.948 580.269 167.75C581.33 166.374 582.655 165.225 584.167 164.369C585.529 163.626 586.981 163.063 588.488 162.694C589.942 162.341 591.425 162.116 592.918 162.021C594.39 161.927 595.767 161.817 597.051 161.692C598.226 161.588 599.386 161.357 600.51 161.003C601.494 160.676 602.342 160.032 602.921 159.172C603.444 158.446 603.785 157.604 603.913 156.718C604.041 155.832 603.953 154.929 603.657 154.084C602.916 151.998 601.5 150.218 599.634 149.028C596.252 146.617 592.563 146.539 588.566 148.793C588.164 149.049 587.718 149.229 587.251 149.325C587.008 149.342 586.764 149.311 586.533 149.233C586.302 149.155 586.088 149.032 585.905 148.871L581.083 145.443C580.909 145.327 580.759 145.177 580.644 145.002C580.528 144.828 580.449 144.631 580.41 144.425C580.373 144.212 580.38 143.994 580.431 143.784C580.482 143.574 580.576 143.376 580.708 143.204C581.845 141.747 583.324 140.591 585.013 139.839C586.931 138.969 588.987 138.44 591.087 138.273C593.397 138.08 595.723 138.265 597.974 138.821C600.404 139.407 602.693 140.471 604.706 141.952Z" fill="white"/>
</g>
<path d="M172.102 95.6C169.4 96.2013 166.796 97.1815 164.368 98.5117C162.044 99.7614 159.961 101.415 158.216 103.396C156.547 105.301 155.309 107.544 154.584 109.971C153.846 112.569 153.792 115.314 154.428 117.939C154.848 120.02 155.672 121.999 156.854 123.762C157.934 125.27 159.219 126.619 160.674 127.77C162.103 128.879 163.627 129.858 165.229 130.697L169.738 133.092C171.096 133.8 172.385 134.634 173.589 135.581C174.678 136.416 175.513 137.538 176 138.822C176.238 139.408 176.633 139.917 177.142 140.293C177.383 140.48 177.663 140.61 177.962 140.672C178.26 140.735 178.569 140.728 178.864 140.653L185.502 139.182C185.821 139.115 186.124 138.985 186.393 138.799C186.662 138.614 186.891 138.376 187.067 138.101C187.255 137.846 187.379 137.55 187.431 137.237C187.482 136.924 187.46 136.604 187.365 136.301C186.83 134.246 185.888 132.318 184.594 130.634C183.413 129.145 182.045 127.814 180.524 126.674C179.041 125.589 177.47 124.631 175.827 123.809C174.262 123.011 172.697 122.244 171.335 121.477C170.068 120.796 168.876 119.982 167.781 119.05C166.82 118.246 166.154 117.144 165.887 115.919C165.638 114.856 165.65 113.748 165.923 112.69C166.195 111.632 166.72 110.656 167.452 109.845C169.283 107.847 171.73 106.519 174.403 106.073C179.35 104.977 183.524 106.642 186.926 111.066C187.255 111.549 187.669 111.969 188.147 112.303C188.688 112.571 189.312 112.616 189.885 112.428L196.945 110.863C197.449 110.766 197.893 110.473 198.182 110.049C198.336 109.822 198.439 109.565 198.485 109.295C198.531 109.025 198.518 108.748 198.448 108.484C197.848 106.308 196.731 104.31 195.192 102.66C193.456 100.746 191.394 99.1561 189.102 97.9638C186.596 96.6526 183.895 95.754 181.103 95.3026C178.112 94.816 175.054 94.917 172.102 95.6ZM179.6 145.976C178.979 146.121 178.44 146.504 178.097 147.043C177.755 147.581 177.637 148.232 177.769 148.856L179.459 156.527C179.516 156.848 179.641 157.153 179.824 157.423C180.008 157.693 180.246 157.921 180.524 158.092C180.786 158.273 181.083 158.397 181.395 158.456C181.708 158.515 182.03 158.509 182.34 158.436L189.916 156.699C190.238 156.644 190.545 156.521 190.815 156.338C191.085 156.154 191.313 155.914 191.482 155.634C191.657 155.37 191.777 155.072 191.833 154.76C191.89 154.448 191.882 154.128 191.81 153.818L190.104 146.148C189.958 145.526 189.576 144.985 189.038 144.641C188.501 144.296 187.85 144.174 187.224 144.301L179.6 145.976Z" fill="white"/>
<path d="M163.742 169.034C161.857 168.732 159.939 168.695 158.044 168.925C156.234 169.14 154.475 169.67 152.847 170.49C151.297 171.295 149.932 172.414 148.84 173.778C147.858 175.112 147.167 176.637 146.811 178.255C146.455 179.873 146.442 181.547 146.773 183.17C147.071 184.418 147.551 185.615 148.198 186.724C148.821 187.802 149.544 188.819 150.358 189.761C151.156 190.7 151.923 191.592 152.628 192.453C153.317 193.255 153.931 194.12 154.459 195.036C154.955 195.839 155.206 196.77 155.18 197.713C155.193 198.154 155.317 198.585 155.54 198.966C155.653 199.141 155.802 199.29 155.978 199.404C156.153 199.517 156.351 199.592 156.557 199.623L161.253 200.374C161.473 200.414 161.698 200.41 161.916 200.361C162.134 200.313 162.339 200.222 162.521 200.093C162.706 199.976 162.861 199.818 162.973 199.63C163.084 199.442 163.15 199.231 163.163 199.012C163.36 197.556 163.253 196.074 162.85 194.661C162.482 193.409 161.956 192.21 161.285 191.091C160.626 190.018 159.872 189.007 159.031 188.07C158.201 187.131 157.465 186.254 156.745 185.409C156.102 184.654 155.546 183.83 155.086 182.951C154.678 182.195 154.53 181.326 154.663 180.478C154.781 179.731 155.077 179.024 155.527 178.416C155.976 177.808 156.566 177.318 157.246 176.987C158.929 176.174 160.834 175.943 162.662 176.329C164.318 176.571 165.858 177.32 167.072 178.472C168.285 179.624 169.113 181.123 169.441 182.763C169.532 183.158 169.691 183.534 169.91 183.875C170.19 184.172 170.568 184.356 170.975 184.391L175.921 185.19C176.269 185.256 176.629 185.183 176.923 184.986C177.074 184.883 177.201 184.748 177.295 184.591C177.39 184.435 177.45 184.26 177.471 184.078C177.619 182.525 177.376 180.959 176.767 179.523C176.148 177.851 175.236 176.304 174.074 174.952C172.801 173.472 171.3 172.203 169.628 171.195C167.825 170.101 165.826 169.367 163.742 169.034ZM155.665 203.239C155.449 203.205 155.229 203.214 155.017 203.265C154.805 203.316 154.605 203.408 154.428 203.537C154.244 203.658 154.087 203.817 153.968 204.003C153.849 204.189 153.772 204.398 153.739 204.617L152.863 209.986C152.795 210.422 152.901 210.866 153.159 211.224C153.417 211.582 153.806 211.823 154.24 211.896L159.484 212.757C159.92 212.824 160.364 212.717 160.721 212.46C160.903 212.337 161.056 212.177 161.172 211.991C161.288 211.805 161.364 211.597 161.394 211.379L162.271 206.01C162.311 205.794 162.305 205.573 162.253 205.36C162.202 205.147 162.107 204.947 161.973 204.773C161.851 204.592 161.691 204.438 161.505 204.322C161.319 204.206 161.111 204.13 160.893 204.1L155.665 203.239Z" fill="white"/>
<g opacity="0.2">
<path d="M163.742 169.034C161.857 168.732 159.939 168.695 158.044 168.925C156.234 169.14 154.475 169.67 152.847 170.49C151.297 171.295 149.932 172.414 148.84 173.778C147.858 175.112 147.167 176.637 146.811 178.255C146.455 179.873 146.442 181.547 146.773 183.17C147.071 184.418 147.551 185.615 148.198 186.724C148.821 187.802 149.544 188.819 150.358 189.761C151.156 190.7 151.923 191.592 152.628 192.453C153.317 193.255 153.931 194.12 154.459 195.036C154.955 195.839 155.206 196.77 155.18 197.713C155.193 198.154 155.317 198.585 155.54 198.966C155.653 199.141 155.802 199.29 155.978 199.404C156.153 199.517 156.351 199.592 156.557 199.623L161.253 200.374C161.473 200.414 161.698 200.41 161.916 200.361C162.134 200.313 162.339 200.222 162.521 200.093C162.706 199.976 162.861 199.818 162.973 199.63C163.084 199.442 163.15 199.231 163.163 199.012C163.36 197.556 163.253 196.074 162.85 194.661C162.482 193.409 161.956 192.21 161.285 191.091C160.626 190.018 159.872 189.007 159.031 188.07C158.201 187.131 157.465 186.254 156.745 185.409C156.102 184.654 155.546 183.83 155.086 182.951C154.678 182.195 154.53 181.326 154.663 180.478C154.781 179.731 155.077 179.024 155.527 178.416C155.976 177.808 156.566 177.318 157.246 176.987C158.929 176.174 160.834 175.943 162.662 176.329C164.318 176.571 165.858 177.32 167.072 178.472C168.285 179.624 169.113 181.123 169.441 182.763C169.532 183.158 169.691 183.534 169.91 183.875C170.19 184.172 170.568 184.356 170.975 184.391L175.921 185.19C176.269 185.256 176.629 185.183 176.923 184.986C177.074 184.883 177.201 184.748 177.295 184.591C177.39 184.435 177.45 184.26 177.471 184.078C177.619 182.525 177.376 180.959 176.767 179.523C176.148 177.851 175.236 176.304 174.074 174.952C172.801 173.472 171.3 172.203 169.628 171.195C167.825 170.101 165.826 169.367 163.742 169.034ZM155.665 203.239C155.449 203.205 155.229 203.214 155.017 203.265C154.805 203.316 154.605 203.408 154.428 203.537C154.244 203.658 154.087 203.817 153.968 204.003C153.849 204.189 153.772 204.398 153.739 204.617L152.863 209.986C152.795 210.422 152.901 210.866 153.159 211.224C153.417 211.582 153.806 211.823 154.24 211.896L159.484 212.757C159.92 212.824 160.364 212.717 160.721 212.46C160.903 212.337 161.056 212.177 161.172 211.991C161.288 211.805 161.364 211.597 161.394 211.379L162.271 206.01C162.311 205.794 162.305 205.573 162.253 205.36C162.202 205.147 162.107 204.947 161.973 204.773C161.851 204.592 161.691 204.438 161.505 204.322C161.319 204.206 161.111 204.13 160.893 204.1L155.665 203.239Z" fill="white"/>
</g>
<path d="M119.472 177.472C119.259 177.62 119.078 177.81 118.94 178.031C118.803 178.252 118.712 178.498 118.674 178.755C118.624 179.01 118.627 179.272 118.684 179.526C118.741 179.779 118.849 180.018 119.002 180.227L122.728 185.471C122.876 185.684 123.067 185.865 123.288 186.003C123.508 186.14 123.755 186.231 124.012 186.269C124.266 186.319 124.529 186.316 124.782 186.259C125.035 186.203 125.274 186.094 125.483 185.941L130.618 182.293C130.832 182.147 131.012 181.957 131.147 181.735C131.282 181.514 131.368 181.267 131.401 181.01C131.45 180.755 131.447 180.493 131.39 180.239C131.334 179.986 131.225 179.747 131.072 179.538L127.299 174.294C126.994 173.869 126.534 173.581 126.018 173.493C125.502 173.405 124.973 173.524 124.544 173.824L119.472 177.472ZM97.8065 141.952C95.9343 143.264 94.2672 144.847 92.8597 146.648C91.4869 148.324 90.4264 150.233 89.7288 152.284C89.0791 154.249 88.8602 156.332 89.087 158.389C89.3523 160.583 90.183 162.671 91.4978 164.447C92.4746 165.884 93.7311 167.108 95.1922 168.048C96.4781 168.854 97.876 169.466 99.3406 169.864C100.767 170.237 102.223 170.488 103.693 170.615L107.857 170.991C109.105 171.091 110.342 171.305 111.551 171.633C112.666 171.886 113.687 172.45 114.494 173.261C114.858 173.631 115.319 173.891 115.825 174.012C116.065 174.081 116.318 174.091 116.563 174.042C116.808 173.993 117.038 173.886 117.233 173.73L121.773 170.506C122.207 170.196 122.504 169.73 122.603 169.206C122.661 168.952 122.659 168.688 122.597 168.435C122.534 168.182 122.413 167.948 122.243 167.75C121.182 166.374 119.857 165.225 118.345 164.369C116.983 163.626 115.531 163.063 114.024 162.694C112.57 162.341 111.088 162.116 109.594 162.021C108.123 161.927 106.745 161.817 105.461 161.692C104.287 161.588 103.127 161.357 102.002 161.003C101.018 160.676 100.17 160.032 99.591 159.172C99.0678 158.446 98.7276 157.604 98.5995 156.718C98.4715 155.832 98.5592 154.929 98.8553 154.084C99.5958 151.998 101.012 150.218 102.878 149.028C106.26 146.617 109.949 146.539 113.946 148.793C114.348 149.049 114.794 149.229 115.261 149.325C115.504 149.342 115.748 149.311 115.98 149.233C116.211 149.155 116.424 149.032 116.607 148.871L121.429 145.443C121.603 145.327 121.753 145.177 121.869 145.002C121.984 144.828 122.064 144.631 122.102 144.425C122.139 144.212 122.132 143.994 122.081 143.784C122.03 143.574 121.936 143.376 121.805 143.204C120.667 141.747 119.189 140.591 117.5 139.839C115.581 138.969 113.526 138.44 111.426 138.273C109.115 138.08 106.789 138.265 104.538 138.821C102.108 139.407 99.8196 140.471 97.8065 141.952Z" fill="white"/>
<g opacity="0.6">
<path d="M119.472 177.472C119.259 177.62 119.078 177.81 118.94 178.031C118.803 178.252 118.712 178.498 118.674 178.755C118.624 179.01 118.627 179.272 118.684 179.526C118.741 179.779 118.849 180.018 119.002 180.227L122.728 185.471C122.876 185.684 123.067 185.865 123.288 186.003C123.508 186.14 123.755 186.231 124.012 186.269C124.266 186.319 124.529 186.316 124.782 186.259C125.035 186.203 125.274 186.094 125.483 185.941L130.618 182.293C130.832 182.147 131.012 181.957 131.147 181.735C131.282 181.514 131.368 181.267 131.401 181.01C131.45 180.755 131.447 180.493 131.39 180.239C131.334 179.986 131.225 179.747 131.072 179.538L127.299 174.294C126.994 173.869 126.534 173.581 126.018 173.493C125.502 173.405 124.973 173.524 124.544 173.824L119.472 177.472ZM97.8065 141.952C95.9343 143.264 94.2672 144.847 92.8597 146.648C91.4869 148.324 90.4264 150.233 89.7288 152.284C89.0791 154.249 88.8602 156.332 89.087 158.389C89.3523 160.583 90.183 162.671 91.4978 164.447C92.4746 165.884 93.7311 167.108 95.1922 168.048C96.4781 168.854 97.876 169.466 99.3406 169.864C100.767 170.237 102.223 170.488 103.693 170.615L107.857 170.991C109.105 171.091 110.342 171.305 111.551 171.633C112.666 171.886 113.687 172.45 114.494 173.261C114.858 173.631 115.319 173.891 115.825 174.012C116.065 174.081 116.318 174.091 116.563 174.042C116.808 173.993 117.038 173.886 117.233 173.73L121.773 170.506C122.207 170.196 122.504 169.73 122.603 169.206C122.661 168.952 122.659 168.688 122.597 168.435C122.534 168.182 122.413 167.948 122.243 167.75C121.182 166.374 119.857 165.225 118.345 164.369C116.983 163.626 115.531 163.063 114.024 162.694C112.57 162.341 111.088 162.116 109.594 162.021C108.123 161.927 106.745 161.817 105.461 161.692C104.287 161.588 103.127 161.357 102.002 161.003C101.018 160.676 100.17 160.032 99.591 159.172C99.0678 158.446 98.7276 157.604 98.5995 156.718C98.4715 155.832 98.5592 154.929 98.8553 154.084C99.5958 151.998 101.012 150.218 102.878 149.028C106.26 146.617 109.949 146.539 113.946 148.793C114.348 149.049 114.794 149.229 115.261 149.325C115.504 149.342 115.748 149.311 115.98 149.233C116.211 149.155 116.424 149.032 116.607 148.871L121.429 145.443C121.603 145.327 121.753 145.177 121.869 145.002C121.984 144.828 122.064 144.631 122.102 144.425C122.139 144.212 122.132 143.994 122.081 143.784C122.03 143.574 121.936 143.376 121.805 143.204C120.667 141.747 119.189 140.591 117.5 139.839C115.581 138.969 113.526 138.44 111.426 138.273C109.115 138.08 106.789 138.265 104.538 138.821C102.108 139.407 99.8196 140.471 97.8065 141.952Z" fill="white"/>
</g>
</g>
<defs>
<clipPath id="clip0_1_3">
<rect y="-381" width="710" height="1022" rx="20" fill="white"/>
</clipPath>
</defs>
</svg>
