<svg width="535" height="586" viewBox="0 0 535 586" fill="none" xmlns="http://www.w3.org/2000/svg">
<rect width="535" height="586" fill="#D2D2D2"/>
<g clip-path="url(#clip0_1_3)">
<path d="M-91 -412C-91 -425.255 -80.2548 -436 -67 -436H1349V588H-67C-80.2549 588 -91 577.255 -91 564V-412Z" fill="#EDF3FC"/>
<g clip-path="url(#clip1_1_3)">
<rect x="-91" y="-436" width="710" height="1022" rx="20" fill="#428BF8"/>
<path d="M349.626 581.138H507.566C508.394 581.138 509.188 580.815 509.773 580.239C510.358 579.663 510.687 578.882 510.687 578.068V568.163C510.68 567.354 510.348 566.579 509.764 566.009C509.179 565.439 508.389 565.12 507.566 565.12H357.767V247.901H505.016C506.515 247.901 507.954 247.317 509.016 246.276C510.079 245.236 510.68 243.823 510.687 242.348V231.883H349.626C347.466 231.883 345.396 232.727 343.869 234.229C342.342 235.731 341.484 237.768 341.484 239.892V573.129C341.484 575.253 342.342 577.29 343.869 578.792C345.396 580.294 347.466 581.138 349.626 581.138Z" fill="#263238"/>
<g opacity="0.3">
<path d="M341.481 239.894V573.104C341.481 575.228 342.339 577.266 343.866 578.768C345.393 580.27 347.464 581.113 349.623 581.113H507.563C508.384 581.113 509.171 580.793 509.751 580.222C510.331 579.651 510.657 578.877 510.657 578.07V568.165C510.657 567.356 510.332 566.579 509.753 566.004C509.173 565.429 508.386 565.102 507.563 565.095H357.764V247.903H505.013C506.512 247.896 507.948 247.305 509.005 246.26C510.063 245.214 510.657 243.799 510.657 242.323V231.885H349.623C347.464 231.885 345.393 232.729 343.866 234.231C342.339 235.733 341.481 237.77 341.481 239.894Z" fill="white"/>
</g>
<path opacity="0.2" d="M341.484 239.892V324.87C346.912 326.223 352.339 327.531 357.767 328.794V247.901H505.015C506.515 247.894 507.951 247.303 509.008 246.258C510.066 245.212 510.66 243.797 510.66 242.322V231.883H349.626C347.466 231.883 345.396 232.727 343.869 234.229C342.342 235.731 341.484 237.768 341.484 239.892Z" fill="#FAFAFA"/>
<path d="M55.8592 536.417L120.609 530.864V447.328H143.378V530.971L208.508 536.417C211.272 536.683 213.837 537.95 215.703 539.974C217.569 541.997 218.603 544.631 218.603 547.363V555.853H45.6826V547.363C45.6849 544.619 46.7301 541.974 48.6131 539.949C50.496 537.923 53.0806 536.664 55.8592 536.417Z" fill="#263238"/>
<path opacity="0.1" d="M55.8592 536.417L120.609 530.864V447.328H143.378V530.971L208.508 536.417C211.272 536.683 213.837 537.95 215.703 539.974C217.569 541.997 218.603 544.631 218.603 547.363V555.853H45.6826V547.363C45.6849 544.619 46.7301 541.974 48.6131 539.949C50.496 537.923 53.0806 536.664 55.8592 536.417Z" fill="white"/>
<path d="M197.492 566.399C197.492 569.298 198.366 572.132 200.003 574.542C201.64 576.952 203.967 578.831 206.689 579.94C209.412 581.05 212.407 581.34 215.297 580.774C218.187 580.209 220.842 578.813 222.926 576.763C225.009 574.713 226.428 572.102 227.003 569.259C227.578 566.415 227.283 563.468 226.155 560.79C225.028 558.112 223.118 555.823 220.668 554.212C218.218 552.602 215.337 551.742 212.391 551.742C210.433 551.739 208.494 552.115 206.685 552.851C204.876 553.586 203.232 554.666 201.848 556.027C200.464 557.389 199.366 559.006 198.619 560.786C197.872 562.566 197.489 564.473 197.492 566.399Z" fill="#263238"/>
<path d="M66.7121 566.399C66.7121 569.299 65.8376 572.134 64.1993 574.545C62.5611 576.956 60.2326 578.834 57.5087 579.943C54.7848 581.051 51.7878 581.34 48.897 580.772C46.0062 580.205 43.3516 578.806 41.2691 576.754C39.1866 574.701 37.7698 572.087 37.198 569.242C36.6262 566.397 36.9251 563.449 38.0569 560.772C39.1887 558.094 41.1025 555.807 43.5562 554.199C46.0098 552.592 48.8929 551.737 51.8407 551.742C53.7959 551.742 55.732 552.122 57.538 552.858C59.3441 553.595 60.9847 554.675 62.366 556.037C63.7473 557.398 64.8421 559.014 65.5879 560.792C66.3336 562.57 66.7157 564.476 66.7121 566.399Z" fill="#263238"/>
<path d="M137.214 464.283H126.766C124.096 464.283 121.535 463.24 119.647 461.382C117.759 459.525 116.698 457.005 116.698 454.378L116.698 382.296H147.282V454.378C147.282 457.005 146.221 459.525 144.333 461.382C142.445 463.24 139.884 464.283 137.214 464.283Z" fill="#263238"/>
<path opacity="0.2" d="M137.214 464.283H126.766C124.096 464.283 121.535 463.24 119.647 461.382C117.759 459.525 116.698 457.005 116.698 454.378L116.698 382.296H147.282V454.378C147.282 457.005 146.221 459.525 144.333 461.382C142.445 463.24 139.884 464.283 137.214 464.283Z" fill="white"/>
<path d="M64.8415 216.824C64.8415 216.824 71.843 355.197 102.129 379.011H69.7263C69.7263 379.011 40.8519 331.863 38.708 216.824H64.8415Z" fill="#263238"/>
<path opacity="0.1" d="M64.8415 216.824C64.8415 216.824 71.843 355.197 102.129 379.011H69.7263C69.7263 379.011 40.8519 331.863 38.708 216.824H64.8415Z" fill="white"/>
<path d="M62.209 367.533H205.794C209.026 367.533 212.125 368.796 214.41 371.044C216.695 373.292 217.979 376.341 217.979 379.52V390.466H49.9971V379.52C49.9971 377.944 50.3131 376.383 50.9272 374.927C51.5412 373.471 52.4412 372.148 53.5755 371.035C54.7098 369.921 56.0563 369.039 57.5378 368.438C59.0192 367.837 60.6066 367.53 62.209 367.533Z" fill="#005CE6"/>
<path d="M219.498 379.012H48.5311C45.8183 379.012 43.6191 381.175 43.6191 383.844V385.633C43.6191 388.301 45.8183 390.465 48.5311 390.465H219.498C222.211 390.465 224.41 388.301 224.41 385.633V383.844C224.41 381.175 222.211 379.012 219.498 379.012Z" fill="#263238"/>
<path opacity="0.6" d="M219.498 379.012H48.5311C45.8183 379.012 43.6191 381.175 43.6191 383.844V385.633C43.6191 388.301 45.8183 390.465 48.5311 390.465H219.498C222.211 390.465 224.41 388.301 224.41 385.633V383.844C224.41 381.175 222.211 379.012 219.498 379.012Z" fill="white"/>
<path d="M33.0091 247.104H84.9233C100.12 247.104 111.084 233.756 109.347 217.07L107.149 194.964C105.466 178.385 91.8162 164.93 76.6192 164.93H24.7864C9.58936 164.93 -1.37423 178.278 0.362578 194.964L2.56072 217.07C4.1347 233.756 17.812 247.104 33.0091 247.104Z" fill="#005CE6"/>
<path d="M204.331 127.734C207.56 137.799 211.36 148.291 215.539 157.902C219.067 165.912 224.087 176.11 229.813 181.476C235.024 186.042 247.426 187.777 255.485 188.818C266.34 190.18 277.901 190.687 289.163 191.141L291.171 206.091C279.232 209.244 266.989 211.15 254.644 211.778C240.858 212.258 224.793 211.778 212.852 203.448C195.511 190.099 187.967 172.319 180.287 153.551C178.116 147.597 176.162 142.151 174.507 135.904L204.358 127.734H204.331Z" fill="#B65B52"/>
<path d="M191.005 113.607C199.554 116.491 207.288 128.585 228.808 177.094C228.808 177.094 232.309 183.021 249.758 186.732L248.157 213.963C248.157 213.963 223.245 212.895 217.464 208.971C211.684 205.046 177.029 148.955 177.029 148.955L191.005 113.607Z" fill="#263238"/>
<path opacity="0.2" d="M249.757 186.785L248.156 214.016C248.156 214.016 228.183 213.162 219.851 210.145C219.012 209.869 218.21 209.492 217.463 209.024C214.125 206.728 201.181 186.999 190.733 170.767C183.161 158.966 177.164 149.008 177.164 149.008L191.004 113.607C199.553 116.491 207.287 128.585 228.834 177.067C228.834 177.12 232.308 183.021 249.757 186.785Z" fill="white"/>
<path opacity="0.2" d="M219.852 210.146C219.012 209.869 218.211 209.493 217.464 209.024C214.126 206.728 201.181 186.999 190.733 170.767C193.453 161.564 196.669 152.509 200.367 143.643C200.367 143.643 220.232 182.808 219.852 210.146Z" fill="#FAFAFA"/>
<path d="M283.245 192.503L302.703 185.615L300.314 211.245C300.314 211.245 282.458 213.487 280.26 204.25L283.245 192.503Z" fill="#B55B52"/>
<path d="M318.824 190.795L315.839 211.912L300.316 211.245L302.705 185.615L318.824 190.795Z" fill="#B55B52"/>
<path d="M249.892 185.615L259.825 188.552L256.188 215.036L246.256 216.718L249.892 185.615Z" fill="#263238"/>
<path d="M205.089 282.045C205.089 282.045 336.408 333.01 366.938 354.315C397.467 375.619 474.457 519.251 474.457 519.251L442.624 543.279C442.624 543.279 350.791 412.088 339.502 403.198C328.212 394.307 182.104 350.177 182.104 350.177L205.089 282.045Z" fill="#005CE6"/>
<path opacity="0.4" d="M474.457 519.253L442.624 543.281C442.624 543.281 421.186 512.659 397.766 480.008C372.718 445.061 345.39 407.925 339.583 403.2C331.442 396.686 250.979 371.323 208.346 358.188C192.66 353.329 182.104 350.179 182.104 350.179L205.062 281.967C205.062 281.967 336.354 332.932 366.91 354.237C397.467 375.541 474.457 519.253 474.457 519.253Z" fill="white"/>
<path d="M480.293 570.643L495.626 555.479L470.551 517.328L455.245 532.492L480.293 570.643Z" fill="#B55B52"/>
<path opacity="0.2" d="M455.245 532.491L470.551 517.354L484.879 539.165L469.031 553.528L455.245 532.491Z" fill="#FAFAFA"/>
<path d="M498.286 553.826C498.286 553.826 498.286 553.826 498.476 553.826C500.282 553.174 502.01 552.333 503.632 551.317C504.896 550.651 505.863 549.547 506.346 548.22C506.446 547.722 506.399 547.206 506.212 546.733C506.025 546.261 505.704 545.85 505.288 545.55C505.064 545.321 504.785 545.152 504.476 545.058C504.168 544.965 503.84 544.95 503.524 545.016C502.031 545.363 500.566 547.446 499.453 549.448C499.688 547.579 499.246 545.689 498.205 544.108C497.901 543.806 497.501 543.615 497.072 543.567C496.643 543.518 496.21 543.615 495.844 543.841C495.503 543.999 495.205 544.233 494.974 544.526C494.743 544.818 494.586 545.16 494.514 545.523C493.89 548.407 497.825 553.052 498.015 553.319L498.286 553.052L498.042 553.346C498.042 553.346 497.852 553.639 497.852 553.666C497.893 553.74 497.959 553.797 498.039 553.826C498.119 553.856 498.207 553.856 498.286 553.826ZM498.422 551.851C498.422 552.011 498.286 552.171 498.232 552.305C497.038 550.649 495.274 547.739 495.654 546.031C495.686 545.83 495.76 545.639 495.873 545.468C495.985 545.298 496.132 545.153 496.305 545.043H496.495C497.147 544.723 497.499 544.909 497.717 545.043C498.755 547.161 499.005 549.57 498.422 551.851ZM499.345 552.491C500.539 549.822 502.52 546.351 504.012 546.031C504.168 545.992 504.332 545.996 504.485 546.043C504.638 546.09 504.775 546.179 504.881 546.298C505.134 546.49 505.332 546.743 505.456 547.033C505.58 547.324 505.625 547.641 505.586 547.953C505.288 549.341 502.981 550.996 499.345 552.491Z" fill="#005CE6"/>
<path d="M495.324 552.464L475.079 565.813C474.904 565.914 474.752 566.049 474.631 566.209C474.509 566.37 474.422 566.553 474.374 566.747C474.326 566.941 474.318 567.142 474.351 567.34C474.383 567.537 474.455 567.726 474.563 567.895L484.333 584.314C484.892 585.144 485.763 585.723 486.755 585.923C487.746 586.124 488.779 585.929 489.625 585.382C496.599 580.603 499.693 577.987 508.621 572.033C516.75 567.115 524.521 561.647 531.878 555.668C538.554 549.554 532.231 543.227 528.866 545.229C520.724 549.954 506.938 551.983 499.177 551.423C497.809 551.317 496.446 551.686 495.324 552.464Z" fill="#263238"/>
<path d="M444.118 553.878L483.875 527.848L474.702 509.453L431.635 538.847L444.118 553.878Z" fill="#005CE6"/>
<path opacity="0.2" d="M444.118 553.878L483.875 527.848L474.702 509.453L431.635 538.847L444.118 553.878Z" fill="white"/>
<path opacity="0.2" d="M397.819 480.111C372.771 445.165 345.444 408.029 339.636 403.303C331.495 396.789 251.032 371.426 208.399 358.291L203.433 307.566L219.01 304.896L220.774 308.794C220.774 308.794 318.089 330.499 345.606 344.062C363.327 352.631 387.127 438.277 397.819 480.111Z" fill="#FAFAFA"/>
<path d="M391.986 558.9C392.016 558.913 392.048 558.919 392.081 558.919C392.113 558.919 392.146 558.913 392.176 558.9C394.103 558.879 396.023 558.655 397.902 558.233C399.339 558.033 400.646 557.309 401.565 556.204C401.835 555.78 401.978 555.289 401.978 554.789C401.978 554.289 401.835 553.798 401.565 553.374C401.431 553.082 401.223 552.829 400.962 552.638C400.701 552.446 400.395 552.323 400.073 552.28C398.553 552.093 396.464 553.614 394.645 555.136C395.477 553.48 395.679 551.586 395.215 549.797C395.034 549.413 394.726 549.101 394.342 548.912C393.957 548.723 393.519 548.668 393.098 548.755C392.727 548.811 392.371 548.941 392.053 549.139C391.736 549.336 391.463 549.597 391.253 549.903C389.706 552.44 391.85 558.099 391.959 558.42L392.284 558.233L391.959 558.447C391.959 558.447 391.66 558.66 391.687 558.687L391.986 558.9ZM392.8 557.058L392.447 557.432C391.605 555.264 391.491 552.888 392.122 550.651C392.223 550.478 392.36 550.327 392.524 550.207C392.687 550.088 392.873 550.003 393.071 549.957H393.316C394.021 549.957 394.293 550.17 394.401 550.437C394.674 552.761 394.108 555.105 392.8 557.058ZM393.424 557.966C395.459 555.83 398.499 553.214 400.019 553.401C400.178 553.417 400.33 553.475 400.459 553.569C400.588 553.663 400.689 553.789 400.751 553.935C400.903 554.209 400.983 554.517 400.983 554.829C400.983 555.142 400.903 555.449 400.751 555.723C400.1 556.925 397.386 557.752 393.424 557.966Z" fill="#005CE6"/>
<path d="M369.353 568.881L388.919 559.563L377.277 513.697L357.738 523.015L369.353 568.881Z" fill="#B55B52"/>
<path opacity="0.2" d="M357.738 523.011L377.277 513.721L383.926 539.938L364.116 548.294L357.738 523.011Z" fill="#FAFAFA"/>
<path d="M389.652 556.625L366.042 562.632C365.843 562.67 365.654 562.747 365.486 562.858C365.317 562.969 365.173 563.112 365.062 563.279C364.951 563.445 364.874 563.632 364.838 563.828C364.801 564.024 364.804 564.226 364.848 564.421L368.539 583.109C368.806 584.061 369.441 584.872 370.308 585.371C371.174 585.87 372.205 586.016 373.179 585.778C381.32 583.536 385.174 582.068 395.541 579.344C404.834 577.393 413.975 574.797 422.895 571.575C431.254 567.998 427.427 559.962 423.574 560.763C414.401 562.605 400.588 559.962 393.478 556.892C392.265 556.403 390.923 556.309 389.652 556.625Z" fill="#263238"/>
<path d="M386.803 522.402C386.803 522.402 353.695 358.987 346.91 349.269C335.892 333.251 203.407 307.435 203.407 307.435L218.957 304.765L200.991 257.777L83.0244 262.343C83.0244 262.343 85.4939 339.018 97.4887 359.575C109.484 380.132 286.936 389.582 298.47 394.281C310.003 398.98 345.201 527.154 345.201 527.154L386.803 522.402Z" fill="#005CE6"/>
<path opacity="0.4" d="M386.803 522.402C386.803 522.402 353.695 358.987 346.91 349.269C335.892 333.251 203.407 307.435 203.407 307.435L218.957 304.765L200.991 257.777L83.0244 262.343C83.0244 262.343 85.4939 339.018 97.4887 359.575C109.484 380.132 286.936 389.582 298.47 394.281C310.003 398.98 345.201 527.154 345.201 527.154L386.803 522.402Z" fill="white"/>
<path d="M345.906 541.623L392.203 530.037L389.733 509.693L339.203 523.389L345.906 541.623Z" fill="#005CE6"/>
<path opacity="0.2" d="M345.906 541.623L392.203 530.037L389.733 509.693L339.203 523.389L345.906 541.623Z" fill="white"/>
<path d="M120.367 264.131L86.1741 263.57L85.4414 273.742L121.833 274.596L120.367 264.131Z" fill="#263238"/>
<path d="M125.631 263.944L127.123 274.516L203.434 273.448L200.965 263.811L125.631 263.944Z" fill="#263238"/>
<path d="M162.375 265.784L163.352 272.752C163.494 273.603 163.943 274.375 164.615 274.929C165.287 275.482 166.139 275.78 167.015 275.769L179.227 275.395C179.631 275.402 180.032 275.321 180.4 275.156C180.768 274.991 181.094 274.748 181.354 274.443C181.614 274.139 181.802 273.781 181.904 273.396C182.005 273.011 182.018 272.608 181.941 272.218L180.937 265.223C180.793 264.375 180.344 263.606 179.671 263.057C178.999 262.507 178.147 262.215 177.273 262.233L165.088 262.607C164.684 262.6 164.283 262.681 163.915 262.846C163.547 263.011 163.221 263.254 162.961 263.559C162.701 263.863 162.514 264.221 162.412 264.606C162.311 264.991 162.298 265.393 162.375 265.784Z" fill="white"/>
<path d="M86.01 262.077H198.088C199.43 262.085 200.727 261.603 201.729 260.726C202.732 259.848 203.368 258.636 203.516 257.324C217.356 150.535 190.924 113.666 190.924 113.666C180.86 110.838 170.59 108.777 160.204 107.499C145.029 106.324 129.798 106.003 114.586 106.538C104.222 106.812 93.8924 107.82 83.6761 109.554C78.2486 111.877 72.6311 135.664 78.2486 209.776C79.7141 229.185 79.9312 245.951 79.7955 255.776C79.7737 257.421 80.4154 259.008 81.5801 260.189C82.7448 261.37 84.3377 262.048 86.01 262.077Z" fill="#263238"/>
<path d="M175.291 151.441H196.893L198.521 176.804L186.933 184.199L175.291 178.539V151.441Z" fill="#263238"/>
<path opacity="0.2" d="M203.596 257.323C203.448 258.635 202.812 259.847 201.809 260.724C200.807 261.602 199.51 262.083 198.168 262.075H86.09C85.2504 262.079 84.4186 261.918 83.6429 261.602C82.8673 261.286 82.1634 260.821 81.5722 260.234C80.9811 259.648 80.5147 258.952 80.2 258.186C79.8854 257.42 79.729 256.6 79.7398 255.775C79.7398 245.95 79.7398 229.077 78.2201 209.775C77.4421 199.096 76.8722 189.449 76.5104 180.835C75.6253 165.075 75.7159 149.276 76.7818 133.527C78.1387 117.509 80.9338 110.754 83.7561 109.5C94.0084 107.762 104.375 106.753 114.774 106.483C129.978 105.949 145.199 106.269 160.366 107.444C170.724 108.726 180.966 110.788 191.004 113.611C191.004 113.611 217.436 150.64 203.596 257.323Z" fill="white"/>
<path d="M115.696 105.441L151.898 117.588L153.363 107.39C149.835 101.303 148.94 97.4585 151.925 90.3837L127.773 63.0723C128.397 77.0617 125.819 96.177 115.696 105.441Z" fill="#B55B52"/>
<path d="M138.602 122.876L145.712 125.786L151.899 129.603C151.899 129.603 160.176 176.217 157.869 215.569L164.816 221.175L172.144 215.382C172.144 215.382 163.025 143.112 159.742 129.043L161.18 125.652L164.518 118.657L158.358 115.48L148.561 117.59H141.722L138.602 122.876Z" fill="white"/>
<path opacity="0.2" d="M137.596 74.2051L151.898 90.3837C150.824 92.863 149.962 95.4259 149.32 98.0458C143.268 96.2571 135.751 88.328 136.104 81.8672C136.124 79.2452 136.63 76.6487 137.596 74.2051Z" fill="#FAFAFA"/>
<path d="M117.952 98.9824C128.169 105.675 139.086 111.269 150.517 115.668C151.766 110.697 151.766 105.502 150.517 100.531L166.501 108.38C166.501 108.38 167.831 120.581 164.167 127.068L152.417 118.605L139.228 129.284C139.228 129.284 114.261 119.806 110.354 106.938L117.952 98.9824Z" fill="#263238"/>
<path opacity="0.2" d="M199.392 193.704L162.376 223.072C109.241 234.712 85.8756 202.114 76.486 180.756C75.6009 164.996 75.6915 149.198 76.7574 133.448C89.512 132.861 105.388 132.861 109.675 136.118C117.138 141.751 143.136 181.237 147.017 184.173C150.897 187.11 199.392 193.704 199.392 193.704Z" fill="#FAFAFA"/>
<path d="M220.447 192.313L239.905 185.398L237.517 211.028C237.517 211.028 219.66 213.27 217.462 204.033L220.447 192.313Z" fill="#B55B52"/>
<path d="M255.999 190.578L253.041 211.695L237.519 211.028L239.907 185.398L255.999 190.578Z" fill="#B55B52"/>
<path d="M107.26 140.604C112.999 151.759 119.341 162.605 126.256 173.095C130.51 179.955 135.841 186.109 142.05 191.329C142.519 191.731 143.063 192.039 143.651 192.237C150.448 194.005 157.465 194.814 164.493 194.64C184.195 194.827 204.25 193.038 224.033 191.383L227.262 206.12C214.009 210.368 200.494 213.783 186.8 216.345C171.956 219.014 158.414 221.017 142.62 219.522C137.525 218.997 132.579 217.52 128.047 215.17C110.462 205.052 99.6886 188.686 89.4848 172.454C85.8213 166.154 82.4833 160.28 79.3896 153.552L107.341 140.551L107.26 140.604Z" fill="#B65B52"/>
<path d="M83.6756 109.555C48.6681 121.969 94.0693 207.774 113.174 217.385C132.279 226.996 164.518 223.072 164.518 223.072L166.798 193.251C166.798 193.251 150.081 191.249 145.088 190.074C137.137 188.205 121.071 153.659 110.243 134.891C104.267 123.943 94.9841 115.091 83.6756 109.555Z" fill="#263238"/>
<path opacity="0.2" d="M83.6756 109.555C48.6681 121.969 94.0693 207.774 113.174 217.385C132.279 226.996 164.518 223.072 164.518 223.072L166.798 193.251C166.798 193.251 150.081 191.249 145.088 190.074C137.137 188.205 121.071 153.659 110.243 134.891C104.267 123.943 94.9841 115.091 83.6756 109.555Z" fill="white"/>
<path d="M162.293 191.006L159.471 225.632L169.512 223.79L172.144 192.848L162.293 191.006Z" fill="#263238"/>
<path d="M190.001 34.9313C191.385 42.9405 187.884 58.4784 177.708 51.9108C167.531 45.3433 187.586 21.2088 190.001 34.9313Z" fill="#263238"/>
<path d="M132.521 37.7912C128.613 57.3337 125.302 68.5733 132.521 80.9075C143.376 99.4355 170.052 96.6056 179.849 78.5848C188.668 62.3261 193.58 33.1993 176.402 20.7316C172.598 18.0031 168.154 16.2652 163.483 15.6795C158.813 15.0938 154.068 15.6793 149.689 17.3816C145.311 19.0838 141.441 21.8476 138.439 25.4159C135.437 28.9842 133.402 33.2413 132.521 37.7912Z" fill="#B55B52"/>
<path d="M122.973 16.2469L145.47 15.2324L146.067 27.9404L144.737 27.2196C144.737 27.2196 143.326 45.9077 132.552 52.1282C117.979 41.1823 113.692 23.2684 122.973 16.2469Z" fill="#263238"/>
<path d="M120.64 51.8854C120.78 54.3511 121.416 56.765 122.511 58.9875C123.606 61.2099 125.137 63.1969 127.017 64.8336C132.092 69.1853 137.574 65.421 138.632 59.2272C139.582 53.6474 138.089 44.6504 131.82 42.6747C130.436 42.2753 128.973 42.2182 127.561 42.5083C126.149 42.7985 124.832 43.427 123.726 44.338C122.62 45.2491 121.76 46.4146 121.221 47.7312C120.683 49.0477 120.483 50.4747 120.64 51.8854Z" fill="#B55B52"/>
<path d="M160.803 50.5283C160.369 52.1035 160.803 53.5718 161.943 53.8388C163.083 54.1058 164.168 53.0379 164.657 51.4628C165.145 49.8876 164.657 48.4193 163.517 48.179C162.377 47.9387 161.21 48.9799 160.803 50.5283Z" fill="#263238"/>
<path d="M178.848 55.0127C178.441 56.5611 178.848 58.0562 179.988 58.2965C181.128 58.5367 182.24 57.4955 182.702 55.9471C183.163 54.3986 182.702 52.9036 181.562 52.6366C180.422 52.3696 179.282 53.4375 178.848 55.0127Z" fill="#263238"/>
<path d="M172.905 54.3691C173.641 59.4837 175.102 64.4713 177.247 69.1862C175.952 69.6382 174.575 69.817 173.205 69.7113C171.835 69.6055 170.503 69.2174 169.296 68.5722L172.905 54.3691Z" fill="#A02724"/>
<path d="M159.147 72.4456C159.806 72.7199 160.487 72.9431 161.182 73.1131C161.307 73.1386 161.438 73.1172 161.549 73.053C161.659 72.9889 161.741 72.8865 161.779 72.766C161.795 72.7046 161.799 72.6407 161.79 72.5779C161.781 72.5151 161.76 72.4547 161.727 72.4001C161.694 72.3455 161.651 72.2978 161.599 72.2598C161.547 72.2218 161.489 72.1942 161.426 72.1787C159.434 71.7413 157.577 70.842 156.01 69.5557C154.443 68.2693 153.211 66.6332 152.416 64.7835C152.368 64.6671 152.277 64.5727 152.162 64.5184C152.047 64.4641 151.915 64.4539 151.792 64.4898C151.729 64.5074 151.671 64.538 151.621 64.5795C151.571 64.621 151.53 64.6725 151.502 64.7306C151.474 64.7887 151.459 64.852 151.457 64.9163C151.456 64.9807 151.468 65.0446 151.494 65.1039C152.184 66.7819 153.22 68.3008 154.537 69.5646C155.855 70.8283 157.424 71.8093 159.147 72.4456Z" fill="#263238"/>
<path d="M156.758 43.453C156.917 43.5121 157.088 43.5284 157.255 43.5002C157.422 43.4721 157.579 43.4004 157.708 43.2928C158.645 42.5254 159.751 41.9835 160.938 41.71C162.125 41.4366 163.361 41.4392 164.547 41.7177C164.668 41.759 164.796 41.7758 164.924 41.7671C165.052 41.7584 165.176 41.7243 165.29 41.667C165.404 41.6096 165.506 41.5301 165.588 41.4333C165.67 41.3365 165.731 41.2243 165.768 41.1036C165.81 40.9881 165.828 40.8653 165.821 40.7428C165.813 40.6202 165.781 40.5004 165.725 40.3906C165.669 40.2808 165.591 40.1832 165.496 40.1039C165.401 40.0245 165.29 39.965 165.171 39.9289C163.679 39.5373 162.114 39.5052 160.607 39.8351C159.1 40.1651 157.696 40.8475 156.514 41.8245C156.412 41.9002 156.327 41.9954 156.264 42.1042C156.2 42.213 156.16 42.3333 156.144 42.4579C156.129 42.5825 156.14 42.7088 156.175 42.8293C156.211 42.9498 156.271 43.062 156.351 43.1593C156.463 43.2859 156.602 43.3863 156.758 43.453Z" fill="#263238"/>
<path d="M188.261 50.8477C188.426 50.9061 188.604 50.9209 188.777 50.8908C188.949 50.8606 189.111 50.7865 189.245 50.6758C189.38 50.5651 189.483 50.4217 189.543 50.2598C189.604 50.0979 189.62 49.9232 189.591 49.7531C189.305 48.2712 188.663 46.878 187.719 45.6893C186.775 44.5005 185.556 43.5507 184.164 42.9186C183.922 42.8293 183.655 42.8349 183.417 42.9343C183.18 43.0338 182.99 43.2193 182.888 43.4526C182.798 43.6865 182.805 43.9456 182.906 44.1749C183.008 44.4042 183.196 44.5856 183.431 44.6806C184.511 45.1758 185.455 45.9194 186.183 46.8487C186.91 47.778 187.4 48.8657 187.61 50.0201C187.632 50.2033 187.704 50.3771 187.819 50.523C187.934 50.6688 188.086 50.7811 188.261 50.8477Z" fill="#263238"/>
<path d="M137.787 31.9707C138.219 32.3303 138.682 32.6519 139.171 32.9318C140.474 33.6984 141.952 34.1317 143.469 34.1924C144.985 34.253 146.494 33.9389 147.855 33.2789C153.446 30.6091 155.21 14.9111 171.112 22.8936C172.859 22.4793 174.691 22.5714 176.386 23.1589C178.081 23.7463 179.567 24.8039 180.665 26.204C184.763 31.1431 181.94 49.1638 190.679 46.6809C199.417 44.1981 197.897 41.5284 197.897 41.5284C197.897 41.5284 195.455 43.0501 194.016 41.8487C195.312 40.7767 196.236 39.334 196.659 37.7215C197.082 36.1089 196.984 34.4067 196.377 32.8517C196.377 32.8517 194.261 35.3346 192.85 34.854C194.307 27.5634 193.464 20.0086 190.434 13.2024C185.36 0.761446 154.314 3.53799 154.314 3.53799C154.314 3.53799 150.406 -2.89611 136.376 1.58905C122.346 6.07421 115.942 22.7067 118.167 29.9417" fill="#263238"/>
<path d="M323.028 209.032L321.02 201.584H238.712L200.828 205.295L199.39 209.032H323.028Z" fill="#263238"/>
<path opacity="0.5" d="M323.028 209.032L321.02 201.584H238.712L200.828 205.295L199.39 209.032H323.028Z" fill="white"/>
<path opacity="0.2" d="M238.713 201.584V209.032H323.029L321.021 201.584H238.713Z" fill="#FAFAFA"/>
<path d="M266.557 165.908C266.449 166.811 266.538 167.727 266.819 168.593C267.099 169.46 267.565 170.257 268.184 170.932C268.803 171.607 269.562 172.144 270.409 172.507C271.257 172.87 272.173 173.05 273.098 173.037H399.179C401.149 172.99 403.036 172.242 404.488 170.931C405.94 169.62 406.86 167.836 407.076 165.908L414.566 86.5103C414.637 85.7414 414.582 84.9661 414.403 84.2144C414.057 82.8153 413.237 81.5739 412.078 80.6954C410.918 79.8168 409.489 79.3536 408.026 79.3821H281.944C279.974 79.4286 278.088 80.1767 276.635 81.4876C275.183 82.7984 274.264 84.5831 274.047 86.5103L266.557 165.908Z" fill="#263238"/>
<path opacity="0.5" d="M266.557 165.908C266.449 166.811 266.538 167.727 266.819 168.593C267.099 169.46 267.565 170.257 268.184 170.932C268.803 171.607 269.562 172.144 270.409 172.507C271.257 172.87 272.173 173.05 273.098 173.037H399.179C401.149 172.99 403.036 172.242 404.488 170.931C405.94 169.62 406.86 167.836 407.076 165.908L414.566 86.5103C414.637 85.7414 414.582 84.9661 414.403 84.2144C414.057 82.8153 413.237 81.5739 412.078 80.6954C410.918 79.8168 409.489 79.3536 408.026 79.3821H281.944C279.974 79.4286 278.088 80.1767 276.635 81.4876C275.183 82.7984 274.264 84.5831 274.047 86.5103L266.557 165.908Z" fill="white"/>
<path opacity="0.1" d="M273.637 173.043H399.257C401.228 172.996 403.114 172.248 404.566 170.937C406.018 169.627 406.938 167.842 407.154 165.915L414.644 86.5167C414.716 85.7477 414.661 84.9724 414.481 84.2207H288.834C286.869 84.2735 284.989 85.0244 283.542 86.3347C282.096 87.645 281.18 89.4261 280.964 91.3489L273.474 170.747C273.389 171.516 273.444 172.293 273.637 173.043Z" fill="#FAFAFA"/>
<path d="M360.15 124.344H334.071L341.018 197.815L299.796 203.902V209.028H386.663V203.902L368.861 197.815L360.15 124.344Z" fill="#263238"/>
<path opacity="0.5" d="M360.15 124.344H334.071L341.018 197.815L299.796 203.902V209.028H386.663V203.902L368.861 197.815L360.15 124.344Z" fill="white"/>
<path opacity="0.2" d="M334.074 124.344L353.396 207.853L368.865 207.399L360.153 124.344H334.074Z" fill="white"/>
<path d="M118.793 581.138H276.733C277.142 581.138 277.546 581.059 277.924 580.904C278.301 580.749 278.643 580.523 278.931 580.237C279.218 579.952 279.445 579.613 279.599 579.241C279.753 578.869 279.831 578.47 279.827 578.068V568.163C279.827 567.356 279.501 566.582 278.921 566.011C278.341 565.44 277.554 565.12 276.733 565.12H126.934V247.901H274.182C275.679 247.901 277.115 247.316 278.174 246.275C279.232 245.233 279.827 243.821 279.827 242.348V231.883H118.793C116.633 231.883 114.563 232.727 113.036 234.229C111.509 235.731 110.651 237.768 110.651 239.892V573.129C110.651 575.253 111.509 577.29 113.036 578.792C114.563 580.294 116.633 581.138 118.793 581.138Z" fill="#263238"/>
<g opacity="0.4">
<path d="M118.79 581.14H276.73C277.139 581.14 277.544 581.061 277.921 580.906C278.298 580.751 278.64 580.525 278.928 580.239C279.215 579.954 279.443 579.615 279.596 579.243C279.75 578.87 279.828 578.472 279.824 578.07V568.165C279.824 567.358 279.498 566.584 278.918 566.013C278.338 565.442 277.551 565.122 276.73 565.122H126.931V247.903H274.179C275.677 247.903 277.112 247.318 278.171 246.277C279.229 245.235 279.824 243.823 279.824 242.35V231.885H118.79C116.631 231.885 114.56 232.729 113.033 234.231C111.506 235.733 110.648 237.77 110.648 239.894V573.131C110.648 575.255 111.506 577.292 113.033 578.794C114.56 580.296 116.631 581.14 118.79 581.14Z" fill="white"/>
</g>
<path d="M514.892 234.555L98.5467 234.555C97.1505 234.555 95.8113 234.009 94.824 233.038C93.8367 232.066 93.282 230.749 93.282 229.375V216.774L520.156 216.774V229.402C520.149 230.771 519.591 232.082 518.605 233.047C517.618 234.013 516.283 234.555 514.892 234.555Z" fill="#005CE6"/>
<path opacity="0.2" d="M93.282 225.633L520.156 225.633V216.743L93.282 216.743V225.633Z" fill="#FAFAFA"/>
<path d="M84.3519 219.039H529.137C530.485 219.039 531.779 218.514 532.735 217.578C533.691 216.643 534.232 215.373 534.239 214.046C534.239 212.715 533.701 211.439 532.744 210.497C531.788 209.556 530.49 209.027 529.137 209.027H84.3519C82.9988 209.027 81.7011 209.556 80.7443 210.497C79.7875 211.439 79.25 212.715 79.25 214.046C79.2572 215.373 79.7979 216.643 80.7539 217.578C81.7099 218.514 83.0034 219.039 84.3519 219.039Z" fill="#005CE6"/>
</g>
</g>
<defs>
<clipPath id="clip0_1_3">
<path d="M-91 -412C-91 -425.255 -80.2548 -436 -67 -436H1349V588H-67C-80.2549 588 -91 577.255 -91 564V-412Z" fill="white"/>
</clipPath>
<clipPath id="clip1_1_3">
<rect x="-91" y="-436" width="710" height="1022" rx="20" fill="white"/>
</clipPath>
</defs>
</svg>
