<svg width="24" height="24" viewBox="0 0 24 24" fill="none" xmlns="http://www.w3.org/2000/svg">
<rect width="24" height="24" fill="#D2D2D2"/>
<g clip-path="url(#clip0_1_3)">
<rect width="1440" height="4206" transform="translate(-222 -3941)" fill="white"/>
<rect width="1440" height="656" transform="translate(-222 -391)" fill="#005CE6"/>
<path fill-rule="evenodd" clip-rule="evenodd" d="M18 2.99976C18.7956 2.99976 19.5587 3.31583 20.1213 3.87844C20.6839 4.44104 21 5.20411 21 5.99976V17.9998C21 18.7954 20.6839 19.5585 20.1213 20.1211C19.5587 20.6837 18.7956 20.9998 18 20.9998H6C5.20435 20.9998 4.44129 20.6837 3.87868 20.1211C3.31607 19.5585 3 18.7954 3 17.9998V5.99976C3 5.20411 3.31607 4.44104 3.87868 3.87844C4.44129 3.31583 5.20435 2.99976 6 2.99976H18ZM8 9.99976C7.73478 9.99976 7.48043 10.1051 7.29289 10.2926C7.10536 10.4802 7 10.7345 7 10.9998V15.9998C7 16.265 7.10536 16.5193 7.29289 16.7069C7.48043 16.8944 7.73478 16.9998 8 16.9998C8.26522 16.9998 8.51957 16.8944 8.70711 16.7069C8.89464 16.5193 9 16.265 9 15.9998V10.9998C9 10.7345 8.89464 10.4802 8.70711 10.2926C8.51957 10.1051 8.26522 9.99976 8 9.99976ZM11 8.99976C10.7348 8.99976 10.4804 9.10511 10.2929 9.29265C10.1054 9.48019 10 9.73454 10 9.99976V15.9998C10 16.265 10.1054 16.5193 10.2929 16.7069C10.4804 16.8944 10.7348 16.9998 11 16.9998C11.2652 16.9998 11.5196 16.8944 11.7071 16.7069C11.8946 16.5193 12 16.265 12 15.9998V12.3398C12.305 11.9958 12.82 11.5918 13.393 11.3468C13.726 11.2048 14.227 11.1468 14.575 11.2568C14.6904 11.286 14.7933 11.352 14.868 11.4448C14.92 11.5148 15 11.6708 15 11.9998V15.9998C15 16.265 15.1054 16.5193 15.2929 16.7069C15.4804 16.8944 15.7348 16.9998 16 16.9998C16.2652 16.9998 16.5196 16.8944 16.7071 16.7069C16.8946 16.5193 17 16.265 17 15.9998V11.9998C17 11.3298 16.83 10.7338 16.476 10.2558C16.1503 9.82231 15.6944 9.50448 15.175 9.34876C14.273 9.06576 13.274 9.22276 12.607 9.50876C12.3935 9.6006 12.1854 9.70478 11.984 9.82076C11.9421 9.59034 11.8206 9.38195 11.6408 9.23192C11.461 9.08188 11.2342 8.99972 11 8.99976ZM8 6.99976C7.73478 6.99976 7.48043 7.10511 7.29289 7.29265C7.10536 7.48019 7 7.73454 7 7.99976C7 8.26497 7.10536 8.51933 7.29289 8.70686C7.48043 8.8944 7.73478 8.99976 8 8.99976C8.26522 8.99976 8.51957 8.8944 8.70711 8.70686C8.89464 8.51933 9 8.26497 9 7.99976C9 7.73454 8.89464 7.48019 8.70711 7.29265C8.51957 7.10511 8.26522 6.99976 8 6.99976Z" fill="#F1F1F1"/>
</g>
<defs>
<clipPath id="clip0_1_3">
<rect width="1440" height="4206" fill="white" transform="translate(-222 -3941)"/>
</clipPath>
</defs>
</svg>
