<svg width="96" height="97" viewBox="0 0 96 97" fill="none" xmlns="http://www.w3.org/2000/svg">
<path d="M55.0648 16.9565V16.9566V16.9568V16.9569V16.957V16.9572V16.9573C53.1808 16.9566 51.2967 16.9566 49.4127 16.9566C49.4127 18.7502 45.8073 22.6008 47.8871 22.6126C51.4664 22.6329 48.6204 31.2852 47.2554 32.8377C45.8904 34.3901 41.0396 35.7987 40.9344 39.5653C40.8293 43.3319 40.9344 47.1014 40.9344 50.8696C42.8185 50.8696 44.7025 50.8695 46.5866 50.8695C46.5866 48.7195 51.4874 42.4244 49.5142 42.4015C47.8962 42.3827 46.5866 41.1834 46.5866 39.5653L46.5838 39.5654C46.4086 36.5394 48.2034 33.549 48.2034 33.549C50.5693 29.6073 55.0414 29.6841 55.0648 25.4349C55.0711 24.2971 55.0648 25.435 55.0648 25.435C55.0648 22.6088 55.0648 19.7827 55.0648 16.9565Z" fill="#005CE6"/>
<path d="M40.9346 8.47815L47.9998 8.47819L55.065 8.47824C55.065 13.1883 55.065 17.8985 55.065 22.6086C50.3548 22.6086 45.6447 22.6086 40.9346 22.6087C40.9346 17.8985 40.9346 13.1883 40.9346 8.47815Z" fill="#005CE6"/>
<path d="M40.9346 42.3911L47.9998 42.3912L55.065 42.3912C55.065 47.1013 55.065 51.8114 55.065 56.5215C50.3548 56.5216 45.6447 56.5216 40.9346 56.5216C40.9346 51.8114 40.9346 47.1013 40.9346 42.3911Z" fill="#005CE6"/>
<path d="M32.4072 25.3853L32.4073 25.3854L32.4074 25.3853L32.4075 25.3854L32.4076 25.3853L32.4077 25.3854L32.4078 25.3853L32.4078 25.3854L32.4079 25.3853C32.4073 27.2694 32.4073 29.1534 32.4073 31.0375C34.2009 31.0375 38.0515 34.6429 38.0633 32.5631C38.0836 28.9838 46.7359 31.8298 48.2883 33.1948C49.8408 34.5598 51.2494 39.4106 55.016 39.5157C58.7825 39.6209 62.5521 39.5157 66.3203 39.5157C66.3202 37.6317 66.3202 35.7476 66.3202 33.8636C64.1702 33.8636 57.875 28.9627 57.8522 30.936C57.8334 32.554 56.634 33.8636 55.016 33.8636L55.016 33.8664C51.9901 34.0415 48.9997 32.2467 48.9997 32.2467C45.058 29.8809 45.1348 25.4087 40.8856 25.3854C39.7478 25.3791 40.8856 25.3853 40.8856 25.3853C38.0594 25.3853 35.2333 25.3853 32.4072 25.3853Z" fill="#005CE6"/>
<path d="M23.9297 39.5158L23.9297 32.4506L23.9298 25.3854C28.6399 25.3854 33.35 25.3854 38.0601 25.3854L38.0602 39.5158C33.35 39.5158 28.6399 39.5158 23.9297 39.5158Z" fill="#005CE6"/>
<path d="M57.8418 39.5157L57.8418 32.4505L57.8419 25.3853C62.552 25.3853 67.2621 25.3853 71.9722 25.3853L71.9723 39.5157C67.2621 39.5157 62.552 39.5157 57.8418 39.5157Z" fill="#005CE6"/>
<path d="M29.63 14.1304L29.6299 16.9565L29.6299 19.7825C31.514 19.7825 33.3981 19.7825 35.2821 19.7825C35.2821 17.8985 35.2821 16.0144 35.282 14.1304C33.398 14.1304 31.514 14.1304 29.63 14.1304Z" fill="#005CE6"/>
<path d="M29.63 45.2173L29.6299 48.0434L29.6299 50.8695C31.514 50.8695 33.3981 50.8695 35.2821 50.8695C35.2821 48.9854 35.2821 47.1013 35.2821 45.2173C33.398 45.2173 31.514 45.2173 29.63 45.2173Z" fill="#005CE6"/>
<path d="M60.7179 45.2173L60.7178 48.0434L60.7178 50.8695C62.6019 50.8695 64.4859 50.8695 66.37 50.8695C66.37 48.9854 66.37 47.1013 66.3699 45.2173C64.4859 45.2173 62.6019 45.2173 60.7179 45.2173Z" fill="#005CE6"/>
<path d="M60.7179 14.1304L60.7178 16.9565L60.7178 19.7825C62.6019 19.7825 64.4859 19.7825 66.37 19.7826C66.37 17.8985 66.37 16.0144 66.3699 14.1304C64.4859 14.1304 62.6019 14.1304 60.7179 14.1304Z" fill="#005CE6"/>
<path d="M23.9786 53.6954L23.9786 55.1085L23.9785 56.5215C24.9206 56.5215 25.8626 56.5215 26.8047 56.5215C26.8047 55.5795 26.8046 54.6375 26.8046 53.6954C25.8626 53.6954 24.9206 53.6954 23.9786 53.6954Z" fill="#005CE6"/>
<path d="M23.9786 8.47815L23.9786 9.89119L23.9785 11.3042C24.9206 11.3042 25.8626 11.3042 26.8047 11.3042C26.8047 10.3622 26.8046 9.42018 26.8046 8.47815C25.8626 8.47815 24.9206 8.47815 23.9786 8.47815Z" fill="#005CE6"/>
<path d="M69.1954 8.47815L69.1954 9.89119L69.1953 11.3042C70.1374 11.3042 71.0794 11.3042 72.0215 11.3042C72.0215 10.3622 72.0214 9.42018 72.0214 8.47815C71.0794 8.47815 70.1374 8.47815 69.1954 8.47815Z" fill="#005CE6"/>
<path d="M69.1954 53.6954L69.1954 55.1085L69.1953 56.5215C70.1374 56.5215 71.0794 56.5215 72.0215 56.5215C72.0215 55.5795 72.0214 54.6375 72.0214 53.6954C71.0794 53.6954 70.1374 53.6954 69.1954 53.6954Z" fill="#005CE6"/>
<path d="M74.8477 31.0869L74.8477 33.913L74.8477 36.7391C76.7317 36.7391 78.6158 36.7391 80.4999 36.7391C80.4999 34.855 80.4999 32.971 80.4998 31.0869C78.6158 31.0869 76.7318 31.0869 74.8477 31.0869Z" fill="#005CE6"/>
<path d="M15.5001 31.0869L15.5 33.913L15.5 36.7391C17.3841 36.7391 19.2682 36.7391 21.1522 36.7391C21.1522 34.855 21.1522 32.971 21.1522 31.0869C19.2681 31.0869 17.3841 31.0869 15.5001 31.0869Z" fill="#005CE6"/>
<path d="M43.7618 59.3478L43.7618 62.1739L43.7617 64.9999C45.6458 64.9999 47.5299 64.9999 49.414 64.9999C49.4139 63.1159 49.4139 61.2318 49.4139 59.3478C47.5299 59.3478 45.6458 59.3478 43.7618 59.3478Z" fill="#005CE6"/>
<path d="M46.586 -0.00012207L46.586 2.82596L46.5859 5.65204C48.47 5.65205 50.3541 5.65205 52.2382 5.65205C52.2382 3.76799 52.2381 1.88394 52.2381 -0.00012207C50.3541 -0.000115005 48.4701 -0.000115005 46.586 -0.00012207Z" fill="#005CE6"/>
<path d="M24.8231 92V79.4H27.7391V92H24.8231ZM30.7294 92V79.4H33.6454V89.624H39.9634V92H30.7294ZM41.5926 92V79.4H44.5086V92H41.5926ZM53.6189 92.216C52.6229 92.216 51.6989 92.054 50.8469 91.73C50.0069 91.406 49.2749 90.95 48.6509 90.362C48.0389 89.774 47.5589 89.084 47.2109 88.292C46.8749 87.5 46.7069 86.636 46.7069 85.7C46.7069 84.764 46.8749 83.9 47.2109 83.108C47.5589 82.316 48.0449 81.626 48.6689 81.038C49.2929 80.45 50.0249 79.994 50.8649 79.67C51.7049 79.346 52.6169 79.184 53.6009 79.184C54.5969 79.184 55.5089 79.346 56.3369 79.67C57.1769 79.994 57.9029 80.45 58.5149 81.038C59.1389 81.626 59.6249 82.316 59.9729 83.108C60.3209 83.888 60.4949 84.752 60.4949 85.7C60.4949 86.636 60.3209 87.506 59.9729 88.31C59.6249 89.102 59.1389 89.792 58.5149 90.38C57.9029 90.956 57.1769 91.406 56.3369 91.73C55.5089 92.054 54.6029 92.216 53.6189 92.216ZM53.6009 89.732C54.1649 89.732 54.6809 89.636 55.1489 89.444C55.6289 89.252 56.0489 88.976 56.4089 88.616C56.7689 88.256 57.0449 87.83 57.2369 87.338C57.4409 86.846 57.5429 86.3 57.5429 85.7C57.5429 85.1 57.4409 84.554 57.2369 84.062C57.0449 83.57 56.7689 83.144 56.4089 82.784C56.0609 82.424 55.6469 82.148 55.1669 81.956C54.6869 81.764 54.1649 81.668 53.6009 81.668C53.0369 81.668 52.5149 81.764 52.0349 81.956C51.5669 82.148 51.1529 82.424 50.7929 82.784C50.4329 83.144 50.1509 83.57 49.9469 84.062C49.7549 84.554 49.6589 85.1 49.6589 85.7C49.6589 86.288 49.7549 86.834 49.9469 87.338C50.1509 87.83 50.4269 88.256 50.7749 88.616C51.1349 88.976 51.5549 89.252 52.0349 89.444C52.5149 89.636 53.0369 89.732 53.6009 89.732ZM66.8264 92.216C65.8184 92.216 64.8524 92.084 63.9284 91.82C63.0044 91.544 62.2604 91.19 61.6964 90.758L62.6864 88.562C63.2264 88.946 63.8624 89.264 64.5944 89.516C65.3384 89.756 66.0884 89.876 66.8444 89.876C67.4204 89.876 67.8824 89.822 68.2304 89.714C68.5904 89.594 68.8544 89.432 69.0224 89.228C69.1904 89.024 69.2744 88.79 69.2744 88.526C69.2744 88.19 69.1424 87.926 68.8784 87.734C68.6144 87.53 68.2664 87.368 67.8344 87.248C67.4024 87.116 66.9224 86.996 66.3944 86.888C65.8784 86.768 65.3564 86.624 64.8284 86.456C64.3124 86.288 63.8384 86.072 63.4064 85.808C62.9744 85.544 62.6204 85.196 62.3444 84.764C62.0804 84.332 61.9484 83.78 61.9484 83.108C61.9484 82.388 62.1404 81.734 62.5244 81.146C62.9204 80.546 63.5084 80.072 64.2884 79.724C65.0804 79.364 66.0704 79.184 67.2584 79.184C68.0504 79.184 68.8304 79.28 69.5984 79.472C70.3664 79.652 71.0444 79.928 71.6324 80.3L70.7324 82.514C70.1444 82.178 69.5564 81.932 68.9684 81.776C68.3804 81.608 67.8044 81.524 67.2404 81.524C66.6764 81.524 66.2144 81.59 65.8544 81.722C65.4944 81.854 65.2364 82.028 65.0804 82.244C64.9244 82.448 64.8464 82.688 64.8464 82.964C64.8464 83.288 64.9784 83.552 65.2424 83.756C65.5064 83.948 65.8544 84.104 66.2864 84.224C66.7184 84.344 67.1924 84.464 67.7084 84.584C68.2364 84.704 68.7584 84.842 69.2744 84.998C69.8024 85.154 70.2824 85.364 70.7144 85.628C71.1464 85.892 71.4944 86.24 71.7584 86.672C72.0344 87.104 72.1724 87.65 72.1724 88.31C72.1724 89.018 71.9744 89.666 71.5784 90.254C71.1824 90.842 70.5884 91.316 69.7964 91.676C69.0164 92.036 68.0264 92.216 66.8264 92.216Z" fill="#005CE6"/>
</svg>
